<svg width="89" height="88" viewBox="0 0 89 88" fill="none" xmlns="http://www.w3.org/2000/svg">
<path id="Vector" d="M88.7159 87.7015L89 87.7015L89 0.797373L59.0367 0.797372L59.0367 27.2488L50.2172 14.5206C42.0506 5.34169 31.6546 -2.71683 17.0859 0.872924C3.42772 4.23786 -2.75044 14.8652 1.55583 31.6328C3.77952 40.2939 16.2807 50.7148 29.2785 58.6499L5.06573e-06 58.6499L3.78279e-06 88L88.7159 88L88.7159 87.7015ZM31.5436 47.6927C29.6021 40.1335 34.2846 32.4639 42.0017 30.5621C49.7187 28.6603 57.5486 33.2471 59.4901 40.8062C61.4316 48.3653 56.7491 56.035 49.032 57.9367C41.315 59.8385 33.4851 55.2518 31.5436 47.6927Z" fill="#FF5B1D"/>
</svg>
