<svg xmlns="http://www.w3.org/2000/svg" viewBox="0 0 1137 400.51"><path d="M1018.04 51.925c5.35 17.875-2.7 39.028-22.278 62.083-19.555 23.025-50.468 47.773-90.414 72.754-79.883 49.956-195.737 100.753-328.625 140.53-132.889 39.779-257.599 60.99-351.792 63.14-47.101 1.075-86.528-2.617-115.517-11.111-29.027-8.505-47.376-21.756-52.727-39.632-5.35-17.875 2.7-39.028 22.28-62.083 19.555-23.025 50.469-47.772 90.415-72.753 79.882-49.956 195.736-100.754 328.625-140.532C630.895 24.544 755.605 3.332 849.798 1.18 896.9.108 936.326 3.8 965.316 12.294c29.027 8.506 47.374 21.756 52.724 39.632z" fill="none" stroke="#fff" stroke-width="1.5"/><path d="M678.952 88.509v-1.002H373.8V193.22h92.88l-44.693 31.116c-32.23 28.813-60.527 65.49-47.922 116.89 11.816 48.188 49.132 69.985 108.009 54.792 30.412-7.845 67.004-51.951 94.867-97.808v103.297H680V88.509h-1.048zM538.466 290.218c-26.543 6.85-53.474-9.67-60.151-36.897-6.678-27.226 9.427-54.851 35.97-61.7 26.543-6.85 53.474 9.67 60.152 36.897 6.678 27.226-9.428 54.85-35.971 61.7z" fill="#ff5b1d"/><path d="M753 322.507h-27v62.685l27 16.315v-79zM233.791 88.275h14.208l-25.216 68.352h-15.36l-17.664-47.104-17.92 47.104h-15.36l-25.088-68.352h15.104l18.048 50.432 18.816-50.432h13.44l18.432 50.688 18.56-50.688zM321.381 122.835c0 1.152-.128 2.688-.256 4.736h-53.632c1.92 10.112 10.368 16.384 22.144 16.384 7.552 0 13.696-2.432 18.56-7.424l8.576 9.856c-6.144 7.296-15.744 11.136-27.52 11.136-22.784 0-37.76-14.464-37.76-35.072 0-19.456 13.952-34.944 35.328-34.944 20.352 0 34.56 14.208 34.56 35.328zm-34.56-22.528c-10.24 0-17.92 6.528-19.456 16.64h38.784c-1.408-9.856-8.96-16.64-19.328-16.64zM37.888 215.507c20.992 0 34.688 14.72 34.688 34.944s-13.696 35.072-34.688 35.072c-9.344 0-17.408-3.2-22.656-9.728v8.832H0V189.65h16v34.944c5.504-6.016 13.056-9.088 21.888-9.088zm-1.792 56.32c11.776 0 20.224-8.576 20.224-21.376s-8.448-21.376-20.224-21.376c-12.16 0-20.352 8.832-20.352 21.376s8.192 21.376 20.352 21.376zM137.926 216.275h16v68.352h-15.232v-8.704c-5.12 6.144-13.184 9.6-22.016 9.6-18.304 0-29.44-10.24-29.44-30.208v-39.04h16v36.864c0 12.288 5.76 18.304 16 18.304 11.392 0 18.688-7.296 18.688-20.608v-34.56zM174.875 284.627v-68.352h16v68.352h-16zm-2.048-98.944h20.352v19.2h-20.352v-19.2zM211.875 284.627V189.65h16v94.976h-16zM299.819 189.65h16v94.977h-15.36v-8.832c-5.248 6.528-13.312 9.728-22.656 9.728-20.864 0-34.56-14.848-34.56-35.072 0-20.608 14.208-34.944 34.56-34.944 9.088 0 16.768 3.072 22.016 9.216V189.65zm-20.096 82.177c12.16 0 20.352-8.832 20.352-21.376s-8.192-21.376-20.352-21.376-20.352 8.832-20.352 21.376 8.192 21.376 20.352 21.376zM759.317 112.55c9.004 0 14.879 6.287 14.879 14.925s-5.875 14.979-14.879 14.979c-4.008 0-7.467-1.366-9.718-4.155v3.773h-6.534v-40.565h6.863v14.925c2.361-2.57 5.6-3.882 9.389-3.882zm-.769 24.055c5.052 0 8.675-3.663 8.675-9.13s-3.623-9.13-8.675-9.13c-5.216 0-8.73 3.772-8.73 9.13 0 5.357 3.514 9.13 8.73 9.13zM787.239 112.878v4.264c1.976-3.061 5.435-4.592 10.432-4.592v6.506a8.691 8.691 0 0 0-1.593-.164c-5.325 0-8.51 3.17-8.51 9.02v14.16h-6.863v-29.194h6.534zM828.039 142.017l-.055-.055v.11h-6.478v-3.554c-1.812 2.406-3.679 3.936-9.225 3.936-7.631 0-10.926-3.061-10.926-8.31 0-7.27 7.413-9.13 12.189-9.13h7.522v-6.286h-18.832v-6.232h25.805v29.52zm-14.33-4.538c2.965 0 5.436-1.366 7.357-4.428v-3.5h-7.028c-3.623 0-5.819 1.477-5.929 3.883-.11 3.007 1.537 4.045 5.6 4.045zM853.319 112.55c7.412 0 12.244 4.319 12.244 12.793v16.729h-6.864v-15.854c0-5.085-2.525-7.71-6.972-7.71-5.052 0-8.181 3.117-8.181 8.803v14.76h-6.863v-29.193h6.533v3.772c2.251-2.678 5.765-4.1 10.103-4.1zM896.389 101.507h6.863v40.565h-6.588v-3.773c-2.251 2.789-5.71 4.155-9.718 4.155-8.95 0-14.825-6.341-14.825-14.98 0-8.801 6.095-14.924 14.825-14.924 3.898 0 7.192 1.312 9.443 3.936v-14.98zm-8.62 35.098c5.216 0 8.73-3.773 8.73-9.13 0-5.358-3.514-9.13-8.73-9.13s-8.73 3.772-8.73 9.13c0 5.357 3.514 9.13 8.73 9.13zM921.29 142.454c-4.777 0-9.718-1.366-12.409-3.28l2.636-5.193c2.635 1.749 6.643 2.897 10.212 2.897 4.118 0 6.15-1.093 6.15-3.225 0-1.04-.494-1.75-1.538-2.133-1.043-.382-2.745-.765-5.051-1.148-2.416-.382-4.392-.765-5.875-1.257-3.074-.93-5.655-3.226-5.655-7.435 0-5.522 4.996-9.13 12.903-9.13 4.008 0 8.4.984 10.981 2.515l-2.636 5.194c-2.47-1.477-5.271-2.187-8.4-2.187-4.008 0-6.15 1.312-6.15 3.28 0 1.093.549 1.859 1.702 2.296 1.099.492 2.801.929 5.162 1.312 2.36.383 4.282.765 5.765 1.258 3.019.929 5.49 3.06 5.49 7.216 0 5.467-5.106 9.02-13.287 9.02zM750.409 222.75c-4.777 0-9.719-1.367-12.409-3.28l2.635-5.194c2.636 1.749 6.644 2.897 10.213 2.897 4.118 0 6.149-1.093 6.149-3.225 0-1.04-.494-1.75-1.537-2.132s-2.745-.765-5.051-1.148c-2.416-.383-4.393-.766-5.875-1.258-3.075-.93-5.656-3.225-5.656-7.435 0-5.521 4.997-9.13 12.903-9.13 4.008 0 8.401.985 10.981 2.515l-2.635 5.194c-2.471-1.476-5.271-2.187-8.401-2.187-4.008 0-6.149 1.312-6.149 3.28 0 1.094.549 1.859 1.702 2.297 1.098.492 2.8.929 5.161 1.312 2.361.382 4.283.765 5.765 1.257 3.02.929 5.491 3.06 5.491 7.216 0 5.467-5.107 9.02-13.287 9.02zM776.14 193.174v4.264c1.976-3.062 5.435-4.592 10.432-4.592v6.505a8.78 8.78 0 0 0-1.593-.164c-5.325 0-8.51 3.17-8.51 9.02v14.16h-6.863v-29.193h6.534zM809.169 215.916l1.922 4.866c-1.593 1.312-4.008 1.968-6.589 1.968-6.424 0-10.102-3.444-10.102-9.841v-14.05h-4.832v-5.467h4.832v-6.67h6.863v6.67h7.851v5.467h-7.851v13.886c0 2.843 1.427 4.374 4.063 4.374 1.537 0 2.8-.383 3.843-1.203zM841.444 222.312l-.055-.054v.109h-6.479v-3.553c-1.812 2.405-3.679 3.936-9.224 3.936-7.632 0-10.926-3.062-10.926-8.31 0-7.271 7.412-9.13 12.189-9.13h7.522v-6.287h-18.833v-6.232h25.806v29.52zm-14.33-4.537c2.964 0 5.435-1.367 7.357-4.428v-3.5h-7.028c-3.624 0-5.82 1.477-5.93 3.882-.11 3.007 1.538 4.046 5.601 4.046zM865.79 215.916l1.922 4.866c-1.593 1.312-4.008 1.968-6.589 1.968-6.424 0-10.103-3.444-10.103-9.841v-14.05h-4.831v-5.467h4.831v-6.67h6.864v6.67h7.851v5.467h-7.851v13.886c0 2.843 1.427 4.374 4.063 4.374 1.537 0 2.8-.383 3.843-1.203zM899.955 207.934c0 .492-.055 1.148-.11 2.023H876.84c.823 4.319 4.447 6.998 9.498 6.998 3.24 0 5.875-1.04 7.961-3.171l3.679 4.21c-2.635 3.116-6.753 4.756-11.804 4.756-9.774 0-16.198-6.178-16.198-14.98 0-8.31 5.985-14.924 15.154-14.924 8.73 0 14.825 6.068 14.825 15.088zm-14.825-9.621c-4.392 0-7.686 2.788-8.345 7.107h16.636c-.604-4.21-3.843-7.107-8.291-7.107zM935.647 233.356h-23.06v-6.233h16.087v-9.294c-2.581 1.969-5.875 3.117-9.444 3.117-8.345 0-15.154-6.287-15.154-14.05s6.809-14.05 15.154-14.05c3.569 0 6.534.328 10.213 4.155l-.055-3.827h6.259v40.182zm-15.758-18.096c4.942 0 9.005-3.717 9.005-8.255 0-4.647-4.063-8.364-9.005-8.364-4.996 0-9.059 3.717-9.059 8.364 0 4.538 4.063 8.255 9.059 8.255zM944.67 222.367v-29.193h6.863v29.193h-6.863zm-.879-42.26h8.73v8.2h-8.73v-8.2zM988.103 207.934c0 .492-.055 1.148-.11 2.023h-23.005c.824 4.319 4.447 6.998 9.499 6.998 3.239 0 5.875-1.04 7.961-3.171l3.679 4.21c-2.636 3.116-6.754 4.756-11.805 4.756-9.773 0-16.197-6.178-16.197-14.98 0-8.31 5.985-14.924 15.154-14.924 8.73 0 14.824 6.068 14.824 15.088zm-14.824-9.621c-4.393 0-7.687 2.788-8.346 7.107h16.636c-.604-4.21-3.843-7.107-8.29-7.107zM1003.75 222.75c-4.772 0-9.713-1.367-12.404-3.28l2.636-5.194c2.635 1.749 6.648 2.897 10.208 2.897 4.12 0 6.15-1.093 6.15-3.225 0-1.04-.49-1.75-1.53-2.132-1.05-.383-2.75-.765-5.06-1.148-2.41-.383-4.387-.766-5.87-1.258-3.075-.93-5.655-3.225-5.655-7.435 0-5.521 4.996-9.13 12.905-9.13 4.01 0 8.4.985 10.98 2.515l-2.64 5.194c-2.47-1.476-5.27-2.187-8.4-2.187-4.01 0-6.147 1.312-6.147 3.28 0 1.094.549 1.859 1.707 2.297 1.09.492 2.8.929 5.16 1.312 2.36.382 4.28.765 5.76 1.257 3.02.929 5.49 3.06 5.49 7.216 0 5.467-5.1 9.02-13.29 9.02zM747.883 266.635v4.265c1.977-3.062 5.436-4.593 10.432-4.593v6.506a8.778 8.778 0 0 0-1.592-.164c-5.326 0-8.511 3.17-8.511 9.02v14.16h-6.863v-29.194h6.534zM791.431 281.396c0 .492-.055 1.148-.11 2.023h-23.005c.824 4.319 4.448 6.998 9.499 6.998 3.239 0 5.875-1.04 7.961-3.171l3.679 4.209c-2.636 3.116-6.754 4.757-11.805 4.757-9.773 0-16.197-6.178-16.197-14.98 0-8.31 5.985-14.925 15.154-14.925 8.73 0 14.824 6.069 14.824 15.089zm-14.824-9.622c-4.393 0-7.687 2.789-8.346 7.107h16.637c-.604-4.21-3.844-7.107-8.291-7.107zM814.276 266.307c9.004 0 14.879 6.287 14.879 14.925s-5.875 14.98-14.879 14.98c-3.954 0-7.083-1.313-9.389-3.937v14.16h-6.863v-39.8h6.533v3.827c2.252-2.788 5.711-4.155 9.719-4.155zm-.769 24.055c5.051 0 8.675-3.663 8.675-9.13s-3.624-9.13-8.675-9.13c-5.216 0-8.73 3.773-8.73 9.13 0 5.358 3.514 9.13 8.73 9.13zM857.187 266.635h6.863v29.194h-6.534v-3.718c-2.196 2.624-5.655 4.1-9.444 4.1-7.851 0-12.628-4.373-12.628-12.901v-16.675h6.863v15.745c0 5.248 2.471 7.818 6.863 7.818 4.887 0 8.017-3.116 8.017-8.802v-14.761zM888.739 289.378l1.921 4.865c-1.592 1.313-4.008 1.969-6.588 1.969-6.424 0-10.103-3.445-10.103-9.841v-14.05h-4.832v-5.467h4.832v-6.67h6.863v6.67h7.852v5.467h-7.852v13.886c0 2.843 1.428 4.374 4.063 4.374 1.538 0 2.8-.383 3.844-1.203zM921.013 295.774l-.055-.054v.109h-6.478v-3.554c-1.812 2.406-3.679 3.937-9.224 3.937-7.632 0-10.927-3.062-10.927-8.31 0-7.271 7.413-9.13 12.189-9.13h7.522v-6.287h-18.832v-6.232h25.805v29.52zm-14.33-4.537c2.965 0 5.436-1.367 7.357-4.43v-3.497h-7.027c-3.624 0-5.82 1.476-5.93 3.88-.11 3.008 1.537 4.047 5.6 4.047zM945.36 289.378l1.921 4.865c-1.592 1.313-4.008 1.969-6.588 1.969-6.424 0-10.103-3.445-10.103-9.841v-14.05h-4.832v-5.467h4.832v-6.67h6.863v6.67h7.852v5.467h-7.852v13.886c0 2.843 1.428 4.374 4.063 4.374 1.537 0 2.8-.383 3.844-1.203zM952.927 295.829v-29.194h6.863v29.194h-6.863zm-.878-42.26h8.729v8.2h-8.729v-8.2zM981.975 296.212c-9.059 0-15.593-6.233-15.593-14.98 0-2.897.659-5.467 2.032-7.708 2.635-4.538 7.631-7.217 13.561-7.217 9.114 0 15.648 6.178 15.648 14.925 0 8.474-6.204 14.98-15.648 14.98zm0-5.85c5.052 0 8.73-3.663 8.73-9.13s-3.678-9.13-8.73-9.13c-5.051 0-8.675 3.663-8.675 9.13s3.624 9.13 8.675 9.13zM1020.82 266.307c7.41 0 12.25 4.319 12.25 12.793v16.729h-6.87v-15.854c0-5.084-2.52-7.71-6.97-7.71-5.05 0-8.18 3.118-8.18 8.803v14.76h-6.86v-29.193h6.53v3.773c2.25-2.68 5.76-4.101 10.1-4.101zM782.254 376.507c-9.279 0-15.868-6.232-15.868-14.98s6.589-14.924 15.868-14.924c5.765 0 10.322 2.405 12.518 6.779l-5.271 3.06c-1.702-2.677-4.283-4.044-7.302-4.044-5.107 0-8.895 3.608-8.895 9.13 0 5.52 3.679 9.129 8.895 9.129 3.019 0 5.6-1.366 7.302-4.045l5.271 3.06c-2.251 4.375-6.808 6.835-12.518 6.835zM813.453 376.507c-9.059 0-15.593-6.232-15.593-14.98 0-2.897.659-5.466 2.031-7.708 2.636-4.537 7.632-7.216 13.562-7.216 9.114 0 15.648 6.178 15.648 14.925 0 8.473-6.204 14.979-15.648 14.979zm0-5.85c5.051 0 8.73-3.662 8.73-9.13s-3.679-9.13-8.73-9.13-8.675 3.664-8.675 9.13 3.624 9.13 8.675 9.13zM852.3 346.603c7.412 0 12.244 4.319 12.244 12.793v16.728h-6.863V360.27c0-5.084-2.526-7.708-6.973-7.708-5.051 0-8.181 3.116-8.181 8.802v14.76h-6.863V346.93h6.533v3.772c2.252-2.68 5.766-4.1 10.103-4.1zM889.886 346.603c7.413 0 12.244 4.319 12.244 12.793v16.728h-6.863V360.27c0-5.084-2.525-7.708-6.973-7.708-5.051 0-8.181 3.116-8.181 8.802v14.76h-6.863V346.93h6.534v3.772c2.251-2.68 5.765-4.1 10.102-4.1zM938.667 361.692c0 .492-.055 1.148-.11 2.022h-23.005c.824 4.319 4.447 6.998 9.499 6.998 3.239 0 5.874-1.04 7.961-3.171l3.679 4.21c-2.636 3.116-6.754 4.756-11.805 4.756-9.773 0-16.197-6.178-16.197-14.98 0-8.31 5.985-14.924 15.154-14.924 8.73 0 14.824 6.068 14.824 15.089zm-14.824-9.622c-4.393 0-7.687 2.788-8.346 7.107h16.636c-.604-4.21-3.843-7.107-8.29-7.107zM958.711 376.507c-9.279 0-15.867-6.232-15.867-14.98s6.588-14.924 15.867-14.924c5.765 0 10.322 2.405 12.519 6.779l-5.271 3.06c-1.702-2.677-4.283-4.044-7.303-4.044-5.106 0-8.894 3.608-8.894 9.13 0 5.52 3.678 9.129 8.894 9.129 3.02 0 5.601-1.366 7.303-4.045l5.271 3.06c-2.251 4.375-6.809 6.835-12.519 6.835zM993.241 369.673l1.921 4.866c-1.592 1.312-4.008 1.968-6.588 1.968-6.424 0-10.103-3.444-10.103-9.84v-14.05h-4.832v-5.467h4.832v-6.67h6.863v6.67h7.852v5.467h-7.852v13.886c0 2.842 1.428 4.373 4.063 4.373 1.538 0 2.8-.383 3.844-1.203zM1000.81 376.124V346.93h6.86v29.193h-6.86zm-.88-42.26h8.73v8.2h-8.73v-8.2zM1029.86 376.507c-9.06 0-15.6-6.232-15.6-14.98 0-2.897.66-5.466 2.03-7.708 2.64-4.537 7.64-7.216 13.57-7.216 9.11 0 15.64 6.178 15.64 14.925 0 8.473-6.2 14.979-15.64 14.979zm0-5.85c5.05 0 8.73-3.662 8.73-9.13s-3.68-9.13-8.73-9.13-8.68 3.664-8.68 9.13 3.63 9.13 8.68 9.13zM1068.7 346.603c7.42 0 12.25 4.319 12.25 12.793v16.728h-6.87V360.27c0-5.084-2.52-7.708-6.97-7.708-5.05 0-8.18 3.116-8.18 8.802v14.76h-6.86V346.93h6.53v3.772c2.25-2.68 5.77-4.1 10.1-4.1zM1098.71 376.507c-4.77 0-9.72-1.367-12.41-3.28l2.64-5.194c2.64 1.75 6.64 2.898 10.21 2.898 4.12 0 6.15-1.094 6.15-3.226 0-1.038-.49-1.75-1.54-2.132-1.04-.383-2.74-.765-5.05-1.148-2.41-.383-4.39-.765-5.87-1.257-3.08-.93-5.66-3.226-5.66-7.435 0-5.522 5-9.13 12.91-9.13 4 0 8.4.984 10.98 2.515l-2.64 5.193c-2.47-1.476-5.27-2.186-8.4-2.186-4.01 0-6.15 1.312-6.15 3.28 0 1.093.55 1.858 1.7 2.296 1.1.492 2.8.929 5.16 1.312 2.37.383 4.29.765 5.77 1.257 3.02.93 5.49 3.062 5.49 7.217 0 5.467-5.11 9.02-13.29 9.02z" fill="#fff"/><path d="M752.979 321.614H723v-77.607m29.979 77.607v78.893H1135v-78.893h-24.84m-357.181 0h357.181m0 0v-77.607M723 166.4V87.507h387.16V166.4m-387.16 0h387.16m-387.16 0v77.607m387.16-77.607v77.607m0 0H723" fill="none" stroke="#fff" stroke-width="3"/></svg>