<svg width="243" height="503" viewBox="0 0 243 503" fill="none" xmlns="http://www.w3.org/2000/svg">
<path d="M227.23 68.7341V68H3.05686V145.433H71.2894L38.4566 168.225C14.7791 189.33 -6.00818 216.196 3.25176 253.846C11.9318 289.142 39.3455 305.108 82.5982 293.979C104.94 288.233 131.821 255.926 152.29 222.336V298H228V68.7341H227.23ZM124.025 216.483C104.526 221.5 84.742 209.399 79.8363 189.456C74.9307 169.513 86.7623 149.279 106.261 144.262C125.76 139.244 145.545 151.345 150.45 171.288C155.356 191.231 143.525 211.466 124.025 216.483Z" fill="#FF5B1D"/>
<path d="M42.2611 17.232H48.0331L37.7891 45H31.5491L24.3731 25.864L17.0931 45H10.8531L0.661125 17.232H6.79713L14.1291 37.72L21.7731 17.232H27.2331L34.7211 37.824L42.2611 17.232ZM77.8446 31.272C77.8446 31.74 77.7926 32.364 77.7406 33.196H55.9526C56.7326 37.304 60.1646 39.852 64.9486 39.852C68.0166 39.852 70.5126 38.864 72.4886 36.836L75.9726 40.84C73.4766 43.804 69.5766 45.364 64.7926 45.364C55.5366 45.364 49.4526 39.488 49.4526 31.116C49.4526 23.212 55.1206 16.92 63.8046 16.92C72.0726 16.92 77.8446 22.692 77.8446 31.272ZM63.8046 22.12C59.6446 22.12 56.5246 24.772 55.9006 28.88H71.6566C71.0846 24.876 68.0166 22.12 63.8046 22.12ZM113.851 16.92C122.379 16.92 127.943 22.9 127.943 31.116C127.943 39.332 122.379 45.364 113.851 45.364C110.055 45.364 106.779 44.064 104.647 41.412V45H98.4593V6.416H104.959V20.612C107.195 18.168 110.263 16.92 113.851 16.92ZM113.123 39.8C117.907 39.8 121.339 36.316 121.339 31.116C121.339 25.916 117.907 22.432 113.123 22.432C108.183 22.432 104.855 26.02 104.855 31.116C104.855 36.212 108.183 39.8 113.123 39.8ZM154.492 17.232H160.992V45H154.804V41.464C152.724 43.96 149.448 45.364 145.86 45.364C138.424 45.364 133.9 41.204 133.9 33.092V17.232H140.4V32.208C140.4 37.2 142.74 39.644 146.9 39.644C151.528 39.644 154.492 36.68 154.492 31.272V17.232ZM169.502 45V17.232H176.002V45H169.502ZM168.67 4.804H176.938V12.604H168.67V4.804ZM184.534 45V6.416H191.034V45H184.534ZM220.261 6.416H226.761V45H220.521V41.412C218.389 44.064 215.113 45.364 211.317 45.364C202.841 45.364 197.277 39.332 197.277 31.116C197.277 22.744 203.049 16.92 211.317 16.92C215.009 16.92 218.129 18.168 220.261 20.664V6.416ZM212.097 39.8C217.037 39.8 220.365 36.212 220.365 31.116C220.365 26.02 217.037 22.432 212.097 22.432C207.157 22.432 203.829 26.02 203.829 31.116C203.829 36.212 207.157 39.8 212.097 39.8Z" fill="white"/>
<path d="M18.5 456H1V410.75M18.5 456V502H241.5V456H227M18.5 456H227M227 456V410.75M1 365.5V319.5H227V365.5M1 365.5H227M1 365.5V410.75M227 365.5V410.75M227 410.75H1" stroke="white" stroke-width="2"/>
<path d="M16.904 398.224C14.12 398.224 11.24 397.424 9.672 396.304L11.208 393.264C12.744 394.288 15.08 394.96 17.16 394.96C19.56 394.96 20.744 394.32 20.744 393.072C20.744 392.464 20.456 392.048 19.848 391.824C19.24 391.6 18.248 391.376 16.904 391.152C15.496 390.928 14.344 390.704 13.48 390.416C11.688 389.872 10.184 388.528 10.184 386.064C10.184 382.832 13.096 380.72 17.704 380.72C20.04 380.72 22.6 381.296 24.104 382.192L22.568 385.232C21.128 384.368 19.496 383.952 17.672 383.952C15.336 383.952 14.088 384.72 14.088 385.872C14.088 386.512 14.408 386.96 15.08 387.216C15.72 387.504 16.712 387.76 18.088 387.984C19.464 388.208 20.584 388.432 21.448 388.72C23.208 389.264 24.648 390.512 24.648 392.944C24.648 396.144 21.672 398.224 16.904 398.224ZM31.9008 380.912V383.408C33.0528 381.616 35.0688 380.72 37.9808 380.72V384.528C37.6288 384.464 37.3408 384.432 37.0528 384.432C33.9488 384.432 32.0928 386.288 32.0928 389.712V398H28.0928V380.912H31.9008ZM51.151 394.224L52.271 397.072C51.343 397.84 49.935 398.224 48.431 398.224C44.687 398.224 42.543 396.208 42.543 392.464V384.24H39.727V381.04H42.543V377.136H46.543V381.04H51.119V384.24H46.543V392.368C46.543 394.032 47.375 394.928 48.911 394.928C49.807 394.928 50.543 394.704 51.151 394.224ZM69.9615 397.968L69.9295 397.936V398H66.1535V395.92C65.0975 397.328 64.0095 398.224 60.7775 398.224C56.3295 398.224 54.4095 396.432 54.4095 393.36C54.4095 389.104 58.7295 388.016 61.5135 388.016H65.8975V384.336H54.9215V380.688H69.9615V397.968ZM61.6095 395.312C63.3375 395.312 64.7775 394.512 65.8975 392.72V390.672H61.8015C59.6895 390.672 58.4095 391.536 58.3455 392.944C58.2815 394.704 59.2415 395.312 61.6095 395.312ZM84.151 394.224L85.271 397.072C84.343 397.84 82.935 398.224 81.431 398.224C77.687 398.224 75.543 396.208 75.543 392.464V384.24H72.727V381.04H75.543V377.136H79.543V381.04H84.119V384.24H79.543V392.368C79.543 394.032 80.375 394.928 81.911 394.928C82.807 394.928 83.543 394.704 84.151 394.224ZM104.063 389.552C104.063 389.84 104.031 390.224 103.999 390.736H90.591C91.071 393.264 93.183 394.832 96.127 394.832C98.015 394.832 99.551 394.224 100.767 392.976L102.911 395.44C101.375 397.264 98.975 398.224 96.031 398.224C90.335 398.224 86.591 394.608 86.591 389.456C86.591 384.592 90.079 380.72 95.423 380.72C100.511 380.72 104.063 384.272 104.063 389.552ZM95.423 383.92C92.863 383.92 90.943 385.552 90.559 388.08H100.255C99.903 385.616 98.015 383.92 95.423 383.92ZM124.865 404.432H111.425V400.784H120.801V395.344C119.297 396.496 117.377 397.168 115.297 397.168C110.433 397.168 106.465 393.488 106.465 388.944C106.465 384.4 110.433 380.72 115.297 380.72C117.377 380.72 119.105 380.912 121.249 383.152L121.217 380.912H124.865V404.432ZM115.681 393.84C118.561 393.84 120.929 391.664 120.929 389.008C120.929 386.288 118.561 384.112 115.681 384.112C112.769 384.112 110.401 386.288 110.401 389.008C110.401 391.664 112.769 393.84 115.681 393.84ZM130.124 398V380.912H134.124V398H130.124ZM129.612 373.264H134.7V378.064H129.612V373.264ZM155.438 389.552C155.438 389.84 155.406 390.224 155.374 390.736H141.966C142.446 393.264 144.558 394.832 147.502 394.832C149.39 394.832 150.926 394.224 152.142 392.976L154.286 395.44C152.75 397.264 150.35 398.224 147.406 398.224C141.71 398.224 137.966 394.608 137.966 389.456C137.966 384.592 141.454 380.72 146.798 380.72C151.886 380.72 155.438 384.272 155.438 389.552ZM146.798 383.92C144.238 383.92 142.318 385.552 141.934 388.08H151.63C151.278 385.616 149.39 383.92 146.798 383.92ZM164.56 398.224C161.776 398.224 158.896 397.424 157.328 396.304L158.864 393.264C160.4 394.288 162.736 394.96 164.816 394.96C167.216 394.96 168.4 394.32 168.4 393.072C168.4 392.464 168.112 392.048 167.504 391.824C166.896 391.6 165.904 391.376 164.56 391.152C163.152 390.928 162 390.704 161.136 390.416C159.344 389.872 157.84 388.528 157.84 386.064C157.84 382.832 160.752 380.72 165.36 380.72C167.696 380.72 170.256 381.296 171.76 382.192L170.224 385.232C168.784 384.368 167.152 383.952 165.328 383.952C162.992 383.952 161.744 384.72 161.744 385.872C161.744 386.512 162.064 386.96 162.736 387.216C163.376 387.504 164.368 387.76 165.744 387.984C167.12 388.208 168.24 388.432 169.104 388.72C170.864 389.264 172.304 390.512 172.304 392.944C172.304 396.144 169.328 398.224 164.56 398.224Z" fill="white"/>
<path d="M15.432 423.912V426.408C16.584 424.616 18.6 423.72 21.512 423.72V427.528C21.16 427.464 20.872 427.432 20.584 427.432C17.48 427.432 15.624 429.288 15.624 432.712V441H11.624V423.912H15.432ZM40.813 432.552C40.813 432.84 40.781 433.224 40.749 433.736H27.341C27.821 436.264 29.933 437.832 32.877 437.832C34.765 437.832 36.301 437.224 37.517 435.976L39.661 438.44C38.125 440.264 35.725 441.224 32.781 441.224C27.085 441.224 23.341 437.608 23.341 432.456C23.341 427.592 26.829 423.72 32.173 423.72C37.261 423.72 40.813 427.272 40.813 432.552ZM32.173 426.92C29.613 426.92 27.693 428.552 27.309 431.08H37.005C36.653 428.616 34.765 426.92 32.173 426.92ZM54.1273 423.72C59.3753 423.72 62.7993 427.4 62.7993 432.456C62.7993 437.512 59.3753 441.224 54.1273 441.224C51.8233 441.224 49.9993 440.456 48.6553 438.92V447.208H44.6553V423.912H48.4633V426.152C49.7753 424.52 51.7913 423.72 54.1273 423.72ZM53.6793 437.8C56.6233 437.8 58.7353 435.656 58.7353 432.456C58.7353 429.256 56.6233 427.112 53.6793 427.112C50.6393 427.112 48.5913 429.32 48.5913 432.456C48.5913 435.592 50.6393 437.8 53.6793 437.8ZM79.1368 423.912H83.1368V441H79.3288V438.824C78.0488 440.36 76.0328 441.224 73.8248 441.224C69.2488 441.224 66.4648 438.664 66.4648 433.672V423.912H70.4648V433.128C70.4648 436.2 71.9048 437.704 74.4648 437.704C77.3128 437.704 79.1368 435.88 79.1368 432.552V423.912ZM97.526 437.224L98.646 440.072C97.718 440.84 96.31 441.224 94.806 441.224C91.062 441.224 88.918 439.208 88.918 435.464V427.24H86.102V424.04H88.918V420.136H92.918V424.04H97.494V427.24H92.918V435.368C92.918 437.032 93.75 437.928 95.286 437.928C96.182 437.928 96.918 437.704 97.526 437.224ZM116.337 440.968L116.305 440.936V441H112.529V438.92C111.473 440.328 110.385 441.224 107.153 441.224C102.705 441.224 100.785 439.432 100.785 436.36C100.785 432.104 105.105 431.016 107.889 431.016H112.273V427.336H101.297V423.688H116.337V440.968ZM107.985 438.312C109.713 438.312 111.153 437.512 112.273 435.72V433.672H108.177C106.065 433.672 104.785 434.536 104.721 435.944C104.657 437.704 105.617 438.312 107.985 438.312ZM130.526 437.224L131.646 440.072C130.718 440.84 129.31 441.224 127.806 441.224C124.062 441.224 121.918 439.208 121.918 435.464V427.24H119.102V424.04H121.918V420.136H125.918V424.04H130.494V427.24H125.918V435.368C125.918 437.032 126.75 437.928 128.286 437.928C129.182 437.928 129.918 437.704 130.526 437.224ZM134.937 441V423.912H138.937V441H134.937ZM134.424 416.264H139.513V421.064H134.424V416.264ZM151.867 441.224C146.587 441.224 142.779 437.576 142.779 432.456C142.779 430.76 143.163 429.256 143.963 427.944C145.499 425.288 148.411 423.72 151.867 423.72C157.179 423.72 160.987 427.336 160.987 432.456C160.987 437.416 157.371 441.224 151.867 441.224ZM151.867 437.8C154.811 437.8 156.955 435.656 156.955 432.456C156.955 429.256 154.811 427.112 151.867 427.112C148.923 427.112 146.811 429.256 146.811 432.456C146.811 435.656 148.923 437.8 151.867 437.8ZM174.508 423.72C178.828 423.72 181.644 426.248 181.644 431.208V441H177.644V431.72C177.644 428.744 176.172 427.208 173.58 427.208C170.635 427.208 168.812 429.032 168.812 432.36V441H164.812V423.912H168.62V426.12C169.932 424.552 171.98 423.72 174.508 423.72Z" fill="white"/>
<path d="M35.464 488.224C30.056 488.224 26.216 484.576 26.216 479.456C26.216 474.336 30.056 470.72 35.464 470.72C38.824 470.72 41.48 472.128 42.76 474.688L39.688 476.48C38.696 474.912 37.192 474.112 35.432 474.112C32.456 474.112 30.248 476.224 30.248 479.456C30.248 482.688 32.392 484.8 35.432 484.8C37.192 484.8 38.696 484 39.688 482.432L42.76 484.224C41.448 486.784 38.792 488.224 35.464 488.224ZM53.6478 488.224C48.3678 488.224 44.5598 484.576 44.5598 479.456C44.5598 477.76 44.9438 476.256 45.7438 474.944C47.2798 472.288 50.1918 470.72 53.6478 470.72C58.9598 470.72 62.7678 474.336 62.7678 479.456C62.7678 484.416 59.1518 488.224 53.6478 488.224ZM53.6478 484.8C56.5918 484.8 58.7358 482.656 58.7358 479.456C58.7358 476.256 56.5918 474.112 53.6478 474.112C50.7038 474.112 48.5918 476.256 48.5918 479.456C48.5918 482.656 50.7038 484.8 53.6478 484.8ZM76.2888 470.72C80.6088 470.72 83.4248 473.248 83.4248 478.208V488H79.4248V478.72C79.4248 475.744 77.9528 474.208 75.3608 474.208C72.4167 474.208 70.5928 476.032 70.5928 479.36V488H66.5928V470.912H70.4008V473.12C71.7128 471.552 73.7608 470.72 76.2888 470.72ZM98.195 470.72C102.515 470.72 105.331 473.248 105.331 478.208V488H101.331V478.72C101.331 475.744 99.859 474.208 97.267 474.208C94.323 474.208 92.499 476.032 92.499 479.36V488H88.499V470.912H92.307V473.12C93.619 471.552 95.667 470.72 98.195 470.72ZM126.626 479.552C126.626 479.84 126.594 480.224 126.562 480.736H113.154C113.634 483.264 115.746 484.832 118.69 484.832C120.578 484.832 122.114 484.224 123.33 482.976L125.474 485.44C123.938 487.264 121.538 488.224 118.594 488.224C112.898 488.224 109.154 484.608 109.154 479.456C109.154 474.592 112.641 470.72 117.986 470.72C123.074 470.72 126.626 474.272 126.626 479.552ZM117.986 473.92C115.426 473.92 113.506 475.552 113.122 478.08H122.818C122.466 475.616 120.578 473.92 117.986 473.92ZM138.308 488.224C132.9 488.224 129.06 484.576 129.06 479.456C129.06 474.336 132.9 470.72 138.308 470.72C141.668 470.72 144.324 472.128 145.604 474.688L142.532 476.48C141.54 474.912 140.036 474.112 138.276 474.112C135.3 474.112 133.092 476.224 133.092 479.456C133.092 482.688 135.236 484.8 138.276 484.8C140.036 484.8 141.54 484 142.532 482.432L145.604 484.224C144.292 486.784 141.636 488.224 138.308 488.224ZM158.432 484.224L159.552 487.072C158.624 487.84 157.216 488.224 155.712 488.224C151.968 488.224 149.824 486.208 149.824 482.464V474.24H147.008V471.04H149.824V467.136H153.824V471.04H158.4V474.24H153.824V482.368C153.824 484.032 154.656 484.928 156.192 484.928C157.088 484.928 157.824 484.704 158.432 484.224ZM162.843 488V470.912H166.843V488H162.843ZM162.331 463.264H167.419V468.064H162.331V463.264ZM179.773 488.224C174.493 488.224 170.685 484.576 170.685 479.456C170.685 477.76 171.069 476.256 171.869 474.944C173.405 472.288 176.317 470.72 179.773 470.72C185.085 470.72 188.893 474.336 188.893 479.456C188.893 484.416 185.277 488.224 179.773 488.224ZM179.773 484.8C182.717 484.8 184.861 482.656 184.861 479.456C184.861 476.256 182.717 474.112 179.773 474.112C176.829 474.112 174.717 476.256 174.717 479.456C174.717 482.656 176.829 484.8 179.773 484.8ZM202.414 470.72C206.734 470.72 209.55 473.248 209.55 478.208V488H205.55V478.72C205.55 475.744 204.078 474.208 201.486 474.208C198.542 474.208 196.718 476.032 196.718 479.36V488H192.718V470.912H196.526V473.12C197.838 471.552 199.886 470.72 202.414 470.72ZM219.904 488.224C217.12 488.224 214.24 487.424 212.672 486.304L214.208 483.264C215.744 484.288 218.08 484.96 220.16 484.96C222.56 484.96 223.744 484.32 223.744 483.072C223.744 482.464 223.456 482.048 222.848 481.824C222.24 481.6 221.248 481.376 219.904 481.152C218.496 480.928 217.344 480.704 216.48 480.416C214.688 479.872 213.184 478.528 213.184 476.064C213.184 472.832 216.096 470.72 220.704 470.72C223.04 470.72 225.6 471.296 227.104 472.192L225.568 475.232C224.128 474.368 222.496 473.952 220.672 473.952C218.336 473.952 217.088 474.72 217.088 475.872C217.088 476.512 217.408 476.96 218.08 477.216C218.72 477.504 219.712 477.76 221.088 477.984C222.464 478.208 223.584 478.432 224.448 478.72C226.208 479.264 227.648 480.512 227.648 482.944C227.648 486.144 224.672 488.224 219.904 488.224Z" fill="white"/>
<path d="M18.5 456.5H2.5V493L18.5 502.5V456.5Z" fill="white"/>
<path d="M22.096 333.72C27.344 333.72 30.768 337.4 30.768 342.456C30.768 347.512 27.344 351.224 22.096 351.224C19.76 351.224 17.744 350.424 16.432 348.792V351H12.624V327.256H16.624V335.992C18 334.488 19.888 333.72 22.096 333.72ZM21.648 347.8C24.592 347.8 26.704 345.656 26.704 342.456C26.704 339.256 24.592 337.112 21.648 337.112C18.608 337.112 16.56 339.32 16.56 342.456C16.56 345.592 18.608 347.8 21.648 347.8ZM38.3695 333.912V336.408C39.5215 334.616 41.5375 333.72 44.4495 333.72V337.528C44.0975 337.464 43.8095 337.432 43.5215 337.432C40.4175 337.432 38.5615 339.288 38.5615 342.712V351H34.5615V333.912H38.3695ZM62.149 350.968L62.117 350.936V351H58.341V348.92C57.285 350.328 56.197 351.224 52.965 351.224C48.517 351.224 46.597 349.432 46.597 346.36C46.597 342.104 50.917 341.016 53.701 341.016H58.085V337.336H47.109V333.688H62.149V350.968ZM53.797 348.312C55.525 348.312 56.965 347.512 58.085 345.72V343.672H53.989C51.877 343.672 50.597 344.536 50.533 345.944C50.469 347.704 51.429 348.312 53.797 348.312ZM76.8825 333.72C81.2025 333.72 84.0185 336.248 84.0185 341.208V351H80.0185V341.72C80.0185 338.744 78.5465 337.208 75.9545 337.208C73.0105 337.208 71.1865 339.032 71.1865 342.36V351H67.1865V333.912H70.9945V336.12C72.3065 334.552 74.3545 333.72 76.8825 333.72ZM101.985 327.256H105.985V351H102.145V348.792C100.833 350.424 98.817 351.224 96.481 351.224C91.265 351.224 87.841 347.512 87.841 342.456C87.841 337.304 91.393 333.72 96.481 333.72C98.753 333.72 100.673 334.488 101.985 336.024V327.256ZM96.961 347.8C100.001 347.8 102.049 345.592 102.049 342.456C102.049 339.32 100.001 337.112 96.961 337.112C93.921 337.112 91.873 339.32 91.873 342.456C91.873 345.592 93.921 347.8 96.961 347.8ZM116.498 351.224C113.714 351.224 110.834 350.424 109.266 349.304L110.802 346.264C112.338 347.288 114.674 347.96 116.754 347.96C119.154 347.96 120.338 347.32 120.338 346.072C120.338 345.464 120.05 345.048 119.442 344.824C118.834 344.6 117.842 344.376 116.498 344.152C115.09 343.928 113.938 343.704 113.074 343.416C111.282 342.872 109.778 341.528 109.778 339.064C109.778 335.832 112.69 333.72 117.298 333.72C119.634 333.72 122.194 334.296 123.698 335.192L122.162 338.232C120.722 337.368 119.09 336.952 117.266 336.952C114.93 336.952 113.682 337.72 113.682 338.872C113.682 339.512 114.002 339.96 114.674 340.216C115.314 340.504 116.306 340.76 117.682 340.984C119.058 341.208 120.178 341.432 121.042 341.72C122.802 342.264 124.242 343.512 124.242 345.944C124.242 349.144 121.266 351.224 116.498 351.224Z" fill="white"/>
</svg>
