<svg width="115" height="30" viewBox="0 0 115 30" fill="none" xmlns="http://www.w3.org/2000/svg">
<g opacity="0.5">
<path d="M65.1475 10.1111C65.1475 6.88886 65.205 3.88886 65.3775 1.11108L56.58 2.7222V3.49997L57.4425 3.61108C58.075 3.66664 58.4775 3.88886 58.7075 4.22219C58.9375 4.61108 59.11 5.16664 59.225 5.99997C59.34 7.61108 59.455 11.2778 59.3975 17.0555C59.3975 22.7778 59.34 26.3889 59.225 27.7777C62.3875 28.4444 64.86 28.7222 66.7 28.7222C70.15 28.7222 72.8525 27.7777 74.8075 25.8333C76.7625 23.9444 77.7975 21.2778 77.7975 18C77.7975 15.3889 77.05 13.2222 75.555 11.5C74.06 9.77775 72.1625 8.94442 69.92 8.94442C68.425 8.94442 66.8725 9.33331 65.1475 10.1111ZM65.32 27.2222C65.205 25.4444 65.09 20.1111 65.09 11.3889C65.6075 11.2222 66.2975 11.1111 67.16 11.1111C68.54 11.1111 69.6325 11.7778 70.4375 13.1666C71.2425 14.5555 71.645 16.2222 71.645 18.3333C71.645 20.9444 71.185 23.0555 70.265 24.8333C69.345 26.5555 68.195 27.4444 66.7575 27.4444C66.2975 27.3333 65.8375 27.2778 65.32 27.2222ZM23.575 1.66664H0.575012V2.77775L1.78251 2.88886C2.70251 3.05553 3.33501 3.38886 3.73751 3.88886C4.14001 4.44442 4.37001 5.33331 4.42751 6.55553C4.88751 12.5555 4.88751 18.1666 4.42751 23.3333C4.31251 24.5555 4.08251 25.4444 3.73751 26C3.33501 26.5555 2.70251 26.8889 1.78251 27L0.575012 27.1666V28.2778H15.41V27.1666L13.8575 27.0555C13.4787 27.0249 13.1102 26.9205 12.7742 26.7487C12.4382 26.5768 12.1417 26.341 11.9025 26.0555C11.5 25.5 11.27 24.6111 11.2125 23.3889C11.04 21.1666 10.925 18.6111 10.925 15.7778L14.03 15.8333C15.6975 15.8889 16.8475 17.1111 17.4225 19.5555H18.5725V10.5H17.4225C16.8475 12.8889 15.755 14.1111 14.03 14.1666L10.925 14.2222C10.925 9.22219 11.04 5.66664 11.2125 3.49997H15.755C18.975 3.49997 21.16 5.49997 22.425 9.49997L23.805 9.11108L23.575 1.66664ZM20.8725 18.7778C20.8725 21.6666 21.735 24.0555 23.4025 25.9444C25.07 27.8333 27.5425 28.7222 30.6475 28.7222C33.7525 28.7222 36.2825 27.7777 38.1225 25.8333C39.9625 23.9444 40.825 21.5555 40.825 18.6666C40.825 15.7777 39.9625 13.3889 38.295 11.5C36.6275 9.61108 34.155 8.72219 31.05 8.72219C27.945 8.72219 25.415 9.66664 23.575 11.6111C21.735 13.5 20.8725 15.8889 20.8725 18.7778ZM33.695 12.4444C34.385 14.0555 34.6725 16.1666 34.6725 18.7222C34.6725 24.6111 33.4075 27.5 30.935 27.5C29.67 27.5 28.6925 26.6666 28.0025 25C27.3125 23.3333 27.025 21.2222 27.025 18.7222C27.025 12.8889 28.29 9.99997 30.7625 9.99997C32.0275 9.94442 33.005 10.7778 33.695 12.4444ZM82.2825 25.9444C84.18 27.7778 86.595 28.7222 89.47 28.7222C91.2525 28.7222 92.805 28.3889 94.185 27.6666C95.565 27 96.6575 26.1666 97.405 25.1666L96.83 24.5C95.565 25.4444 94.1275 25.8889 92.46 25.8889C90.16 25.8889 88.3775 25.1666 87.17 23.6666C85.905 22.1666 85.33 20.2777 85.445 17.8333H97.75C97.75 15.1666 97.06 13 95.6225 11.2778C94.185 9.61108 92.1725 8.77775 89.585 8.77775C86.365 8.77775 83.8925 9.77775 82.11 11.7222C80.3275 13.6666 79.465 16.0555 79.465 18.8889C79.465 21.7778 80.385 24.1111 82.2825 25.9444ZM86.5375 12C87.17 10.6666 87.975 9.99997 89.0675 9.99997C90.7925 9.99997 91.655 12.1111 91.655 16.3889L85.56 16.5C85.6175 14.8333 85.905 13.3333 86.5375 12ZM113.218 9.77775C111.665 9.11108 109.71 8.72219 107.353 8.72219C104.938 8.72219 103.04 9.33331 101.603 10.5C100.165 11.6666 99.4175 13.1111 99.4175 14.8333C99.4175 16.3333 99.8775 17.5 100.74 18.3333C101.603 19.1666 102.983 19.8889 104.765 20.5C106.375 21.0555 107.525 21.6111 108.1 22.1111C108.675 22.6666 109.02 23.2778 109.02 24.1111C109.02 24.8889 108.733 25.6111 108.1 26.1666C107.525 26.7777 106.72 27.0555 105.685 27.0555C103.155 27.0555 101.258 25.2777 99.935 21.7222L98.9575 22L99.1875 27.5555C101.258 28.3333 103.558 28.7222 106.088 28.7222C108.733 28.7222 110.745 28.1666 112.24 27C113.735 25.8889 114.483 24.2777 114.483 22.2777C114.483 20.9444 114.138 19.8333 113.39 19C112.643 18.1666 111.435 17.4444 109.71 16.7778C107.813 16.1111 106.49 15.5 105.8 14.9444C105.11 14.3889 104.765 13.7222 104.765 12.8889C104.765 12.0555 104.995 11.3889 105.513 10.8333C106.03 10.2778 106.663 10.0555 107.468 10.0555C109.768 10.0555 111.435 11.6666 112.47 14.8333L113.448 14.5555L113.218 9.77775ZM57.9025 9.27775C57.0975 8.88886 56.235 8.72219 55.2575 8.72219C54.28 8.72219 53.3025 9.11108 52.21 9.88886C51.1175 10.6666 50.3125 11.7222 49.68 13.1666L49.7375 8.72219L40.9975 10.3889V11.1666L41.86 11.2222C42.9525 11.3333 43.585 12.1666 43.7 13.6666C44.045 17.1111 44.045 20.7778 43.7 24.6666C43.585 26.1666 42.9525 26.9444 41.86 27.1111L40.9975 27.2222V28.2778H53.1875V27.2222L51.635 27.1111C50.5425 27 49.91 26.1666 49.795 24.6666C49.45 21.4444 49.3925 18 49.68 14.4444C50.025 13.8889 50.7725 13.5555 51.9225 13.4444C53.0725 13.3333 54.395 13.6666 55.775 14.4444L57.9025 9.27775Z" fill="white"/>
</g>
</svg>
