<svg width="51" height="50" viewBox="0 0 51 50" fill="none" xmlns="http://www.w3.org/2000/svg">
<g style="mix-blend-mode:luminosity" opacity="0.5" clip-path="url(#clip0_151_857)">
<mask id="mask0_151_857" style="mask-type:luminance" maskUnits="userSpaceOnUse" x="0" y="0" width="51" height="50">
<path d="M51 0H0V50H51V0Z" fill="white"/>
</mask>
<g mask="url(#mask0_151_857)">
<path d="M25.4832 49.9998C11.2802 49.9431 -0.0782961 38.7308 -0.00039514 24.8139C0.0749929 11.1925 11.343 -0.0223799 25.5235 -0.000211331C39.915 0.0219572 51.1076 11.5201 50.9971 25.1931C50.8865 38.7726 39.6713 49.9677 25.4832 49.9998ZM26.2095 9.10368C22.2441 9.10368 18.2787 9.10122 14.3133 9.10861C13.8936 9.10861 13.4714 9.14802 13.0594 9.21699C10.074 9.72441 8.0812 12.7319 8.80241 15.6213C9.43065 18.1386 11.5667 19.7348 14.3259 19.7348C22.2466 19.7372 30.1674 19.7348 38.0882 19.7323C38.4777 19.7323 38.8722 19.7027 39.2542 19.6387C43.2195 18.9786 45.0917 14.4587 42.7094 11.2885C41.6113 9.82783 40.0985 9.11107 38.2566 9.10615C34.2409 9.09137 30.2252 9.10122 26.2095 9.10122V9.10368ZM23.2166 23.1019C20.8167 23.1019 18.4169 23.0945 16.0195 23.1093C15.5521 23.1117 15.0722 23.1512 14.6199 23.2546C12.127 23.8261 10.4459 25.8926 10.3981 28.4051C10.3705 29.8437 10.471 31.2723 10.6921 32.696C10.9912 34.6197 11.5013 36.4794 12.3859 38.2283C13.3484 40.1274 14.6701 41.7137 16.575 42.7826C17.2082 43.1374 17.8967 42.8713 17.9973 42.1693C18.0852 41.5733 18.0625 40.955 18.0374 40.349C17.9922 39.2603 17.859 38.1716 17.8515 37.0829C17.8465 36.0163 18.0424 34.9744 18.5928 34.0187C18.7285 33.7823 18.8768 33.7256 19.1305 33.7256C22.8849 33.733 26.6392 33.733 30.3935 33.7256C30.773 33.7256 31.155 33.6911 31.5294 33.6295C35.0123 33.0556 37.0151 29.3412 35.4998 26.2006C34.5198 24.1709 32.8135 23.1413 30.5343 23.1068C28.0943 23.0675 25.6542 23.097 23.2166 23.097V23.1019Z" fill="#E64444"/>
<path d="M26.21 9.10136C30.2256 9.10136 34.2412 9.09151 38.2569 9.10629C40.0989 9.11369 41.6117 9.82801 42.7099 11.2887C45.0946 14.4588 43.22 18.9787 39.2545 19.6388C38.8701 19.7029 38.4781 19.7325 38.0885 19.7325C30.1679 19.7374 22.2471 19.7374 14.3263 19.7349C11.567 19.7349 9.43108 18.1388 8.80284 15.6214C8.08163 12.7296 10.0744 9.72208 13.0597 9.21713C13.4719 9.14817 13.8966 9.10875 14.3138 9.10875C18.2791 9.10136 22.2445 9.10382 26.21 9.10382V9.10136Z" fill="white"/>
<path d="M23.217 23.0995C25.6571 23.0995 28.0971 23.07 30.5347 23.1094C32.8139 23.1463 34.5202 24.176 35.5003 26.2031C37.0155 29.3412 35.0127 33.0557 31.5298 33.6321C31.1553 33.6937 30.7734 33.7281 30.3939 33.7281C26.6397 33.7355 22.8853 33.7355 19.131 33.7281C18.8772 33.7281 18.7289 33.7848 18.5932 34.0212C18.0429 34.977 17.8469 36.0189 17.8519 37.0854C17.8569 38.1742 17.9901 39.2629 18.0379 40.3516C18.063 40.9575 18.0856 41.5758 17.9976 42.1719C17.8946 42.8739 17.2061 43.1399 16.5753 42.7852C14.6705 41.7162 13.3487 40.1299 12.3863 38.2308C11.5017 36.482 10.9915 34.6198 10.6925 32.6986C10.4714 31.2773 10.3709 29.8462 10.3985 28.4076C10.4488 25.8952 12.1274 23.8287 14.6203 23.2572C15.0751 23.1537 15.5526 23.1143 16.02 23.1119C18.4198 23.0971 20.8197 23.1045 23.217 23.1045V23.0995Z" fill="white"/>
</g>
</g>
<defs>
<clipPath id="clip0_151_857">
<rect width="51" height="50" fill="white"/>
</clipPath>
</defs>
</svg>
