<svg width="89" height="30" viewBox="0 0 89 30" fill="none" xmlns="http://www.w3.org/2000/svg">
<g opacity="0.5" clip-path="url(#clip0_151_865)">
<path d="M57.9559 0.0461426C51.6431 0.0461426 46.0014 3.44364 46.0014 9.71936C46.0014 16.9172 56.0068 17.4143 56.0068 21.0308C56.0068 22.5535 54.3265 23.9164 51.4553 23.9164C47.3818 23.9164 44.3371 22.0121 44.3371 22.0121L43.0342 28.346C43.0342 28.346 46.5417 29.9547 51.1981 29.9547C58.1001 29.9547 63.5318 26.3909 63.5318 20.007C63.5318 12.4008 53.4845 11.9184 53.4845 8.56253C53.4845 7.36966 54.864 6.06314 57.7263 6.06314C60.9561 6.06314 63.5905 7.4482 63.5905 7.4482L64.8659 1.33141C64.8659 1.33141 61.9983 0.0461426 57.955 0.0461426H57.9559ZM0.197575 0.508136L0.0444946 1.4312C0.0444946 1.4312 2.70025 1.9357 5.09257 2.94284C8.17286 4.0969 8.3918 4.76956 8.91068 6.85592L14.5631 29.4779H22.1405L33.8138 0.508136H26.2541L18.7532 20.2048L15.6925 3.50832C15.4121 1.59752 13.9899 0.507212 12.25 0.507212H0.198465L0.197575 0.508136ZM36.854 0.508136L30.9239 29.4779H38.1329L44.0416 0.508136H36.854ZM77.0606 0.508136C75.3225 0.508136 74.4013 1.47463 73.7258 3.16275L63.1642 29.4779H70.7238L72.1861 25.0917H81.3958L82.2849 29.4779H88.9555L83.1367 0.508136H77.0606ZM78.0441 8.33523L80.2851 19.2059H74.2821L78.045 8.33523H78.0441Z" fill="white"/>
</g>
<defs>
<clipPath id="clip0_151_865">
<rect width="89" height="30" fill="white"/>
</clipPath>
</defs>
</svg>
