<svg width="125" height="27" viewBox="0 0 125 27" fill="none" xmlns="http://www.w3.org/2000/svg">
<g id="Lenovo_logo_2015 1" style="mix-blend-mode:luminosity" opacity="0.5" clip-path="url(#clip0_151_868)">
<g id="layer1">
<g id="g23944">
<g id="g13605">
<path id="path13607" d="M52.4918 5.99902C50.2573 5.99902 47.7159 7.06448 46.1632 9.19756L46.1642 9.19324L46.1632 9.19432L46.1642 6.33401H40.8347V26.2968H46.1632V14.9376C46.1632 12.8932 47.7044 10.7201 50.5577 10.7201C52.7629 10.7201 55.0447 12.2978 55.0447 14.9376V26.2968H60.3743V13.9219C60.3743 9.33048 57.1805 5.99902 52.4918 5.99902Z" fill="white"/>
</g>
<g id="g13609">
<path id="path13611" d="M98.2524 6.33496L93.4345 19.9331L88.6166 6.33496H82.5285L90.5139 26.2913H96.3541L104.339 6.33496H98.2524Z" fill="white"/>
</g>
<g id="g13613">
<path id="path13615" d="M24.9242 12.3487C25.8319 11.0952 27.2775 10.3593 29.0235 10.3593C30.944 10.3593 32.4011 11.4874 33.1544 13.1526L23.8431 17.1259C23.5889 15.0869 24.0963 13.4919 24.9242 12.3487ZM35.1631 20.1592C32.9201 21.8665 31.6384 22.2739 29.5929 22.2739C27.7523 22.2739 26.3109 21.686 25.295 20.6551L38.9199 14.8416C38.6226 12.675 37.8231 10.7397 36.5929 9.26791C34.8027 7.12942 32.1532 5.99805 28.9269 5.99805C23.0668 5.99805 18.6481 10.4447 18.6481 16.3177C18.6481 22.343 23.0773 26.6362 29.5141 26.6362C33.1207 26.6362 36.8083 24.8781 38.5333 22.8239L35.1631 20.1592Z" fill="white"/>
</g>
<g id="g13617">
<path id="path13619" d="M18.1401 21.2634H6.02704V0.36377H0.625V26.2968H18.1401V21.2634Z" fill="white"/>
</g>
<g id="g13621">
<path id="path13623" d="M113.909 10.6954C110.933 10.6954 108.772 13.0154 108.772 16.3155C108.772 19.4665 111.061 21.9356 113.981 21.9356C116.958 21.9356 119.118 19.5519 119.118 16.3155C119.118 13.1645 116.83 10.6954 113.909 10.6954ZM113.909 26.633C108.081 26.633 103.514 22.1669 103.514 16.3155C103.514 10.53 108.112 5.99805 113.981 5.99805C119.809 5.99805 124.375 10.4641 124.375 16.3155C124.375 22.0999 119.778 26.633 113.909 26.633Z" fill="white"/>
</g>
<g id="g13625">
<path id="path13627" d="M72.877 10.6954C69.9008 10.6954 67.7408 13.0154 67.7408 16.3155C67.7408 19.4665 70.0289 21.9356 72.9495 21.9356C75.9258 21.9356 78.0858 19.5519 78.0858 16.3155C78.0858 13.1645 75.7976 10.6954 72.877 10.6954ZM72.877 26.633C67.0485 26.633 62.4827 22.1669 62.4827 16.3155C62.4827 10.53 67.08 5.99805 72.9495 5.99805C78.777 5.99805 83.3439 10.4641 83.3439 16.3155C83.3439 22.0999 78.7455 26.633 72.877 26.633Z" fill="white"/>
</g>
</g>
</g>
</g>
<defs>
<clipPath id="clip0_151_868">
<rect width="125" height="27" fill="white"/>
</clipPath>
</defs>
</svg>
