<svg width="168" height="46" viewBox="0 0 168 46" fill="none" xmlns="http://www.w3.org/2000/svg">
<g style="mix-blend-mode:luminosity" clip-path="url(#clip0_151_1167)">
<path d="M69 0H0V46H69V0Z" fill="#003399"/>
<path d="M34.5 5.11108L33.7103 7.54156L34.9255 7.93642L34.5 5.11108Z" fill="#FFCC00"/>
<path d="M34.5 5.11108L35.2897 7.54156L34.0745 7.93642L34.5 5.11108Z" fill="#FFCC00"/>
<path d="M36.9305 6.87695L34.3749 6.87698L34.3749 8.15473L36.9305 6.87695Z" fill="#FFCC00"/>
<path d="M36.9305 6.87695L34.863 8.37909L34.1119 7.34537L36.9305 6.87695Z" fill="#FFCC00"/>
<path d="M36.0021 9.73413L35.2124 7.30365L33.9972 7.6985L36.0021 9.73413Z" fill="#FFCC00"/>
<path d="M36.0021 9.73413L33.9346 8.23202L34.6857 7.19827L36.0021 9.73413Z" fill="#FFCC00"/>
<path d="M32.0695 6.87695L34.6251 6.87698L34.6251 8.15473L32.0695 6.87695Z" fill="#FFCC00"/>
<path d="M32.0695 6.87695L34.137 8.37909L34.8881 7.34537L32.0695 6.87695Z" fill="#FFCC00"/>
<path d="M32.9979 9.73413L33.7876 7.30365L35.0028 7.6985L32.9979 9.73413Z" fill="#FFCC00"/>
<path d="M32.9979 9.73413L35.0654 8.23202L34.3143 7.19827L32.9979 9.73413Z" fill="#FFCC00"/>
<path d="M34.5 35.7778L33.7103 38.2083L34.9255 38.6032L34.5 35.7778Z" fill="#FFCC00"/>
<path d="M34.5 35.7778L35.2897 38.2083L34.0745 38.6032L34.5 35.7778Z" fill="#FFCC00"/>
<path d="M36.9305 37.5437L34.3749 37.5437L34.3749 38.8215L36.9305 37.5437Z" fill="#FFCC00"/>
<path d="M36.9305 37.5437L34.863 39.0458L34.1119 38.0121L36.9305 37.5437Z" fill="#FFCC00"/>
<path d="M36.0021 40.4009L35.2124 37.9704L33.9972 38.3653L36.0021 40.4009Z" fill="#FFCC00"/>
<path d="M36.0021 40.4009L33.9346 38.8988L34.6857 37.865L36.0021 40.4009Z" fill="#FFCC00"/>
<path d="M32.0695 37.5437L34.6251 37.5437L34.6251 38.8215L32.0695 37.5437Z" fill="#FFCC00"/>
<path d="M32.0695 37.5437L34.137 39.0458L34.8881 38.0121L32.0695 37.5437Z" fill="#FFCC00"/>
<path d="M32.9979 40.4009L33.7876 37.9704L35.0028 38.3653L32.9979 40.4009Z" fill="#FFCC00"/>
<path d="M32.9979 40.4009L35.0654 38.8988L34.3143 37.865L32.9979 40.4009Z" fill="#FFCC00"/>
<path d="M19.1667 20.4443L18.377 22.8748L19.5922 23.2697L19.1667 20.4443Z" fill="#FFCC00"/>
<path d="M19.1667 20.4443L19.9564 22.8748L18.7411 23.2697L19.1667 20.4443Z" fill="#FFCC00"/>
<path d="M21.5971 22.2102L19.0416 22.2102L19.0416 23.488L21.5971 22.2102Z" fill="#FFCC00"/>
<path d="M21.5971 22.2102L19.5297 23.7123L18.7786 22.6786L21.5971 22.2102Z" fill="#FFCC00"/>
<path d="M20.6688 25.0674L19.8791 22.6369L18.6638 23.0318L20.6688 25.0674Z" fill="#FFCC00"/>
<path d="M20.6688 25.0674L18.6013 23.5653L19.3524 22.5315L20.6688 25.0674Z" fill="#FFCC00"/>
<path d="M16.7362 22.2102L19.2917 22.2102L19.2917 23.488L16.7362 22.2102Z" fill="#FFCC00"/>
<path d="M16.7362 22.2102L18.8037 23.7123L19.5547 22.6786L16.7362 22.2102Z" fill="#FFCC00"/>
<path d="M17.6646 25.0674L18.4543 22.6369L19.6695 23.0318L17.6646 25.0674Z" fill="#FFCC00"/>
<path d="M17.6645 25.0674L19.732 23.5653L18.981 22.5315L17.6645 25.0674Z" fill="#FFCC00"/>
<path d="M25.3312 11.7883L27.3987 10.2862L26.6476 9.25247L25.3312 11.7883Z" fill="#FFCC00"/>
<path d="M25.3312 11.7883L26.1209 9.35785L27.3362 9.7527L25.3312 11.7883Z" fill="#FFCC00"/>
<path d="M24.4029 8.93115L26.4703 10.4333L27.2214 9.39952L24.4029 8.93115Z" fill="#FFCC00"/>
<path d="M24.4029 8.93115L26.9584 8.93114L26.9584 10.2089L24.4029 8.93115Z" fill="#FFCC00"/>
<path d="M26.8333 7.16528L26.0436 9.59576L27.2589 9.99062L26.8333 7.16528Z" fill="#FFCC00"/>
<path d="M26.8333 7.16528L27.623 9.59577L26.4078 9.99062L26.8333 7.16528Z" fill="#FFCC00"/>
<path d="M28.3355 11.7883L26.268 10.2862L27.019 9.25247L28.3355 11.7883Z" fill="#FFCC00"/>
<path d="M28.3355 11.7883L27.5458 9.35785L26.3305 9.75269L28.3355 11.7883Z" fill="#FFCC00"/>
<path d="M29.2638 8.93115L27.1963 10.4333L26.4453 9.39951L29.2638 8.93115Z" fill="#FFCC00"/>
<path d="M29.2638 8.93115L26.7083 8.93115L26.7083 10.2089L29.2638 8.93115Z" fill="#FFCC00"/>
<path d="M22.7231 17.4009L21.9334 14.9704L20.7181 15.3653L22.7231 17.4009Z" fill="#FFCC00"/>
<path d="M22.7231 17.4009L20.6556 15.8988L21.4066 14.865L22.7231 17.4009Z" fill="#FFCC00"/>
<path d="M19.7188 17.4006L21.7863 15.8985L21.0353 14.8648L19.7188 17.4006Z" fill="#FFCC00"/>
<path d="M19.7188 17.4006L20.5085 14.9702L21.7238 15.365L19.7188 17.4006Z" fill="#FFCC00"/>
<path d="M18.7905 14.5435L20.858 16.0456L21.609 15.0118L18.7905 14.5435Z" fill="#FFCC00"/>
<path d="M18.7905 14.5435L21.346 14.5435L21.346 15.8212L18.7905 14.5435Z" fill="#FFCC00"/>
<path d="M23.6514 14.5437L21.5839 16.0458L20.8329 15.0121L23.6514 14.5437Z" fill="#FFCC00"/>
<path d="M23.6514 14.5437L21.0959 14.5437L21.0959 15.8215L23.6514 14.5437Z" fill="#FFCC00"/>
<path d="M21.2209 12.7778L22.0107 15.2083L20.7954 15.6032L21.2209 12.7778Z" fill="#FFCC00"/>
<path d="M21.2209 12.7778L20.4312 15.2083L21.6465 15.6032L21.2209 12.7778Z" fill="#FFCC00"/>
<path d="M23.6514 29.877L21.0959 29.877L21.0959 31.1547L23.6514 29.877Z" fill="#FFCC00"/>
<path d="M23.6514 29.877L21.584 31.3791L20.8329 30.3454L23.6514 29.877Z" fill="#FFCC00"/>
<path d="M22.7231 32.7341L21.9333 30.3037L20.7181 30.6985L22.7231 32.7341Z" fill="#FFCC00"/>
<path d="M22.7231 32.7341L20.6556 31.2321L21.4066 30.1983L22.7231 32.7341Z" fill="#FFCC00"/>
<path d="M19.7189 32.7341L21.7863 31.232L21.0352 30.1983L19.7189 32.7341Z" fill="#FFCC00"/>
<path d="M19.7188 32.7341L20.5085 30.3036L21.7238 30.6984L19.7188 32.7341Z" fill="#FFCC00"/>
<path d="M21.2209 28.1111L22.0107 30.5415L20.7955 30.9364L21.2209 28.1111Z" fill="#FFCC00"/>
<path d="M21.2208 28.1111L20.4312 30.5417L21.6466 30.9364L21.2208 28.1111Z" fill="#FFCC00"/>
<path d="M18.7905 29.877L21.346 29.8768L21.346 31.1545L18.7905 29.877Z" fill="#FFCC00"/>
<path d="M18.7905 29.877L20.858 31.379L21.609 30.3452L18.7905 29.877Z" fill="#FFCC00"/>
<path d="M29.2638 35.4893L26.7083 35.4893L26.7083 36.767L29.2638 35.4893Z" fill="#FFCC00"/>
<path d="M29.2638 35.4893L27.1964 36.9914L26.4453 35.9577L29.2638 35.4893Z" fill="#FFCC00"/>
<path d="M28.3355 38.3464L27.5457 35.916L26.3305 36.3108L28.3355 38.3464Z" fill="#FFCC00"/>
<path d="M28.3355 38.3464L26.268 36.8444L27.019 35.8106L28.3355 38.3464Z" fill="#FFCC00"/>
<path d="M25.3313 38.3464L27.3987 36.8443L26.6476 35.8106L25.3313 38.3464Z" fill="#FFCC00"/>
<path d="M25.3312 38.3464L26.1208 35.9159L27.3362 36.3107L25.3312 38.3464Z" fill="#FFCC00"/>
<path d="M26.8333 33.7234L27.623 36.1538L26.4079 36.5487L26.8333 33.7234Z" fill="#FFCC00"/>
<path d="M26.8332 33.7234L26.0436 36.154L27.259 36.5487L26.8332 33.7234Z" fill="#FFCC00"/>
<path d="M24.4029 35.4893L26.9583 35.4891L26.9584 36.7668L24.4029 35.4893Z" fill="#FFCC00"/>
<path d="M24.4029 35.4893L26.4704 36.9913L27.2214 35.9575L24.4029 35.4893Z" fill="#FFCC00"/>
<path d="M49.8333 20.4443L50.623 22.8748L49.4078 23.2697L49.8333 20.4443Z" fill="#FFCC00"/>
<path d="M49.8333 20.4443L49.0436 22.8748L50.2589 23.2697L49.8333 20.4443Z" fill="#FFCC00"/>
<path d="M47.4029 22.2102L49.9584 22.2102L49.9584 23.488L47.4029 22.2102Z" fill="#FFCC00"/>
<path d="M47.4029 22.2102L49.4703 23.7123L50.2214 22.6786L47.4029 22.2102Z" fill="#FFCC00"/>
<path d="M48.3312 25.0674L49.1209 22.6369L50.3362 23.0318L48.3312 25.0674Z" fill="#FFCC00"/>
<path d="M48.3312 25.0674L50.3987 23.5653L49.6477 22.5315L48.3312 25.0674Z" fill="#FFCC00"/>
<path d="M52.2638 22.2102L49.7083 22.2102L49.7083 23.488L52.2638 22.2102Z" fill="#FFCC00"/>
<path d="M52.2638 22.2102L50.1963 23.7123L49.4453 22.6786L52.2638 22.2102Z" fill="#FFCC00"/>
<path d="M51.3355 25.0674L50.5457 22.6369L49.3305 23.0318L51.3355 25.0674Z" fill="#FFCC00"/>
<path d="M51.3355 25.0674L49.268 23.5653L50.019 22.5315L51.3355 25.0674Z" fill="#FFCC00"/>
<path d="M43.6688 11.7883L41.6013 10.2862L42.3524 9.25247L43.6688 11.7883Z" fill="#FFCC00"/>
<path d="M43.6688 11.7883L42.8791 9.35785L41.6638 9.7527L43.6688 11.7883Z" fill="#FFCC00"/>
<path d="M44.5971 8.93115L42.5297 10.4333L41.7786 9.39952L44.5971 8.93115Z" fill="#FFCC00"/>
<path d="M44.5971 8.93115L42.0416 8.93114L42.0416 10.2089L44.5971 8.93115Z" fill="#FFCC00"/>
<path d="M42.1667 7.16528L42.9564 9.59576L41.7411 9.99062L42.1667 7.16528Z" fill="#FFCC00"/>
<path d="M42.1667 7.16528L41.377 9.59577L42.5922 9.99062L42.1667 7.16528Z" fill="#FFCC00"/>
<path d="M40.6646 11.7883L42.732 10.2862L41.981 9.25247L40.6646 11.7883Z" fill="#FFCC00"/>
<path d="M40.6646 11.7883L41.4543 9.35785L42.6695 9.75269L40.6646 11.7883Z" fill="#FFCC00"/>
<path d="M39.7362 8.93115L41.8037 10.4333L42.5547 9.39951L39.7362 8.93115Z" fill="#FFCC00"/>
<path d="M39.7362 8.93115L42.2917 8.93115L42.2917 10.2089L39.7362 8.93115Z" fill="#FFCC00"/>
<path d="M46.2769 17.4009L47.0666 14.9704L48.2819 15.3653L46.2769 17.4009Z" fill="#FFCC00"/>
<path d="M46.2769 17.4009L48.3444 15.8988L47.5934 14.865L46.2769 17.4009Z" fill="#FFCC00"/>
<path d="M49.2812 17.4006L47.2137 15.8985L47.9647 14.8648L49.2812 17.4006Z" fill="#FFCC00"/>
<path d="M49.2812 17.4006L48.4915 14.9702L47.2762 15.365L49.2812 17.4006Z" fill="#FFCC00"/>
<path d="M50.2095 14.5435L48.142 16.0456L47.391 15.0118L50.2095 14.5435Z" fill="#FFCC00"/>
<path d="M50.2095 14.5435L47.654 14.5435L47.654 15.8212L50.2095 14.5435Z" fill="#FFCC00"/>
<path d="M45.3486 14.5437L47.4161 16.0458L48.1671 15.0121L45.3486 14.5437Z" fill="#FFCC00"/>
<path d="M45.3486 14.5437L47.9041 14.5437L47.9041 15.8215L45.3486 14.5437Z" fill="#FFCC00"/>
<path d="M47.7791 12.7778L46.9893 15.2083L48.2046 15.6032L47.7791 12.7778Z" fill="#FFCC00"/>
<path d="M47.7791 12.7778L48.5688 15.2083L47.3535 15.6032L47.7791 12.7778Z" fill="#FFCC00"/>
<path d="M45.3486 29.877L47.9041 29.877L47.9041 31.1547L45.3486 29.877Z" fill="#FFCC00"/>
<path d="M45.3486 29.877L47.416 31.3791L48.1671 30.3454L45.3486 29.877Z" fill="#FFCC00"/>
<path d="M46.2769 32.7341L47.0667 30.3037L48.2819 30.6985L46.2769 32.7341Z" fill="#FFCC00"/>
<path d="M46.2769 32.7341L48.3444 31.2321L47.5934 30.1983L46.2769 32.7341Z" fill="#FFCC00"/>
<path d="M49.2811 32.7341L47.2137 31.232L47.9648 30.1983L49.2811 32.7341Z" fill="#FFCC00"/>
<path d="M49.2812 32.7341L48.4915 30.3036L47.2762 30.6984L49.2812 32.7341Z" fill="#FFCC00"/>
<path d="M47.7791 28.1111L46.9893 30.5415L48.2045 30.9364L47.7791 28.1111Z" fill="#FFCC00"/>
<path d="M47.7792 28.1111L48.5688 30.5417L47.3534 30.9364L47.7792 28.1111Z" fill="#FFCC00"/>
<path d="M50.2095 29.877L47.6541 29.8768L47.654 31.1545L50.2095 29.877Z" fill="#FFCC00"/>
<path d="M50.2095 29.877L48.142 31.379L47.391 30.3452L50.2095 29.877Z" fill="#FFCC00"/>
<path d="M39.7362 35.4893L42.2917 35.4893L42.2917 36.767L39.7362 35.4893Z" fill="#FFCC00"/>
<path d="M39.7362 35.4893L41.8036 36.9914L42.5547 35.9577L39.7362 35.4893Z" fill="#FFCC00"/>
<path d="M40.6646 38.3464L41.4543 35.916L42.6695 36.3108L40.6646 38.3464Z" fill="#FFCC00"/>
<path d="M40.6645 38.3464L42.732 36.8444L41.981 35.8106L40.6645 38.3464Z" fill="#FFCC00"/>
<path d="M43.6687 38.3464L41.6013 36.8443L42.3524 35.8106L43.6687 38.3464Z" fill="#FFCC00"/>
<path d="M43.6688 38.3464L42.8792 35.9159L41.6638 36.3107L43.6688 38.3464Z" fill="#FFCC00"/>
<path d="M42.1667 33.7234L41.377 36.1538L42.5921 36.5487L42.1667 33.7234Z" fill="#FFCC00"/>
<path d="M42.1668 33.7234L42.9564 36.154L41.741 36.5487L42.1668 33.7234Z" fill="#FFCC00"/>
<path d="M44.5971 35.4893L42.0417 35.4891L42.0416 36.7668L44.5971 35.4893Z" fill="#FFCC00"/>
<path d="M44.5971 35.4893L42.5296 36.9913L41.7786 35.9575L44.5971 35.4893Z" fill="#FFCC00"/>
</g>
<g opacity="0.5">
<path d="M80.6235 6.13098H83.5067C84.1569 6.13098 84.6525 6.17987 84.9936 6.27767C85.452 6.41039 85.8445 6.64615 86.1714 6.98494C86.4983 7.32374 86.747 7.73937 86.9175 8.23184C87.0881 8.72082 87.1733 9.32506 87.1733 10.0446C87.1733 10.6767 87.0934 11.2216 86.9335 11.6791C86.7381 12.238 86.4592 12.6903 86.0968 13.0361C85.8232 13.298 85.4537 13.5023 84.9883 13.649C84.6401 13.7573 84.1747 13.8114 83.592 13.8114H80.6235V6.13098ZM82.201 7.43026V12.5174H83.3788C83.8194 12.5174 84.1374 12.4929 84.3328 12.444C84.5886 12.3812 84.8 12.2746 84.967 12.1245C85.1375 11.9743 85.2761 11.728 85.3827 11.3858C85.4893 11.04 85.5426 10.5702 85.5426 9.97645C85.5426 9.38269 85.4893 8.92689 85.3827 8.60905C85.2761 8.29122 85.1269 8.04323 84.935 7.86511C84.7431 7.68698 84.4998 7.56648 84.2049 7.50361C83.9846 7.45471 83.5529 7.43026 82.9098 7.43026H82.201Z" fill="white"/>
<path d="M91.7833 12.0406L93.2755 12.2869C93.0836 12.8247 92.7798 13.2351 92.3642 13.5181C91.952 13.7975 91.4351 13.9372 90.8133 13.9372C89.8291 13.9372 89.1008 13.6211 88.6283 12.9889C88.2552 12.4825 88.0687 11.8433 88.0687 11.0714C88.0687 10.1493 88.3138 9.42809 88.8041 8.90768C89.2944 8.38377 89.9144 8.12182 90.6641 8.12182C91.5061 8.12182 92.1705 8.396 92.6573 8.94435C93.144 9.48921 93.3767 10.3257 93.3554 11.4539H89.6035C89.6142 11.8904 89.735 12.231 89.9659 12.4755C90.1969 12.7165 90.4847 12.837 90.8293 12.837C91.0638 12.837 91.261 12.7741 91.4209 12.6484C91.5807 12.5226 91.7015 12.3201 91.7833 12.0406ZM91.8685 10.5527C91.8579 10.1266 91.7459 9.80356 91.5328 9.58352C91.3196 9.35998 91.0602 9.24822 90.7547 9.24822C90.4278 9.24822 90.1578 9.36522 89.9446 9.59923C89.7314 9.83325 89.6266 10.1511 89.6302 10.5527H91.8685Z" fill="white"/>
<path d="M94.5812 13.8114V6.13098H96.0787V13.8114H94.5812Z" fill="white"/>
<path d="M100.896 12.0406L102.389 12.2869C102.197 12.8247 101.893 13.2351 101.477 13.5181C101.065 13.7975 100.548 13.9372 99.9265 13.9372C98.9424 13.9372 98.214 13.6211 97.7415 12.9889C97.3684 12.4825 97.1819 11.8433 97.1819 11.0714C97.1819 10.1493 97.4271 9.42809 97.9174 8.90768C98.4077 8.38377 99.0276 8.12182 99.7773 8.12182C100.619 8.12182 101.284 8.396 101.771 8.94435C102.257 9.48921 102.49 10.3257 102.469 11.4539H98.7168C98.7274 11.8904 98.8482 12.231 99.0792 12.4755C99.3101 12.7165 99.5979 12.837 99.9425 12.837C100.177 12.837 100.374 12.7741 100.534 12.6484C100.694 12.5226 100.815 12.3201 100.896 12.0406ZM100.982 10.5527C100.971 10.1266 100.859 9.80356 100.646 9.58352C100.433 9.35998 100.173 9.24822 99.8679 9.24822C99.541 9.24822 99.271 9.36522 99.0578 9.59923C98.8447 9.83325 98.7399 10.1511 98.7434 10.5527H100.982Z" fill="white"/>
<path d="M103.556 14.1782L105.267 14.3825C105.295 14.5781 105.361 14.7126 105.464 14.7859C105.606 14.8907 105.83 14.9431 106.135 14.9431C106.526 14.9431 106.819 14.8854 107.015 14.7702C107.146 14.6933 107.246 14.5694 107.313 14.3982C107.359 14.276 107.382 14.0507 107.382 13.7224V12.9103C106.935 13.5111 106.37 13.8114 105.688 13.8114C104.927 13.8114 104.325 13.4953 103.881 12.8632C103.533 12.3637 103.359 11.742 103.359 10.9981C103.359 10.0655 103.586 9.353 104.041 8.86053C104.499 8.36805 105.068 8.12182 105.746 8.12182C106.446 8.12182 107.023 8.42394 107.478 9.02818V8.24756H108.88V13.2404C108.88 13.897 108.825 14.3877 108.715 14.7126C108.605 15.0374 108.45 15.2923 108.251 15.4775C108.052 15.6626 107.786 15.8075 107.452 15.9123C107.121 16.0171 106.702 16.0695 106.194 16.0695C105.235 16.0695 104.554 15.9071 104.153 15.5822C103.751 15.2609 103.551 14.8523 103.551 14.3563C103.551 14.3074 103.552 14.248 103.556 14.1782ZM104.894 10.9142C104.894 11.5045 105.009 11.9376 105.24 12.2135C105.474 12.486 105.762 12.6222 106.103 12.6222C106.469 12.6222 106.778 12.4825 107.031 12.203C107.283 11.9201 107.409 11.5028 107.409 10.9509C107.409 10.3746 107.288 9.94676 107.047 9.66734C106.805 9.38793 106.499 9.24822 106.13 9.24822C105.771 9.24822 105.474 9.38618 105.24 9.6621C105.009 9.93453 104.894 10.3519 104.894 10.9142Z" fill="white"/>
<path d="M111.486 9.94501L110.127 9.70402C110.28 9.16614 110.543 8.76797 110.916 8.50951C111.289 8.25105 111.843 8.12182 112.578 8.12182C113.246 8.12182 113.744 8.2004 114.071 8.35758C114.398 8.51126 114.627 8.70859 114.758 8.94959C114.893 9.18709 114.961 9.62543 114.961 10.2646L114.945 11.983C114.945 12.472 114.968 12.8335 115.014 13.0675C115.064 13.298 115.154 13.546 115.286 13.8114H113.804C113.765 13.7136 113.717 13.5687 113.66 13.3766C113.635 13.2893 113.618 13.2316 113.607 13.2037C113.351 13.4482 113.078 13.6316 112.786 13.7538C112.495 13.8761 112.184 13.9372 111.854 13.9372C111.271 13.9372 110.811 13.7817 110.473 13.4709C110.139 13.16 109.972 12.7671 109.972 12.2921C109.972 11.9778 110.049 11.6984 110.202 11.4539C110.354 11.2059 110.568 11.0173 110.841 10.888C111.118 10.7553 111.516 10.6401 112.035 10.5423C112.735 10.413 113.22 10.2925 113.49 10.1808V10.0341C113.49 9.75117 113.419 9.55034 113.277 9.43158C113.135 9.30934 112.866 9.24822 112.472 9.24822C112.205 9.24822 111.998 9.30061 111.848 9.40539C111.699 9.50668 111.578 9.68655 111.486 9.94501ZM113.49 11.1395C113.298 11.2024 112.994 11.2775 112.578 11.3648C112.163 11.4521 111.891 11.5377 111.763 11.6215C111.568 11.7577 111.47 11.9306 111.47 12.1402C111.47 12.3462 111.548 12.5244 111.704 12.6746C111.861 12.8247 112.06 12.8998 112.301 12.8998C112.571 12.8998 112.829 12.8125 113.074 12.6379C113.255 12.5052 113.374 12.3428 113.431 12.1507C113.47 12.0249 113.49 11.7857 113.49 11.4329V11.1395Z" fill="white"/>
<path d="M119.038 8.24756V9.42111H118.014V11.6634C118.014 12.1175 118.023 12.3829 118.041 12.4598C118.062 12.5331 118.107 12.5942 118.174 12.6431C118.245 12.692 118.331 12.7165 118.43 12.7165C118.569 12.7165 118.769 12.6693 119.032 12.575L119.16 13.7171C118.812 13.8638 118.418 13.9372 117.977 13.9372C117.707 13.9372 117.464 13.8935 117.247 13.8062C117.03 13.7154 116.87 13.6001 116.767 13.4604C116.668 13.3172 116.599 13.1251 116.56 12.8841C116.528 12.713 116.512 12.3672 116.512 11.8468V9.42111H115.824V8.24756H116.512V7.14211L118.014 6.28291V8.24756H119.038Z" fill="white"/>
<path d="M120.077 7.49313V6.13098H121.574V7.49313H120.077ZM120.077 13.8114V8.24756H121.574V13.8114H120.077Z" fill="white"/>
<path d="M122.768 10.9509C122.768 10.4619 122.891 9.98867 123.136 9.53113C123.381 9.07358 123.728 8.72431 124.175 8.48331C124.626 8.24232 125.129 8.12182 125.683 8.12182C126.54 8.12182 127.241 8.396 127.789 8.94435C128.336 9.48921 128.609 10.179 128.609 11.0138C128.609 11.8555 128.332 12.5541 127.778 13.1094C127.227 13.6613 126.533 13.9372 125.694 13.9372C125.175 13.9372 124.68 13.8219 124.207 13.5914C123.738 13.3609 123.381 13.0238 123.136 12.5803C122.891 12.1332 122.768 11.5901 122.768 10.9509ZM124.303 11.0295C124.303 11.5813 124.436 12.004 124.703 12.2973C124.969 12.5907 125.298 12.7374 125.689 12.7374C126.08 12.7374 126.406 12.5907 126.669 12.2973C126.936 12.004 127.069 11.5779 127.069 11.019C127.069 10.4742 126.936 10.055 126.669 9.76164C126.406 9.46826 126.08 9.32156 125.689 9.32156C125.298 9.32156 124.969 9.46826 124.703 9.76164C124.436 10.055 124.303 10.4776 124.303 11.0295Z" fill="white"/>
<path d="M134.935 13.8114H133.438V10.9719C133.438 10.3711 133.406 9.98343 133.342 9.8088C133.278 9.63067 133.173 9.49271 133.027 9.39491C132.885 9.29711 132.713 9.24822 132.51 9.24822C132.251 9.24822 132.018 9.31807 131.812 9.45778C131.606 9.59749 131.464 9.7826 131.386 10.0131C131.311 10.2436 131.274 10.6697 131.274 11.2915V13.8114H129.776V8.24756H131.167V9.06485C131.661 8.43616 132.283 8.12182 133.033 8.12182C133.363 8.12182 133.665 8.1812 133.939 8.29995C134.212 8.41521 134.418 8.56365 134.557 8.74527C134.699 8.92689 134.797 9.13296 134.85 9.36348C134.907 9.59399 134.935 9.92406 134.935 10.3537V13.8114Z" fill="white"/>
<path d="M139.151 10.9509C139.151 10.4619 139.273 9.98867 139.518 9.53113C139.764 9.07358 140.11 8.72431 140.558 8.48331C141.009 8.24232 141.512 8.12182 142.066 8.12182C142.922 8.12182 143.624 8.396 144.171 8.94435C144.718 9.48921 144.992 10.179 144.992 11.0138C144.992 11.8555 144.715 12.5541 144.16 13.1094C143.61 13.6613 142.915 13.9372 142.077 13.9372C141.558 13.9372 141.062 13.8219 140.59 13.5914C140.121 13.3609 139.764 13.0238 139.518 12.5803C139.273 12.1332 139.151 11.5901 139.151 10.9509ZM140.686 11.0295C140.686 11.5813 140.819 12.004 141.085 12.2973C141.352 12.5907 141.68 12.7374 142.071 12.7374C142.462 12.7374 142.789 12.5907 143.052 12.2973C143.318 12.004 143.452 11.5779 143.452 11.019C143.452 10.4742 143.318 10.055 143.052 9.76164C142.789 9.46826 142.462 9.32156 142.071 9.32156C141.68 9.32156 141.352 9.46826 141.085 9.76164C140.819 10.055 140.686 10.4776 140.686 11.0295Z" fill="white"/>
<path d="M145.514 8.24756H146.345V7.82843C146.345 7.36041 146.395 7.01114 146.495 6.78062C146.598 6.5501 146.784 6.36324 147.054 6.22004C147.328 6.07335 147.672 6 148.088 6C148.514 6 148.932 6.06287 149.341 6.18861L149.138 7.21546C148.9 7.15958 148.671 7.13164 148.451 7.13164C148.234 7.13164 148.077 7.18228 147.982 7.28357C147.889 7.38137 147.843 7.57172 147.843 7.85463V8.24756H148.962V9.40539H147.843V13.8114H146.345V9.40539H145.514V8.24756Z" fill="white"/>
<path d="M155.437 8.24756V9.42111H154.414V11.6634C154.414 12.1175 154.423 12.3829 154.441 12.4598C154.462 12.5331 154.506 12.5942 154.574 12.6431C154.645 12.692 154.73 12.7165 154.83 12.7165C154.968 12.7165 155.169 12.6693 155.432 12.575L155.56 13.7171C155.212 13.8638 154.817 13.9372 154.377 13.9372C154.107 13.9372 153.863 13.8935 153.647 13.8062C153.43 13.7154 153.27 13.6001 153.167 13.4604C153.068 13.3172 152.998 13.1251 152.959 12.8841C152.927 12.713 152.911 12.3672 152.911 11.8468V9.42111H152.224V8.24756H152.911V7.14211L154.414 6.28291V8.24756H155.437Z" fill="white"/>
<path d="M157.969 6.13098V8.95483C158.452 8.39949 159.029 8.12182 159.701 8.12182C160.045 8.12182 160.356 8.18469 160.633 8.31043C160.911 8.43616 161.118 8.59683 161.257 8.79242C161.399 8.98801 161.495 9.20456 161.545 9.44206C161.598 9.67957 161.625 10.048 161.625 10.5475V13.8114H160.127V10.8723C160.127 10.289 160.099 9.91882 160.042 9.76164C159.985 9.60447 159.884 9.48048 159.738 9.38967C159.596 9.29537 159.417 9.24822 159.2 9.24822C158.951 9.24822 158.729 9.30759 158.534 9.42634C158.338 9.5451 158.194 9.72497 158.102 9.96597C158.013 10.2035 157.969 10.5562 157.969 11.0243V13.8114H156.471V6.13098H157.969Z" fill="white"/>
<path d="M166.426 12.0406L167.919 12.2869C167.727 12.8247 167.423 13.2351 167.007 13.5181C166.595 13.7975 166.078 13.9372 165.457 13.9372C164.472 13.9372 163.744 13.6211 163.271 12.9889C162.898 12.4825 162.712 11.8433 162.712 11.0714C162.712 10.1493 162.957 9.42809 163.447 8.90768C163.938 8.38377 164.558 8.12182 165.307 8.12182C166.149 8.12182 166.814 8.396 167.301 8.94435C167.787 9.48921 168.02 10.3257 167.999 11.4539H164.247C164.257 11.8904 164.378 12.231 164.609 12.4755C164.84 12.7165 165.128 12.837 165.473 12.837C165.707 12.837 165.904 12.7741 166.064 12.6484C166.224 12.5226 166.345 12.3201 166.426 12.0406ZM166.512 10.5527C166.501 10.1266 166.389 9.80356 166.176 9.58352C165.963 9.35998 165.703 9.24822 165.398 9.24822C165.071 9.24822 164.801 9.36522 164.588 9.59923C164.375 9.83325 164.27 10.1511 164.273 10.5527H166.512Z" fill="white"/>
<path d="M80.6289 26.8402V19.1598H86.4219V20.4591H82.2064V22.1618H86.1288V23.4558H82.2064V25.5462H86.5711V26.8402H80.6289Z" fill="white"/>
<path d="M91.6234 26.8402V26.0072C91.4173 26.3041 91.1455 26.5381 90.808 26.7093C90.474 26.8804 90.1205 26.966 89.7474 26.966C89.3673 26.966 89.0262 26.8839 88.7242 26.7197C88.4222 26.5556 88.2037 26.3251 88.0687 26.0282C87.9337 25.7313 87.8662 25.3209 87.8662 24.797V21.2763H89.3637V23.833C89.3637 24.6154 89.3904 25.0956 89.4437 25.2738C89.5005 25.4484 89.6018 25.5881 89.7474 25.6929C89.8931 25.7942 90.0779 25.8448 90.3017 25.8448C90.5575 25.8448 90.7867 25.7767 90.9892 25.6405C91.1917 25.5008 91.3303 25.3296 91.4049 25.1271C91.4795 24.921 91.5168 24.4198 91.5168 23.6234V21.2763H93.0143V26.8402H91.6234Z" fill="white"/>
<path d="M96.0041 26.8402H94.5066V21.2763H95.8975V22.0674C96.1356 21.6937 96.3487 21.4475 96.5371 21.3287C96.7289 21.21 96.9456 21.1506 97.1872 21.1506C97.5283 21.1506 97.857 21.2432 98.1732 21.4283L97.7095 22.7119C97.4573 22.5512 97.2228 22.4709 97.006 22.4709C96.7964 22.4709 96.6188 22.5285 96.4731 22.6437C96.3274 22.7555 96.212 22.9598 96.1267 23.2567C96.045 23.5536 96.0041 24.1753 96.0041 25.1218V26.8402Z" fill="white"/>
<path d="M98.4769 23.9797C98.4769 23.4907 98.5995 23.0175 98.8447 22.5599C99.0898 22.1024 99.4362 21.7531 99.8839 21.5121C100.335 21.2711 100.838 21.1506 101.392 21.1506C102.248 21.1506 102.95 21.4248 103.497 21.9731C104.044 22.518 104.318 23.2078 104.318 24.0426C104.318 24.8843 104.041 25.5829 103.487 26.1382C102.936 26.69 102.241 26.966 101.403 26.966C100.884 26.966 100.388 26.8507 99.9159 26.6202C99.4469 26.3897 99.0898 26.0526 98.8447 25.6091C98.5995 25.162 98.4769 24.6189 98.4769 23.9797ZM100.012 24.0583C100.012 24.6101 100.145 25.0328 100.412 25.3261C100.678 25.6195 101.007 25.7662 101.397 25.7662C101.788 25.7662 102.115 25.6195 102.378 25.3261C102.645 25.0328 102.778 24.6066 102.778 24.0478C102.778 23.5029 102.645 23.0838 102.378 22.7904C102.115 22.497 101.788 22.3504 101.397 22.3504C101.007 22.3504 100.678 22.497 100.412 22.7904C100.145 23.0838 100.012 23.5064 100.012 24.0583Z" fill="white"/>
<path d="M105.453 21.2763H106.849V22.0936C107.031 21.8142 107.276 21.5872 107.585 21.4126C107.894 21.2379 108.237 21.1506 108.613 21.1506C109.271 21.1506 109.829 21.4038 110.287 21.9103C110.745 22.4167 110.974 23.1222 110.974 24.0269C110.974 24.9559 110.743 25.6789 110.282 26.1958C109.82 26.7093 109.26 26.966 108.603 26.966C108.29 26.966 108.006 26.9048 107.75 26.7826C107.498 26.6604 107.231 26.4508 106.951 26.1539V28.9568H105.453V21.2763ZM106.935 23.964C106.935 24.5892 107.061 25.052 107.313 25.3523C107.565 25.6492 107.873 25.7977 108.235 25.7977C108.583 25.7977 108.873 25.6614 109.104 25.389C109.335 25.1131 109.45 24.6625 109.45 24.0373C109.45 23.4541 109.331 23.021 109.093 22.738C108.855 22.4551 108.56 22.3137 108.208 22.3137C107.842 22.3137 107.539 22.4534 107.297 22.7328C107.055 23.0087 106.935 23.4191 106.935 23.964Z" fill="white"/>
<path d="M115.446 25.0694L116.938 25.3157C116.746 25.8535 116.442 26.2639 116.027 26.5468C115.614 26.8263 115.097 26.966 114.476 26.966C113.492 26.966 112.763 26.6499 112.291 26.0177C111.918 25.5113 111.731 24.8721 111.731 24.1002C111.731 23.1781 111.976 22.4569 112.467 21.9365C112.957 21.4126 113.577 21.1506 114.327 21.1506C115.169 21.1506 115.833 21.4248 116.32 21.9731C116.806 22.518 117.039 23.3545 117.018 24.4827H113.266C113.277 24.9192 113.397 25.2598 113.628 25.5043C113.859 25.7453 114.147 25.8658 114.492 25.8658C114.726 25.8658 114.923 25.8029 115.083 25.6772C115.243 25.5514 115.364 25.3488 115.446 25.0694ZM115.531 23.5815C115.52 23.1554 115.408 22.8323 115.195 22.6123C114.982 22.3888 114.723 22.277 114.417 22.277C114.09 22.277 113.82 22.394 113.607 22.628C113.394 22.862 113.289 23.1799 113.293 23.5815H115.531Z" fill="white"/>
<path d="M119.363 22.9738L118.004 22.7328C118.157 22.1949 118.419 21.7968 118.793 21.5383C119.166 21.2798 119.72 21.1506 120.455 21.1506C121.123 21.1506 121.621 21.2292 121.948 21.3864C122.274 21.54 122.504 21.7374 122.635 21.9784C122.77 22.2159 122.838 22.6542 122.838 23.2934L122.822 25.0118C122.822 25.5008 122.845 25.8623 122.891 26.0963C122.941 26.3268 123.031 26.5748 123.163 26.8402H121.681C121.642 26.7424 121.594 26.5975 121.537 26.4054C121.512 26.3181 121.495 26.2604 121.484 26.2325C121.228 26.477 120.954 26.6604 120.663 26.7826C120.372 26.9048 120.061 26.966 119.73 26.966C119.148 26.966 118.688 26.8105 118.35 26.4997C118.016 26.1888 117.849 25.7959 117.849 25.3209C117.849 25.0066 117.926 24.7271 118.078 24.4827C118.231 24.2347 118.444 24.0461 118.718 23.9168C118.995 23.7841 119.393 23.6689 119.912 23.5711C120.612 23.4418 121.097 23.3213 121.367 23.2096V23.0629C121.367 22.78 121.296 22.5791 121.153 22.4604C121.011 22.3381 120.743 22.277 120.349 22.277C120.082 22.277 119.874 22.3294 119.725 22.4342C119.576 22.5355 119.455 22.7153 119.363 22.9738ZM121.367 24.1683C121.175 24.2312 120.871 24.3063 120.455 24.3936C120.04 24.4809 119.768 24.5665 119.64 24.6503C119.444 24.7865 119.347 24.9594 119.347 25.169C119.347 25.375 119.425 25.5532 119.581 25.7034C119.738 25.8535 119.937 25.9286 120.178 25.9286C120.448 25.9286 120.706 25.8413 120.951 25.6667C121.132 25.534 121.251 25.3715 121.308 25.1794C121.347 25.0537 121.367 24.8145 121.367 24.4617V24.1683Z" fill="white"/>
<path d="M129.467 26.8402H127.97V24.0007C127.97 23.3999 127.938 23.0122 127.874 22.8376C127.81 22.6595 127.705 22.5215 127.559 22.4237C127.417 22.3259 127.245 22.277 127.042 22.277C126.783 22.277 126.55 22.3469 126.344 22.4866C126.138 22.6263 125.996 22.8114 125.918 23.0419C125.843 23.2724 125.806 23.6985 125.806 24.3202V26.8402H124.308V21.2763H125.699V22.0936C126.193 21.465 126.815 21.1506 127.565 21.1506C127.895 21.1506 128.197 21.21 128.471 21.3287C128.744 21.444 128.95 21.5924 129.089 21.7741C129.231 21.9557 129.329 22.1618 129.382 22.3923C129.439 22.6228 129.467 22.9528 129.467 23.3825V26.8402Z" fill="white"/>
<path d="M134.029 19.1598H135.607V23.3196C135.607 23.9797 135.626 24.4076 135.665 24.6032C135.733 24.9175 135.893 25.1707 136.145 25.3628C136.401 25.5514 136.749 25.6457 137.19 25.6457C137.637 25.6457 137.975 25.5567 138.202 25.3785C138.43 25.1969 138.566 24.9751 138.612 24.7132C138.659 24.4512 138.682 24.0164 138.682 23.4086V19.1598H140.259V23.1938C140.259 24.1159 140.217 24.7673 140.131 25.148C140.046 25.5287 139.888 25.85 139.657 26.112C139.43 26.374 139.124 26.5835 138.74 26.7407C138.357 26.8944 137.856 26.9712 137.237 26.9712C136.491 26.9712 135.925 26.8874 135.537 26.7197C135.154 26.5486 134.85 26.3285 134.626 26.0596C134.402 25.7872 134.255 25.5025 134.184 25.2056C134.081 24.7656 134.029 24.1159 134.029 23.2567V19.1598Z" fill="white"/>
<path d="M147.065 26.8402H145.567V24.0007C145.567 23.3999 145.535 23.0122 145.471 22.8376C145.407 22.6595 145.303 22.5215 145.157 22.4237C145.015 22.3259 144.843 22.277 144.64 22.277C144.381 22.277 144.148 22.3469 143.942 22.4866C143.736 22.6263 143.594 22.8114 143.516 23.0419C143.441 23.2724 143.404 23.6985 143.404 24.3202V26.8402H141.906V21.2763H143.297V22.0936C143.791 21.465 144.413 21.1506 145.162 21.1506C145.493 21.1506 145.795 21.21 146.068 21.3287C146.342 21.444 146.548 21.5924 146.686 21.7741C146.829 21.9557 146.926 22.1618 146.98 22.3923C147.036 22.6228 147.065 22.9528 147.065 23.3825V26.8402Z" fill="white"/>
<path d="M148.589 20.5219V19.1598H150.087V20.5219H148.589ZM148.589 26.8402V21.2763H150.087V26.8402H148.589Z" fill="white"/>
<path d="M151.28 23.9797C151.28 23.4907 151.403 23.0175 151.648 22.5599C151.893 22.1024 152.24 21.7531 152.687 21.5121C153.139 21.2711 153.641 21.1506 154.196 21.1506C155.052 21.1506 155.754 21.4248 156.301 21.9731C156.848 22.518 157.121 23.2078 157.121 24.0426C157.121 24.8843 156.844 25.5829 156.29 26.1382C155.739 26.69 155.045 26.966 154.206 26.966C153.688 26.966 153.192 26.8507 152.719 26.6202C152.25 26.3897 151.893 26.0526 151.648 25.6091C151.403 25.162 151.28 24.6189 151.28 23.9797ZM152.815 24.0583C152.815 24.6101 152.949 25.0328 153.215 25.3261C153.481 25.6195 153.81 25.7662 154.201 25.7662C154.592 25.7662 154.919 25.6195 155.182 25.3261C155.448 25.0328 155.581 24.6066 155.581 24.0478C155.581 23.5029 155.448 23.0838 155.182 22.7904C154.919 22.497 154.592 22.3504 154.201 22.3504C153.81 22.3504 153.481 22.497 153.215 22.7904C152.949 23.0838 152.815 23.5064 152.815 24.0583Z" fill="white"/>
<path d="M163.447 26.8402H161.95V24.0007C161.95 23.3999 161.918 23.0122 161.854 22.8376C161.79 22.6595 161.685 22.5215 161.539 22.4237C161.397 22.3259 161.225 22.277 161.023 22.277C160.763 22.277 160.53 22.3469 160.324 22.4866C160.118 22.6263 159.976 22.8114 159.898 23.0419C159.823 23.2724 159.786 23.6985 159.786 24.3202V26.8402H158.289V21.2763H159.68V22.0936C160.173 21.465 160.795 21.1506 161.545 21.1506C161.875 21.1506 162.177 21.21 162.451 21.3287C162.724 21.444 162.93 21.5924 163.069 21.7741C163.211 21.9557 163.309 22.1618 163.362 22.3923C163.419 22.6228 163.447 22.9528 163.447 23.3825V26.8402Z" fill="white"/>
<path d="M83.2136 34.3051V35.4787H82.1904V37.721C82.1904 38.1751 82.1993 38.4405 82.217 38.5173C82.2383 38.5907 82.2827 38.6518 82.3503 38.7007C82.4213 38.7496 82.5066 38.7741 82.6061 38.7741C82.7446 38.7741 82.9454 38.7269 83.2083 38.6326L83.3362 39.7747C82.988 39.9214 82.5936 39.9948 82.1531 39.9948C81.883 39.9948 81.6397 39.9511 81.4229 39.8638C81.2062 39.773 81.0463 39.6577 80.9433 39.518C80.8438 39.3748 80.7745 39.1827 80.7355 38.9417C80.7035 38.7706 80.6875 38.4248 80.6875 37.9044V35.4787H80V34.3051H80.6875V33.1997L82.1904 32.3405V34.3051H83.2136Z" fill="white"/>
<path d="M83.9064 37.0085C83.9064 36.5195 84.029 36.0463 84.2742 35.5887C84.5193 35.1312 84.8657 34.7819 85.3134 34.5409C85.7646 34.2999 86.2673 34.1794 86.8216 34.1794C87.6779 34.1794 88.3796 34.4536 88.9267 35.0019C89.4739 35.5468 89.7474 36.2366 89.7474 37.0714C89.7474 37.9131 89.4703 38.6116 88.916 39.167C88.3653 39.7188 87.6707 39.9948 86.8323 39.9948C86.3135 39.9948 85.8179 39.8795 85.3454 39.649C84.8764 39.4185 84.5193 39.0814 84.2742 38.6378C84.029 38.1908 83.9064 37.6477 83.9064 37.0085ZM85.4413 37.0871C85.4413 37.6389 85.5745 38.0615 85.841 38.3549C86.1075 38.6483 86.4361 38.795 86.8269 38.795C87.2178 38.795 87.5446 38.6483 87.8075 38.3549C88.074 38.0615 88.2072 37.6354 88.2072 37.0766C88.2072 36.5317 88.074 36.1126 87.8075 35.8192C87.5446 35.5258 87.2178 35.3791 86.8269 35.3791C86.4361 35.3791 86.1075 35.5258 85.841 35.8192C85.5745 36.1126 85.4413 36.5352 85.4413 37.0871Z" fill="white"/>
<path d="M93.963 32.1886H95.5405V36.3484C95.5405 37.0085 95.56 37.4364 95.5991 37.6319C95.6666 37.9463 95.8265 38.1995 96.0787 38.3916C96.3345 38.5802 96.6827 38.6745 97.1233 38.6745C97.571 38.6745 97.9085 38.5855 98.1359 38.4073C98.3633 38.2257 98.5 38.0039 98.5462 37.742C98.5924 37.48 98.6155 37.0452 98.6155 36.4374V32.1886H100.193V36.2226C100.193 37.1447 100.15 37.7961 100.065 38.1768C99.9798 38.5575 99.8217 38.8788 99.5908 39.1408C99.3634 39.4027 99.0578 39.6123 98.6741 39.7695C98.2904 39.9232 97.7895 40 97.1712 40C96.4251 40 95.8584 39.9162 95.4712 39.7485C95.0875 39.5774 94.7837 39.3573 94.5599 39.0884C94.336 38.816 94.1886 38.5313 94.1175 38.2344C94.0145 37.7944 93.963 37.1447 93.963 36.2855V32.1886Z" fill="white"/>
<path d="M101.248 39.869V38.7217L103.369 36.3274C103.718 35.9362 103.975 35.6586 104.142 35.4944C103.968 35.5049 103.739 35.5119 103.455 35.5154L101.456 35.5258V34.3051H106.135V35.3477L103.972 37.7996L103.209 38.6116C103.625 38.5872 103.883 38.575 103.982 38.575H106.3V39.869H101.248Z" fill="white"/>
<path d="M107.244 39.869V32.1886H108.741V34.9548C109.203 34.4379 109.75 34.1794 110.383 34.1794C111.072 34.1794 111.642 34.4256 112.094 34.9181C112.545 35.4071 112.77 36.1109 112.77 37.0295C112.77 37.9795 112.539 38.7112 112.078 39.2246C111.619 39.738 111.061 39.9948 110.404 39.9948C110.081 39.9948 109.761 39.9162 109.445 39.759C109.132 39.5983 108.862 39.3626 108.635 39.0517V39.869H107.244ZM108.731 36.9666C108.731 37.5429 108.823 37.969 109.008 38.2449C109.267 38.6361 109.612 38.8317 110.042 38.8317C110.372 38.8317 110.653 38.6937 110.884 38.4178C111.118 38.1384 111.235 37.7001 111.235 37.1028C111.235 36.4671 111.118 36.0096 110.884 35.7302C110.649 35.4473 110.349 35.3058 109.983 35.3058C109.624 35.3058 109.326 35.4438 109.088 35.7197C108.85 35.9921 108.731 36.4078 108.731 36.9666Z" fill="white"/>
<path d="M117.258 38.0982L118.75 38.3445C118.558 38.8823 118.254 39.2927 117.839 39.5756C117.426 39.8551 116.909 39.9948 116.288 39.9948C115.304 39.9948 114.575 39.6787 114.103 39.0465C113.73 38.54 113.543 37.9009 113.543 37.129C113.543 36.2069 113.788 35.4857 114.279 34.9653C114.769 34.4414 115.389 34.1794 116.139 34.1794C116.981 34.1794 117.645 34.4536 118.132 35.0019C118.618 35.5468 118.851 36.3833 118.83 37.5114H115.078C115.089 37.948 115.209 38.2886 115.44 38.5331C115.671 38.7741 115.959 38.8946 116.304 38.8946C116.538 38.8946 116.735 38.8317 116.895 38.706C117.055 38.5802 117.176 38.3776 117.258 38.0982ZM117.343 36.6103C117.332 36.1842 117.22 35.8611 117.007 35.6411C116.794 35.4176 116.535 35.3058 116.229 35.3058C115.902 35.3058 115.632 35.4228 115.419 35.6568C115.206 35.8908 115.101 36.2087 115.105 36.6103H117.343Z" fill="white"/>
<path d="M120.002 39.869V32.1886H121.5V36.2645L123.253 34.3051H125.097L123.163 36.3379L125.236 39.869H123.621L122.198 37.37L121.5 38.0877V39.869H120.002Z" fill="white"/>
<path d="M126.131 33.5507V32.1886H127.629V33.5507H126.131ZM126.131 39.869V34.3051H127.629V39.869H126.131Z" fill="white"/>
<path d="M128.641 38.2816L130.144 38.0563C130.208 38.3427 130.338 38.561 130.533 38.7112C130.729 38.8579 131.002 38.9312 131.354 38.9312C131.741 38.9312 132.032 38.8614 132.228 38.7217C132.359 38.6239 132.425 38.4929 132.425 38.3287C132.425 38.217 132.39 38.1244 132.318 38.0511C132.244 37.9812 132.077 37.9166 131.818 37.8572C130.61 37.5953 129.844 37.356 129.521 37.1395C129.073 36.8391 128.849 36.4217 128.849 35.8873C128.849 35.4053 129.043 35.0002 129.43 34.6719C129.817 34.3436 130.418 34.1794 131.231 34.1794C132.006 34.1794 132.581 34.3034 132.958 34.5514C133.335 34.7994 133.594 35.1661 133.736 35.6516L132.324 35.9083C132.263 35.6917 132.148 35.5258 131.977 35.4106C131.81 35.2953 131.571 35.2377 131.258 35.2377C130.864 35.2377 130.581 35.2918 130.411 35.4001C130.297 35.4769 130.24 35.5765 130.24 35.6987C130.24 35.8035 130.29 35.8926 130.389 35.9659C130.524 36.0637 130.99 36.2017 131.786 36.3798C132.585 36.5579 133.143 36.7762 133.459 37.0347C133.772 37.2966 133.928 37.6616 133.928 38.1297C133.928 38.6396 133.711 39.0779 133.278 39.4447C132.844 39.8114 132.203 39.9948 131.354 39.9948C130.583 39.9948 129.972 39.8411 129.521 39.5337C129.073 39.2264 128.78 38.809 128.641 38.2816Z" fill="white"/>
<path d="M137.84 34.3051V35.4787H136.816V37.721C136.816 38.1751 136.825 38.4405 136.843 38.5173C136.864 38.5907 136.909 38.6518 136.976 38.7007C137.047 38.7496 137.133 38.7741 137.232 38.7741C137.371 38.7741 137.571 38.7269 137.834 38.6326L137.962 39.7747C137.614 39.9214 137.22 39.9948 136.779 39.9948C136.509 39.9948 136.266 39.9511 136.049 39.8638C135.832 39.773 135.672 39.6577 135.569 39.518C135.47 39.3748 135.401 39.1827 135.362 38.9417C135.33 38.7706 135.314 38.4248 135.314 37.9044V35.4787H134.626V34.3051H135.314V33.1997L136.816 32.3405V34.3051H137.84Z" fill="white"/>
<path d="M139.998 36.0026L138.639 35.7616C138.792 35.2237 139.055 34.8256 139.428 34.5671C139.801 34.3086 140.355 34.1794 141.091 34.1794C141.759 34.1794 142.256 34.258 142.583 34.4152C142.91 34.5688 143.139 34.7662 143.27 35.0072C143.405 35.2447 143.473 35.683 143.473 36.3222L143.457 38.0406C143.457 38.5296 143.48 38.8911 143.526 39.1251C143.576 39.3556 143.667 39.6036 143.798 39.869H142.316C142.277 39.7712 142.229 39.6263 142.173 39.4342C142.148 39.3469 142.13 39.2892 142.119 39.2613C141.863 39.5058 141.59 39.6891 141.298 39.8114C141.007 39.9336 140.696 39.9948 140.366 39.9948C139.783 39.9948 139.323 39.8393 138.986 39.5285C138.652 39.2176 138.485 38.8247 138.485 38.3497C138.485 38.0354 138.561 37.7559 138.714 37.5114C138.867 37.2635 139.08 37.0749 139.353 36.9456C139.63 36.8129 140.028 36.6976 140.547 36.5998C141.247 36.4706 141.732 36.3501 142.002 36.2384V36.0917C142.002 35.8088 141.931 35.6079 141.789 35.4892C141.647 35.3669 141.378 35.3058 140.984 35.3058C140.718 35.3058 140.51 35.3582 140.361 35.463C140.211 35.5643 140.09 35.7441 139.998 36.0026ZM142.002 37.1971C141.81 37.26 141.506 37.3351 141.091 37.4224C140.675 37.5097 140.403 37.5953 140.275 37.6791C140.08 37.8153 139.982 37.9882 139.982 38.1978C139.982 38.4038 140.06 38.582 140.217 38.7321C140.373 38.8823 140.572 38.9574 140.814 38.9574C141.084 38.9574 141.341 38.8701 141.586 38.6955C141.767 38.5628 141.886 38.4003 141.943 38.2082C141.982 38.0825 142.002 37.8433 142.002 37.4905V37.1971Z" fill="white"/>
<path d="M150.103 39.869H148.605V37.0295C148.605 36.4287 148.573 36.041 148.509 35.8664C148.445 35.6883 148.34 35.5503 148.195 35.4525C148.053 35.3547 147.88 35.3058 147.678 35.3058C147.418 35.3058 147.186 35.3757 146.98 35.5154C146.774 35.6551 146.631 35.8402 146.553 36.0707C146.479 36.3012 146.441 36.7273 146.441 37.349V39.869H144.944V34.3051H146.335V35.1224C146.829 34.4937 147.45 34.1794 148.2 34.1794C148.53 34.1794 148.832 34.2388 149.106 34.3575C149.38 34.4728 149.586 34.6212 149.724 34.8029C149.866 34.9845 149.964 35.1905 150.017 35.4211C150.074 35.6516 150.103 35.9816 150.103 36.4112V39.869Z" fill="white"/>
</g>
<defs>
<clipPath id="clip0_151_1167">
<rect width="69" height="46" fill="white"/>
</clipPath>
</defs>
</svg>
