<svg width="154" height="30" viewBox="0 0 154 30" fill="none" xmlns="http://www.w3.org/2000/svg">
<g id="Polpharma_logo 1" opacity="0.5" clip-path="url(#clip0_151_1390)">
<g id="layer1">
<g id="g3042">
<path id="path3046" d="M7.18368 29.6489C5.85819 29.3498 5.4499 29.2071 4.47472 28.7021C2.19438 27.5213 0.758747 25.5377 0.214018 22.8151C-0.148158 21.005 0.0141587 19.2378 0.76862 16.7772L1.07338 15.7832H6.52921C9.52992 15.7832 11.9632 15.8239 11.9364 15.8735C11.9097 15.9233 11.5412 16.5733 11.1176 17.3181C9.99725 19.2877 8.13585 23.2236 8.13585 23.623C8.13585 23.6966 8.82069 23.7286 9.95115 23.708L11.7664 23.6748L11.9916 23.0723C12.5894 21.4734 13.8684 18.8457 15.085 16.7169L15.6187 15.7832H23.5019H31.3851L31.0938 16.3791C29.9981 18.6205 27.316 21.8188 24.7378 23.9584C21.4767 26.6647 17.4287 28.6878 13.5985 29.5256C11.8457 29.909 8.61163 29.9712 7.18368 29.6489ZM35.9564 25.705C35.9972 25.3969 36.0739 25.0851 36.1269 25.0122C36.18 24.9393 36.34 24.5272 36.4825 24.0964C36.625 23.6657 36.7894 23.2048 36.8478 23.0723C36.9063 22.9398 37.0637 22.5061 37.1977 22.1085C37.3318 21.7109 37.4891 21.2772 37.5474 21.1446C37.6057 21.0121 37.8128 20.4428 38.0076 19.8796C38.2025 19.3163 38.5211 18.3946 38.7158 17.8314C39.9501 14.2599 40.2613 13.5505 40.8986 12.8555C41.8319 11.8377 42.8949 11.4539 45.0377 11.3607C47.6797 11.2459 49.6532 11.6159 50.4265 12.371C50.8993 12.8327 51.1947 13.6383 51.2361 14.5784C51.2693 15.335 51.2159 15.6752 50.9075 16.6702C50.705 17.3236 50.4396 18.0285 50.3179 18.2364C50.1961 18.4444 50.0476 18.729 49.9878 18.869C49.7576 19.4077 48.161 20.9105 47.3545 21.3475C46.0543 22.0519 45.4887 22.1786 43.2203 22.2737C41.2864 22.3547 41.1451 22.3771 40.7215 22.6677C40.3634 22.9135 40.2136 23.1389 39.9819 23.7805C39.5598 24.9494 38.8927 25.6948 37.9839 26.0129C37.573 26.1568 36.9669 26.2651 36.573 26.2651H35.8824L35.9564 25.705ZM43.9917 19.8747C45.9165 19.5895 47.2933 18.2225 47.8406 16.0532C48.2553 14.4096 47.5738 13.7371 45.4919 13.7357C44.0201 13.7357 43.4197 14.1566 43.0072 15.482C42.9247 15.747 42.8188 16.0181 42.7717 16.0844C42.7246 16.1507 42.5414 16.6657 42.3645 17.229C42.1877 17.7922 42.005 18.3073 41.9587 18.3735C41.8439 18.5377 41.4928 19.6435 41.4928 19.8408C41.4928 20.0371 42.7784 20.0544 43.9917 19.8747ZM69.1554 25.8735C69.1558 25.6582 69.2235 25.3464 69.3059 25.1808C69.3883 25.0151 69.5774 24.5001 69.7261 24.0362C69.8748 23.5723 70.0355 23.1386 70.0832 23.0723C70.131 23.006 70.2616 22.6537 70.3736 22.2892C70.4856 21.9247 70.6476 21.4639 70.7336 21.2651C70.9002 20.8799 71.3872 19.5067 71.9512 17.8314C72.1408 17.2681 72.3699 16.6446 72.4603 16.4458C72.5507 16.247 72.7104 15.8133 72.8153 15.482C73.2908 13.979 73.6485 13.3207 74.3562 12.6467C75.4548 11.6005 76.8659 11.2585 79.6732 11.358C81.7298 11.4309 82.3959 11.5672 83.235 12.0867C84.4489 12.8383 84.81 14.4655 84.2089 16.4753C83.3716 19.275 81.7032 21.1414 79.3245 21.9394C78.6188 22.1761 78.6489 22.1727 76.4724 22.2688C74.0089 22.3775 73.785 22.4713 73.2968 23.599C73.1282 23.9885 72.9902 24.3469 72.9902 24.3954C72.9902 24.4438 72.8255 24.699 72.6243 24.9624C71.9668 25.823 71.0114 26.2651 69.8095 26.2651H69.1547L69.1554 25.8735ZM77.2102 19.8658C78.2715 19.6953 78.8986 19.3883 79.6537 18.6696C80.3582 17.9989 80.9638 16.8414 81.1484 15.8124C81.2561 15.212 81.2452 15.043 81.0752 14.6715C80.7906 14.0499 80.2489 13.8114 78.9948 13.7558C77.895 13.707 77.1517 13.8974 76.78 14.3232C76.59 14.5408 75.8812 16.3365 75.4905 17.5904C75.3769 17.9549 75.246 18.3073 75.1996 18.3735C75.0848 18.5375 74.7336 19.6433 74.7336 19.8408C74.7336 20.0437 76.0217 20.0565 77.2102 19.8658ZM54.7631 22.4097C52.8952 21.9974 51.7207 20.637 51.7207 18.8856C51.7207 17.7232 52.4561 15.5963 53.1624 14.7158C53.9002 13.796 54.3589 13.35 55.0637 12.8671C56.7852 11.6875 58.1235 11.2764 60.2634 11.2698C62.24 11.2638 63.2393 11.548 64.1199 12.367C65.6292 13.7706 65.3361 16.8281 63.4557 19.2976C62.4678 20.5949 61.2276 21.4458 59.3336 22.1257C58.6668 22.3651 58.2265 22.427 56.8928 22.4691C55.9979 22.4975 55.0395 22.4692 54.7631 22.4097ZM58.6943 19.873C60.4268 18.8555 61.0967 17.9829 61.5484 16.1551C61.6975 15.5517 61.706 15.3302 61.5937 14.9659C61.4252 14.4191 60.9828 13.908 60.5392 13.7477C60.0893 13.5852 58.5044 13.6427 58.3256 13.8281C58.2471 13.9094 58.0888 13.9759 57.9737 13.9759C57.8587 13.9759 57.7645 14.0302 57.7645 14.0964C57.7645 14.1627 57.6903 14.2169 57.5995 14.2169C57.4132 14.2169 56.1374 15.3859 56.1374 15.5567C56.1374 15.6176 56.0152 15.8697 55.8659 16.1169C55.2266 17.1751 55.0261 18.5642 55.4109 19.2683C55.7512 19.8907 56.3854 20.1431 57.474 20.0895C57.9854 20.0643 58.5345 19.9668 58.6943 19.873ZM65.0577 22.2795C64.9459 22.212 64.8543 22.0784 64.8543 21.9825C64.8543 21.792 65.257 20.5159 65.4989 19.9398C65.5824 19.741 65.8438 18.982 66.0798 18.2531C66.3159 17.5241 66.5772 16.7651 66.6606 16.5663C66.7439 16.3675 66.9807 15.6898 67.1867 15.0603C67.3927 14.4308 67.606 13.8642 67.6606 13.8013C67.7153 13.7383 67.76 13.5885 67.76 13.4683C67.76 13.3481 67.8101 13.1557 67.8713 13.0406C67.9325 12.9255 68.1498 12.3163 68.354 11.6868C68.5583 11.0573 68.7603 10.488 68.8029 10.4217C68.8455 10.3555 68.9519 10.0573 69.0392 9.75912C69.3052 8.85093 69.8125 8.20101 70.4876 7.90331C71.2305 7.57577 71.6946 7.46993 72.3882 7.46993C73.0305 7.46993 73.1064 7.49558 73.1064 7.71254C73.1064 7.84596 73.0566 8.04928 72.9956 8.16434C72.9347 8.27941 72.7448 8.8073 72.5736 9.33744C72.4024 9.86756 72.1947 10.4639 72.1119 10.6627C72.0291 10.8615 71.7683 11.6206 71.5322 12.3495C71.2962 13.0784 71.0351 13.8374 70.952 14.0362C70.8689 14.235 70.6591 14.8314 70.4856 15.3615C70.3122 15.8916 70.1027 16.488 70.0201 16.6868C69.8951 16.9879 69.3516 18.5637 68.7633 20.3314C68.6916 20.5468 68.5934 20.723 68.5451 20.723C68.4969 20.723 68.4574 20.7987 68.4574 20.8912C68.4574 21.1094 67.7606 21.7418 67.2708 21.9681C66.4225 22.36 65.4238 22.5006 65.0577 22.2795ZM84.4427 22.2471C84.205 22.0669 84.2392 21.6248 84.5451 20.9243C84.6368 20.7142 84.9049 19.9459 85.141 19.217C85.377 18.4881 85.6381 17.7291 85.7212 17.5303C85.8043 17.3315 86.0141 16.7351 86.1876 16.2049C86.361 15.6748 86.5706 15.0785 86.6534 14.8797C86.7362 14.6809 86.997 13.9218 87.2331 13.1929C87.4691 12.464 87.7301 11.7049 87.8131 11.5061C87.8962 11.3074 88.1273 10.6567 88.3268 10.0604C88.5263 9.46399 88.7399 8.95796 88.8014 8.93588C88.8629 8.9138 88.9132 8.82167 88.9132 8.73116C88.9132 8.54942 89.6123 7.95194 89.8249 7.95194C89.8988 7.95194 89.9592 7.90387 89.9592 7.84513C89.9592 7.69753 90.5514 7.57673 91.6052 7.50931L92.4956 7.45236L92.4042 7.85275C92.3046 8.28882 91.8769 9.60383 91.6469 10.1809C91.3128 11.0191 91.2377 11.2192 91.2377 11.2709C91.2377 11.3009 92.1229 11.3254 93.2047 11.3254C95.7568 11.3254 96.7866 11.5462 97.452 12.236C97.8245 12.6221 98.0195 13.3934 97.9204 14.0879C97.8436 14.6264 97.2909 16.4501 96.9868 17.1688C96.9027 17.3676 96.6398 18.1266 96.4027 18.8555C95.5566 21.4562 95.2757 21.8083 93.7019 22.2406C92.3017 22.6252 91.8516 22.315 92.2868 21.2652C92.3418 21.1327 92.6063 20.3465 92.8747 19.5182C93.143 18.6899 93.3976 17.958 93.4405 17.8917C93.4834 17.8254 93.7482 17.0601 94.0288 16.1909C94.5198 14.6704 94.5318 14.599 94.3455 14.3042C94.1117 13.9344 93.3491 13.7351 92.1673 13.7351C91.2916 13.7351 90.8526 13.8813 90.4586 14.304C90.132 14.6545 89.9603 15.0526 89.4311 16.6869C89.1951 17.4158 88.934 18.1748 88.8509 18.3736C88.7679 18.5724 88.5842 19.0875 88.4427 19.5182C87.8572 21.3013 87.2633 21.9104 85.7527 22.2773C85.0333 22.452 84.703 22.4442 84.4427 22.2471ZM99.216 22.2363C98.858 22.1366 98.4997 21.9216 98.236 21.6482C97.8716 21.2705 97.814 21.1286 97.7702 20.5001C97.7145 19.7026 97.9339 18.8338 98.408 17.9744C99.4209 16.1382 100.859 15.6652 105.435 15.6637H107.952L108.079 15.2843C108.268 14.7219 108.236 14.4027 107.962 14.1462C107.737 13.9348 107.446 13.9115 104.272 13.8503C102.377 13.8139 100.813 13.7731 100.797 13.7599C100.781 13.7467 100.769 13.614 100.77 13.4649C100.773 13.0189 101.26 12.2642 101.796 11.8735L102.3 11.507H106.096C109.788 11.507 109.905 11.5142 110.371 11.7728C111.317 12.2972 111.675 13.0412 111.542 14.2044C111.459 14.9365 109.565 20.4059 109.193 20.9883C108.832 21.5552 108.117 21.9888 107.159 22.2229C106.158 22.4675 100.082 22.4785 99.216 22.2373V22.2363ZM106.093 19.8194C106.352 19.6576 106.591 19.3355 106.82 18.8384C107.007 18.4313 107.161 18.0382 107.161 17.9649C107.161 17.7795 102.919 17.7829 102.384 17.9689C101.706 18.2043 101.117 18.9244 101.117 19.5183C101.117 20.0046 101.679 20.125 103.79 20.0913C105.47 20.0645 105.756 20.0305 106.093 19.8194ZM111.548 22.2796C111.436 22.2121 111.345 22.0773 111.345 21.9801C111.345 21.7864 111.976 19.7951 112.221 19.217C112.305 19.0182 112.567 18.2592 112.803 17.5303C113.039 16.8014 113.301 16.0423 113.385 15.8435C113.469 15.6447 113.619 15.223 113.72 14.9062C113.958 14.1511 114.402 13.2696 114.737 12.8842C115.08 12.4901 116.044 11.8074 116.257 11.8074C116.347 11.8074 116.459 11.7674 116.505 11.7189C116.753 11.4621 118.123 11.3404 120.846 11.3332L123.781 11.3256V11.6121C123.781 12.3039 123.291 13.0693 122.584 13.4808C122.19 13.71 121.964 13.7353 120.305 13.7353C118.367 13.7353 117.887 13.8335 117.466 14.3156C117.261 14.55 116.996 15.2435 116.097 17.8919C115.849 18.6208 115.599 19.3256 115.541 19.4582C115.484 19.5907 115.369 19.8889 115.286 20.1208C114.843 21.3681 114.171 21.9592 112.833 22.2794C112.163 22.4398 111.814 22.4398 111.548 22.2796ZM121.195 22.2796C120.97 22.1437 120.931 21.7955 121.105 21.4745C121.168 21.3594 121.355 20.8315 121.521 20.3014C121.687 19.7713 121.893 19.1749 121.98 18.9761C122.066 18.7773 122.33 18.0183 122.566 17.2893C122.802 16.5604 123.064 15.8014 123.148 15.6026C123.232 15.4038 123.383 14.9794 123.484 14.6595C123.586 14.3396 123.752 13.9094 123.855 13.7036C124.092 13.2275 125.242 12.0484 125.469 12.0484C125.563 12.0484 125.641 11.9942 125.641 11.9279C125.641 11.8616 125.72 11.8074 125.817 11.8074C125.913 11.8074 126.083 11.7596 126.194 11.7012C126.808 11.3781 127.714 11.3255 132.665 11.3255C136.046 11.3255 138.04 11.3723 138.446 11.4611C140.584 11.9296 141.041 13.0189 140.205 15.6628C140.048 16.1598 139.849 16.7291 139.762 16.9279C139.676 17.1267 139.383 17.967 139.112 18.7953C138.49 20.6942 137.978 21.6869 137.62 21.6869C137.552 21.6869 137.496 21.7279 137.496 21.778C137.496 21.9655 136.04 22.4098 135.425 22.4098C134.829 22.4098 134.657 21.9182 134.99 21.1629C135.082 20.9541 135.295 20.3496 135.464 19.8194C135.632 19.2893 135.84 18.6929 135.927 18.4941C136.195 17.8758 137.147 14.9099 137.147 14.6918C137.147 14.0208 135.822 13.5487 134.784 13.8499C133.894 14.1082 133.601 14.5178 133.013 16.3255C132.841 16.8556 132.632 17.452 132.549 17.6508C132.466 17.8496 132.232 18.5273 132.03 19.1568C131.827 19.7863 131.614 20.3529 131.556 20.4158C131.499 20.4788 131.452 20.6047 131.452 20.6956C131.452 20.7864 131.387 20.9316 131.307 21.0181C131.227 21.1047 131.085 21.2905 130.991 21.4312C130.897 21.5718 130.753 21.6869 130.671 21.6869C130.589 21.6869 130.522 21.7279 130.522 21.778C130.522 22.0017 128.844 22.471 128.326 22.392C127.774 22.3078 127.771 22.0584 128.304 20.4028C128.578 19.5518 128.872 18.6929 128.958 18.4941C129.044 18.2953 129.252 17.699 129.42 17.1689C129.588 16.6387 129.796 16.0423 129.882 15.8435C130.105 15.3271 130.522 14.0462 130.522 13.8777C130.522 13.6797 128.203 13.6846 127.767 13.8837C127.356 14.0717 126.836 14.6679 126.741 15.0603C126.701 15.2261 126.599 15.5244 126.513 15.7232C126.427 15.922 126.187 16.5997 125.981 17.2293C125.774 17.8588 125.57 18.4281 125.527 18.4943C125.484 18.5606 125.302 19.0896 125.124 19.6699C124.753 20.8735 124.297 21.5073 123.523 21.8937C122.557 22.3757 121.613 22.5322 121.195 22.2796ZM141.565 22.1782C140.06 21.629 139.796 20.3315 140.76 18.2329C141.214 17.2455 142.032 16.4839 142.991 16.1556C144.116 15.7704 145.137 15.6678 147.872 15.6652L150.403 15.6612L150.516 15.3522C150.578 15.1822 150.629 14.8583 150.629 14.6324C150.629 13.8973 150.411 13.854 146.698 13.854C142.988 13.854 142.997 13.858 143.365 13.0111C143.653 12.3496 144.308 11.7071 144.85 11.556C145.138 11.4755 146.614 11.4427 148.868 11.4667L152.431 11.5047L152.973 11.835C153.271 12.0166 153.63 12.359 153.772 12.5959C153.998 12.9763 154.021 13.1414 153.968 14.0126C153.916 14.8671 153.775 15.3726 152.915 17.8007C151.679 21.2898 151.496 21.5797 150.213 22.076C149.565 22.3266 149.311 22.344 145.864 22.3759C142.493 22.4071 142.152 22.3911 141.565 22.1768V22.1782ZM148.623 19.7344C148.989 19.483 149.153 19.2546 149.341 18.7359C149.474 18.3661 149.583 18.0073 149.583 17.9386C149.583 17.8553 148.8 17.8267 147.23 17.8527C145.231 17.8859 144.819 17.9244 144.493 18.1084C144.019 18.377 143.657 18.9721 143.656 19.4847C143.656 19.8182 143.709 19.8894 144.034 19.9909C144.241 20.0559 145.252 20.0981 146.28 20.0847C148.098 20.0611 148.161 20.0516 148.623 19.7344ZM2.68196 12.6808C3.56929 11.1399 5.59346 8.62438 6.93037 7.40123C7.35985 7.0083 7.76755 6.63235 7.83637 6.56578C9.51838 4.93907 13.1907 2.65219 15.8244 1.59132C18.6584 0.449806 20.4439 0.0806878 23.1872 0.0692278C25.3403 0.0602278 25.9743 0.14384 27.4294 0.628676C32.1002 2.18491 34.1864 6.7127 32.7606 12.1989L32.5179 13.1326H32.0533C31.6586 13.1326 31.6005 13.101 31.6669 12.9217C31.9107 12.2641 32.0995 10.8515 32.1057 9.63863C32.12 6.82599 31.1251 4.66867 29.2067 3.35284C26.7361 1.65825 23.6287 1.49081 19.6786 2.83939C18.6605 3.18697 16.3266 4.41345 15.2157 5.18473C12.4 7.13949 9.81091 9.84878 8.3087 12.4122L7.88657 13.1326H5.15418H2.4218L2.68196 12.6808ZM13.7772 12.8013C14.0373 12.3819 14.6213 11.5963 14.963 11.2061C15.1074 11.0411 15.2257 10.8674 15.2257 10.82C15.2257 10.7727 15.3433 10.6089 15.4872 10.4561C15.631 10.3033 16.0362 9.82644 16.3877 9.3964C16.7392 8.96637 17.5524 8.05746 18.1948 7.37662L19.3629 6.13873L21.3565 6.17181L23.3502 6.2049L22.101 7.53019C20.9091 8.79463 19.3971 10.5906 18.6522 11.6266C18.4616 11.8917 18.2421 12.1783 18.1645 12.2635C18.0868 12.3488 17.9317 12.5792 17.8198 12.7756L17.6163 13.1326H15.594H13.5718L13.7772 12.8013Z" fill="white"/>
<path id="path3044" d="M8.19396 29.797C5.08308 29.3825 2.79653 28.0414 1.37697 25.7988C0.714072 24.7516 0.310599 23.5157 0.113278 21.9277C-0.0082287 20.9499 -0.00132953 20.6048 0.160636 19.5589C0.264907 18.8856 0.486583 17.8555 0.65325 17.2698C0.819916 16.6841 0.982576 16.1099 1.01471 15.994C1.0693 15.7971 1.43203 15.7831 6.51497 15.7831H11.9568L11.2032 17.0783C10.4017 18.4556 8.95824 21.4118 8.37777 22.8644L8.02755 23.7409L9.89278 23.7077L11.758 23.6745L12.5363 21.8673C13.5939 19.4114 15.4274 15.954 15.7371 15.8314C15.8074 15.8034 19.356 15.795 23.6228 15.8122L31.3808 15.8434L30.8198 16.8211C27.0227 23.4386 19.1529 28.8739 12.0906 29.7564C11.1538 29.8735 8.94114 29.8965 8.19396 29.797ZM35.9588 26.0918C35.8813 25.8826 39.4091 15.8469 40.1542 14.1566C40.8031 12.6848 42.1017 11.6983 43.7087 11.4564C44.7357 11.3018 48.0157 11.4152 48.8637 11.6346C50.3507 12.0194 51.0638 12.8759 51.2103 14.4533C51.3431 15.8822 50.4049 18.3729 49.2251 19.724C48.3983 20.6707 47.0553 21.6062 46.0496 21.9358C45.4371 22.1366 44.8719 22.2034 43.4106 22.2476C40.76 22.3278 40.3391 22.536 39.8086 24.0291C39.5474 24.7641 38.8489 25.5681 38.1799 25.9039C37.8938 26.0474 37.3204 26.1879 36.8555 26.2283C36.1476 26.2898 36.0252 26.2712 35.9588 26.0918ZM44.1707 19.8786C45.0068 19.7143 45.8995 19.2742 46.4581 18.751C47.2322 18.0261 47.9963 16.2745 48.0001 15.2165C48.004 14.1871 47.4828 13.8348 45.845 13.7593C44.5047 13.6975 44.0069 13.8179 43.5475 14.3149C43.3432 14.536 42.9254 15.5192 42.308 17.2321C41.7957 18.6532 41.3766 19.8573 41.3766 19.9079C41.3766 20.0423 43.4487 20.0204 44.1707 19.8786ZM69.1995 26.0918C69.1278 25.898 72.9484 15.0344 73.4818 13.9157C73.7806 13.2889 74.6711 12.3343 75.2428 12.0279C76.182 11.5247 76.6776 11.4489 79.0921 11.4395C81.5686 11.4299 82.39 11.5549 83.1805 12.0613C84.7216 13.0487 84.8594 15.3038 83.5479 18.0723C83.164 18.8827 82.8666 19.2975 82.1224 20.0603C80.4764 21.7472 79.0594 22.2738 76.1283 22.2876C74.9724 22.2932 74.5786 22.34 74.2014 22.5176C73.738 22.7358 73.2238 23.2725 73.2215 23.5403C73.2207 23.6143 73.0948 23.9542 72.9414 24.2959C72.4055 25.4889 71.4456 26.1362 70.0596 26.2389C69.3957 26.2882 69.2639 26.2657 69.1995 26.0918ZM77.3279 19.8838C78.1985 19.736 79.1144 19.2984 79.6989 18.751C80.4729 18.0261 81.2371 16.2745 81.2409 15.2165C81.2443 14.2083 80.7052 13.8254 79.1833 13.7556C76.8952 13.6508 76.8029 13.7389 75.5592 17.2101C75.0412 18.6558 74.6174 19.875 74.6174 19.9193C74.6174 20.0405 76.5546 20.0151 77.3279 19.8838ZM54.8863 22.4105C53.5489 22.1153 52.4126 21.2782 52.0171 20.2969C51.2605 18.4198 52.3083 15.3892 54.374 13.4795C57.2137 10.8544 62.4735 10.4334 64.3307 12.6826C66.1706 14.9107 64.406 19.4078 60.9026 21.4191C59.7155 22.1007 58.4574 22.4277 56.8347 22.4764C56.0357 22.5004 55.1589 22.4708 54.8863 22.4105ZM58.8106 19.8457C60.0653 19.3623 61.3064 17.7137 61.6131 16.1228C61.7758 15.2789 61.6796 14.6948 61.301 14.2284C60.9128 13.7502 60.3555 13.5802 59.3484 13.633C57.3637 13.7368 55.7643 15.2784 55.2238 17.6083C55.0509 18.3537 55.2084 19.2123 55.5906 19.6085C56.2119 20.2525 57.5069 20.3479 58.8106 19.8457ZM99.5746 22.2846C98.905 22.1679 98.3782 21.8646 98.0491 21.4064C97.6582 20.862 97.7127 19.5688 98.1694 18.5506C98.7618 17.2298 99.5222 16.5003 100.71 16.1131C101.683 15.796 102.113 15.7534 105.123 15.6766L108.024 15.6024L108.128 15.1484C108.266 14.5407 108.159 14.1673 107.797 13.9966C107.592 13.8995 106.488 13.8554 104.264 13.8554C100.75 13.8554 100.68 13.8422 100.835 13.2022C100.958 12.6904 101.856 11.7481 102.372 11.5878C102.949 11.4086 108.968 11.3982 109.718 11.575C110.956 11.8673 111.665 12.8188 111.545 14.0264C111.486 14.6219 109.784 19.758 109.366 20.6023C108.911 21.5224 107.964 22.1139 106.665 22.2889C105.657 22.4245 100.359 22.4214 99.5746 22.2846ZM106 19.8494C106.523 19.5744 106.93 18.9539 107.113 18.1538L107.19 17.8135L104.764 17.8527C102.586 17.8875 102.297 17.9165 101.944 18.1327C101.499 18.4048 101.117 19.0537 101.117 19.5364C101.117 20.0144 101.491 20.1003 103.62 20.1111C105.333 20.1199 105.526 20.0986 106 19.8494ZM142 22.285C140.826 22.0801 140.066 21.1405 140.208 20.0681C140.384 18.7376 141.164 17.316 142.075 16.665C143.144 15.9013 144.57 15.6737 148.329 15.6667L150.503 15.6627L150.589 15.2109C150.707 14.5896 150.656 14.3133 150.377 14.0663C150.162 13.8763 149.814 13.8555 146.848 13.8555C143.197 13.8555 143.089 13.8339 143.318 13.1536C143.498 12.6162 144.122 11.9155 144.636 11.6739C145.059 11.4747 145.448 11.4509 148.318 11.4485C151.828 11.4445 152.558 11.5293 153.157 12.0026C153.863 12.5611 154.022 12.9485 153.962 13.976C153.919 14.7321 153.748 15.34 152.918 17.7003C152.372 19.2517 151.776 20.7419 151.593 21.012C151.155 21.6576 150.215 22.1546 149.166 22.2946C148.185 22.4256 142.764 22.4184 142 22.285ZM148.195 20.0001C148.745 19.8419 149.164 19.3615 149.458 18.5542C149.591 18.1898 149.7 17.8742 149.7 17.8529C149.7 17.8317 148.579 17.8317 147.209 17.8529C144.907 17.8885 144.694 17.9104 144.398 18.14C143.91 18.5178 143.638 18.9583 143.617 19.4034C143.587 20.0307 143.872 20.1167 145.98 20.1181C146.971 20.1181 147.968 20.0656 148.195 20.0001ZM64.9306 22.114C64.8949 22.0177 65.2756 20.7571 65.7765 19.3127C67.2948 14.9347 68.3364 11.9372 68.8239 10.5422C69.5322 8.51523 69.9594 8.01746 71.3003 7.6564C71.9985 7.46838 73.1064 7.40246 73.1064 7.54893C73.1064 7.82133 68.6165 20.5053 68.3932 20.8637C67.8304 21.7671 66.8315 22.2892 65.6657 22.2892C65.1866 22.2892 64.9769 22.2392 64.9306 22.114ZM84.3141 22.13C84.2817 22.0424 84.7061 20.6734 85.2573 19.0878C85.8084 17.5022 86.7009 14.9308 87.2406 13.3736C87.7802 11.8163 88.3322 10.2284 88.4671 9.84493C89.008 8.30729 89.8878 7.63213 91.517 7.5044C92.2823 7.4444 92.4 7.46132 92.4 7.63113C92.4 7.7389 92.1385 8.57164 91.8189 9.48169C91.4993 10.3917 91.2377 11.1788 91.2377 11.2308C91.2377 11.2828 92.0092 11.3258 92.9521 11.3263C94.9841 11.3263 95.9694 11.4687 96.7585 11.8723C97.6351 12.3206 97.8062 12.6376 97.7964 13.7952C97.7888 14.6972 97.7229 14.9443 96.7704 17.6447C96.2105 19.2318 95.6808 20.674 95.5931 20.8497C95.1646 21.7088 93.9559 22.3317 92.8458 22.2657C92.3632 22.2369 92.2192 22.1822 92.1886 22.0152C92.1671 21.8976 92.6765 20.2818 93.3207 18.4245C93.965 16.5672 94.4921 14.862 94.4921 14.6351C94.4921 13.9815 94.1394 13.8199 92.5789 13.7579C91.1479 13.7011 90.5803 13.8579 90.2342 14.4055C90.1393 14.5557 89.5829 16.0521 88.9979 17.7309C87.9917 20.618 87.9048 20.8137 87.3919 21.3464C87.005 21.7484 86.6731 21.964 86.2332 22.0995C85.4658 22.3357 84.3966 22.3529 84.3141 22.13ZM111.395 22.13C111.321 21.9308 113.939 14.3268 114.306 13.6741C115.004 12.4327 116.217 11.6571 117.799 11.441C118.309 11.3714 119.85 11.3303 121.224 11.3497L123.723 11.3848L123.687 11.736C123.625 12.3255 123.242 12.9498 122.714 13.3209C122.215 13.6717 122.198 13.6744 120.12 13.7357C117.821 13.8035 117.562 13.8805 117.202 14.6027C117.051 14.9054 116.034 17.7708 115.267 20.0548C114.942 21.0227 114.164 21.8369 113.314 22.0986C112.548 22.3344 111.477 22.3521 111.395 22.13ZM121.071 22.122C121.037 22.0305 121.299 21.1223 121.652 20.1039C123.975 13.4092 123.999 13.3524 124.882 12.5488C126.146 11.3976 126.865 11.2943 133.157 11.3588C136.616 11.3944 138.427 11.458 138.799 11.5573C140.008 11.8802 140.586 12.6158 140.557 13.7945C140.543 14.3689 140.337 15.0989 139.556 17.3487C139.015 18.9059 138.493 20.3698 138.395 20.6017C137.977 21.5894 137.09 22.1546 135.798 22.2559C135.083 22.3119 134.933 22.2914 134.873 22.1294C134.833 22.0225 135.325 20.42 135.974 18.543C136.691 16.4689 137.147 14.9695 137.147 14.6858C137.147 13.9885 136.79 13.7945 135.505 13.7945C133.868 13.7945 133.8 13.8843 132.383 17.9511C131.864 19.4421 131.319 20.8524 131.171 21.0853C130.765 21.7286 129.877 22.1733 128.836 22.2549C128.128 22.3104 127.958 22.2897 127.903 22.1401C127.833 21.9507 127.976 21.5051 129.642 16.7071C130.19 15.1284 130.638 13.8137 130.638 13.7855C130.638 13.7575 130.034 13.7342 129.296 13.7342C127.897 13.7342 127.44 13.8584 127.024 14.3519C126.922 14.4733 126.403 15.8342 125.872 17.3762C125.34 18.9183 124.813 20.3734 124.701 20.6099C124.395 21.2507 123.65 21.8866 122.953 22.1009C122.179 22.3394 121.156 22.3507 121.071 22.122Z" fill="white"/>
</g>
</g>
</g>
<defs>
<clipPath id="clip0_151_1390">
<rect width="154" height="30" fill="white"/>
</clipPath>
</defs>
</svg>
