<svg width="172" height="19" viewBox="0 0 172 19" fill="none" xmlns="http://www.w3.org/2000/svg">
<g id="logo (1) 2" opacity="0.5" clip-path="url(#clip0_151_1396)">
<g id="&#208;&#161;&#208;&#187;&#208;&#190;&#208;&#185; 2">
<g id="Ebene 1">
<g id="Group">
<path id="Vector" d="M1.86441 4.80026V8.86371H10.8665V10.4936H1.86441V15.8296H0V3.17041H13.7348V4.80026H1.86441Z" fill="white"/>
<path id="Vector_2" d="M23.6747 3.17041V15.8296H21.8103V3.17041H23.6747Z" fill="white"/>
<path id="Vector_3" d="M49.3792 3.17041V15.8296H46.9191L35.4679 4.93422V15.8296H33.6145V3.17041H36.0857L47.5259 14.0658V3.17041H49.3792Z" fill="white"/>
<path id="Vector_4" d="M68.7625 12.86H60.323L58.5579 15.8295H56.6052L64.6365 2.33301L72.6458 15.8295H70.5386L68.7625 12.86ZM67.7806 11.1632L64.5483 5.77132L61.3049 11.1632H67.7806Z" fill="white"/>
<path id="Vector_5" d="M81.4713 0V18.9777H79.8717V0H81.4713Z" fill="white"/>
<path id="Vector_6" d="M105.973 7.13339C105.973 9.36606 104.043 11.0741 101.45 11.0741H92.8123V15.8296H90.9479V3.17041H101.494C104.043 3.17041 105.973 4.86724 105.973 7.13339ZM104.043 7.13339C104.032 6.80927 103.956 6.49071 103.821 6.1966C103.686 5.90249 103.494 5.63882 103.256 5.42123C103.019 5.20364 102.74 5.03656 102.438 4.92989C102.135 4.82322 101.814 4.77914 101.494 4.80026H92.8123V9.44421H101.494C101.813 9.46532 102.132 9.42197 102.433 9.31667C102.734 9.21138 103.011 9.04628 103.249 8.83104C103.486 8.6158 103.679 8.35477 103.815 8.06325C103.951 7.77174 104.029 7.4556 104.043 7.13339Z" fill="white"/>
<path id="Vector_7" d="M111.523 9.556C111.523 5.68232 115.527 2.79102 120.878 2.79102C126.228 2.79102 130.178 5.68232 130.178 9.556C130.178 13.4297 126.173 16.3991 120.845 16.3991C115.516 16.3991 111.523 13.4632 111.523 9.556ZM128.28 9.556C128.28 6.62004 125.114 4.42086 120.878 4.42086C116.641 4.42086 113.453 6.65353 113.453 9.556C113.453 12.4585 116.641 14.7693 120.878 14.7693C125.114 14.7693 128.28 12.5366 128.28 9.556Z" fill="white"/>
<path id="Vector_8" d="M144.872 11.0741H139.136V15.8296H137.271V3.17041H147.763C150.355 3.17041 152.286 4.86724 152.286 7.13339C152.286 9.39955 150.355 11.0741 147.763 11.0741H147.332L152.341 15.8296H149.87L144.872 11.0741ZM139.136 9.44421H147.774C148.095 9.47159 148.419 9.4329 148.725 9.33046C149.032 9.22801 149.315 9.06394 149.557 8.84809C149.799 8.63224 149.996 8.36907 150.135 8.0744C150.274 7.77974 150.352 7.45966 150.366 7.13339C150.355 6.80522 150.279 6.48269 150.141 6.18542C150.003 5.88814 149.807 5.62232 149.565 5.40411C149.322 5.18589 149.038 5.01984 148.73 4.91603C148.423 4.81223 148.097 4.77284 147.774 4.80026H139.136V9.44421Z" fill="white"/>
<path id="Vector_9" d="M172 4.80026H165.977V15.8408H164.112V4.80026H158.089V3.17041H172V4.80026Z" fill="white"/>
</g>
</g>
</g>
</g>
<defs>
<clipPath id="clip0_151_1396">
<rect width="172" height="19" fill="white"/>
</clipPath>
</defs>
</svg>
