<svg width="154" height="32" viewBox="0 0 154 32" fill="none" xmlns="http://www.w3.org/2000/svg">
<g id="LOGO_Honor 1" opacity="0.5">
<g id="g10">
<path id="path34" d="M94.1898 15.9844C94.1898 23.915 100.716 30.3442 108.768 30.3442C116.819 30.3442 123.345 23.915 123.345 15.9844C123.345 8.05273 116.819 1.62372 108.768 1.62372C100.716 1.62372 94.1898 8.05273 94.1898 15.9844ZM99.2508 15.9844C99.2508 10.8068 103.512 6.61036 108.768 6.61036C114.024 6.61036 118.285 10.8068 118.285 15.9844C118.285 21.1623 114.024 25.3596 108.768 25.3596C103.512 25.3596 99.2508 21.1623 99.2508 15.9844ZM29.9853 15.9844C29.9853 23.915 36.5117 30.3442 44.5636 30.3442C52.6143 30.3442 59.1406 23.915 59.1406 15.9844C59.1406 8.05273 52.6143 1.62372 44.5636 1.62372C36.5117 1.62372 29.9853 8.05273 29.9853 15.9844ZM35.0463 15.9844C35.0463 10.8068 39.3074 6.61036 44.5636 6.61036C49.8194 6.61036 54.0805 10.8068 54.0805 15.9844C54.0805 21.1623 49.8194 25.3596 44.5636 25.3596C39.3074 25.3596 35.0463 21.1623 35.0463 15.9844ZM82.2967 1.92386V19.3916L70.0081 1.92386H65.9727V29.9143H71.0348V12.3614L83.3823 29.9143H87.3577V1.92386H82.2967ZM130.177 2.00794V29.9986H135.239V17.5422L145.783 29.9986H152.359L143.722 19.7945C147.454 18.6221 150.157 15.1807 150.157 11.1163C150.157 6.09544 146.031 2.02238 140.937 2.00904V2.00794H130.177ZM135.239 6.99457H140.875C143.185 6.99457 145.058 8.84 145.058 11.1163C145.058 13.3925 143.184 15.2388 140.873 15.2388H135.239V6.99457ZM18.092 2.00794V13.3541H6.83018V2.00794H1.76825V29.9986H6.83018V18.3398H18.092V29.9986H23.153V2.00794H18.092Z" fill="white"/>
</g>
</g>
</svg>
