<svg width="237" height="41" viewBox="0 0 237 41" fill="none" xmlns="http://www.w3.org/2000/svg">
<g id="Eurasian_Bank 1" style="mix-blend-mode:luminosity">
<g id="layer1" opacity="0.5">
<g id="g3278">
<g id="g3129">
<path id="path3131" d="M180.656 10.3518C182.976 10.3518 184.697 10.6706 185.864 11.3934C186.502 11.7893 186.986 12.2702 187.298 12.8627C187.608 13.4539 187.765 14.1913 187.765 15.0734C187.765 16.3635 187.251 17.4422 186.218 18.3005C185.65 18.7734 185.021 19.2238 184.319 19.4988C184.205 19.5427 184.119 19.6051 184.119 19.7313C184.119 19.9186 184.294 19.9612 184.439 19.9957C185.594 20.28 186.561 20.7357 187.314 21.3668C188.434 22.3087 188.99 23.5615 188.99 25.1106C188.99 26.2293 188.743 27.1871 188.248 27.9829C187.754 28.7801 187.055 29.447 186.153 29.9851C185.379 30.4368 184.466 30.7649 183.413 30.9682C182.635 31.1196 181.778 31.1794 180.868 31.202C180.42 31.214 179.97 31.2166 179.521 31.2219C177.298 31.2339 175.241 31.2605 173.718 31.2366C172.863 31.2246 172.151 31.0997 171.694 31.028L171.697 31.0227L171.571 30.9855C171.388 30.9018 171.263 30.7197 171.264 30.5072C171.264 30.2827 171.408 30.0887 171.608 30.0143C171.734 29.9691 171.895 29.9824 172.027 29.9731C172.883 29.904 173.451 29.7034 173.698 29.3726C174.008 28.9541 174.165 27.8607 174.165 26.0964L174.231 15.4189C174.242 13.6758 174.091 12.5877 173.812 12.1586C173.596 11.8238 173.106 11.6192 172.35 11.5461L172.019 11.5103C171.807 11.4412 171.652 11.2419 171.652 11.0054C171.652 10.7742 171.804 10.575 172.014 10.5072L172.107 10.4846C172.485 10.4209 173.025 10.3544 173.695 10.3385C175.114 10.3039 177.104 10.3478 179.292 10.3491C179.751 10.3491 180.203 10.3518 180.656 10.3518ZM180.604 29.8814C181.587 29.8336 182.435 29.5148 183.09 28.9196C183.948 28.1424 184.38 26.9825 184.38 25.4348C184.38 23.8405 183.895 22.7724 182.914 22.0031C182.326 21.5421 181.577 21.2166 180.743 21.0293C180.305 20.9323 179.662 20.8752 179.237 21.0187C178.866 21.1436 178.575 21.4465 178.466 21.8264C178.407 22.035 178.421 22.2489 178.421 22.4628L178.379 26.3342C178.366 27.5591 178.428 28.3881 178.525 28.8066C178.62 29.2251 178.837 29.5334 179.186 29.6941C179.627 29.8987 180.126 29.9027 180.604 29.8814ZM180.392 19.3939C181.156 19.2491 181.803 18.9794 182.285 18.5821C183.039 17.9604 183.413 16.859 183.413 15.5238C183.413 14.1474 183.025 13.1364 182.253 12.4907C181.793 12.1068 181.173 11.7839 180.441 11.6444C180.012 11.5634 179.572 11.5634 179.138 11.5979C178.401 11.6564 178.421 11.9965 178.421 12.7086V17.8235C178.421 18.0746 178.397 18.3576 178.472 18.6007C178.59 18.99 178.906 19.2995 179.305 19.4045C179.641 19.4935 180.051 19.4576 180.392 19.3939ZM81.4737 17.6827L81.5095 17.324L81.7046 17.1327L82.0907 17.0756C82.2167 17.0609 82.3454 17.0463 82.4768 17.0291C83.2875 16.9281 83.9549 16.8417 84.467 16.7726C84.6249 16.7514 84.8624 16.7009 85.023 16.7009C85.1849 16.7009 85.3242 16.7992 85.3839 16.9414L85.4144 17.2536C85.4144 20.9244 85.425 24.5845 85.425 28.2606C85.4516 29.1348 85.6307 30.0528 86.643 30.106H86.663L86.7426 30.1113L86.7638 30.1126V30.1153C87.0053 30.1618 87.1897 30.3584 87.1897 30.6321C87.1897 30.9057 86.9522 31.1754 86.663 31.1595L86.6218 31.1568H83.5276L83.4242 31.1595C82.9226 31.1595 82.4635 30.9669 82.1172 30.6493C81.7975 30.3956 81.6462 29.9784 81.4034 29.8881C81.1115 29.7791 80.6498 29.9239 79.9598 30.3757C79.4224 30.7197 78.6011 31.0599 78.1712 31.21C77.7427 31.3614 77.2796 31.4372 76.786 31.4372C75.4539 31.4372 74.4269 31.0439 73.7078 30.2587C72.9873 29.4736 72.6277 28.4346 72.6277 27.1433C72.6277 24.6828 72.6091 22.2503 72.6091 19.8057C72.6091 19.2251 72.5494 18.8425 72.4313 18.6605C72.3146 18.4772 72.0386 18.3536 71.6087 18.2885C71.4429 18.2619 71.2133 18.254 71.0541 18.1783C70.8763 18.0919 70.7569 17.9125 70.7582 17.7026C70.7595 17.5047 70.8896 17.3107 71.074 17.2244C71.2067 17.1632 71.3818 17.1765 71.5251 17.1699C72.1421 17.1393 72.8387 17.0942 73.6069 16.9985C74.4203 16.8975 75.0863 16.8112 75.5998 16.7421C75.7551 16.7208 75.9926 16.669 76.1558 16.669C76.3163 16.669 76.457 16.7687 76.5153 16.9108L76.5459 17.2204C76.5459 20.1312 76.5605 23.4247 76.5605 26.3369C76.5605 27.2403 76.7595 27.9072 77.1575 28.3377C77.5543 28.7681 78.0863 28.9833 78.7524 28.9833C79.307 28.9833 79.8736 28.8213 80.4547 28.4971C81.1646 28.1078 81.475 27.4117 81.487 26.8058C81.475 23.7661 81.4671 20.7224 81.4737 17.6827ZM142.271 26.6225L142.269 24.1727V24.1567V24.1421C142.269 23.7993 141.991 23.5217 141.65 23.5217L141.322 23.616L140.108 24.3042C138.959 24.9578 138.355 26.0047 138.379 27.0915C138.401 28.1676 139.252 29.0431 140.319 29.0431C141.153 29.0431 141.868 28.5157 142.144 27.7744C142.288 27.3917 142.271 27.0211 142.271 26.6225ZM146.075 20.4939V27.7079C146.075 28.3536 146.155 28.8213 146.316 29.1122C146.453 29.358 146.623 29.4988 146.829 29.536C147.16 29.5905 147.413 29.8788 147.413 30.2255C147.413 30.4846 147.271 30.7091 147.063 30.83L147.064 30.8313C146.475 31.1715 145.772 31.4292 145.042 31.4372C144.379 31.4372 143.82 31.2777 143.374 30.9788C142.866 30.6414 142.614 30.0568 141.908 30.0568C141.295 30.0568 140.883 30.5723 140.422 30.8938C139.938 31.2339 139.452 31.4372 138.677 31.4372C137.501 31.4372 136.533 31.0213 135.77 30.1936C135.013 29.3646 134.631 28.4559 134.631 27.4661C134.631 25.8519 135.459 24.7121 137.113 24.0451C138.037 23.6798 138.964 23.3091 139.885 22.9159C140.571 22.6222 141.131 22.3672 141.562 22.1493L141.566 22.1466C141.983 21.9566 142.272 21.5355 142.272 21.0492L142.271 21.0027V20.5909C142.271 19.1228 141.831 17.8793 140.555 17.8302C138.283 17.7425 138.091 19.7048 137.81 21.1662C137.704 21.7095 137.243 22.0111 136.759 22.0111C136.393 22.0111 136.005 21.8729 135.598 21.5926C135.103 21.2499 135.1 20.8818 135.1 20.4939C135.1 18.2048 137.593 16.4206 140.559 16.4604C143.964 16.5056 146.075 17.3107 146.075 20.4939ZM153.477 24.7825L153.478 30.745V30.7556C153.478 30.9735 153.302 31.1502 153.084 31.1502L153.07 31.1489L149.942 31.1502H149.937C149.722 31.1502 149.546 30.9735 149.546 30.7556V30.745V28.0387V27.9976V27.955V25.2514H149.539V20.4355C149.539 19.7459 149.469 19.2889 149.329 19.0631C149.22 18.8837 149.007 18.7788 148.668 18.7402C148.396 18.711 148.099 18.7562 147.841 18.6512C147.659 18.5755 147.529 18.4014 147.518 18.1929C147.509 17.9949 147.628 17.7943 147.807 17.6986L148.089 17.6309C148.875 17.5206 149.616 17.3851 150.312 17.239C150.801 17.138 151.676 17.0516 152.873 16.758C153.149 16.6982 153.43 16.7261 153.46 17.0317C153.497 18.0786 153.98 18.3536 155.316 17.4808C155.853 17.1367 156.363 16.9387 156.791 16.7886C157.221 16.6371 157.684 16.5614 158.178 16.5614C159.51 16.5614 160.537 16.9547 161.256 17.7398C161.975 18.525 162.336 19.5639 162.336 20.8539C162.336 22.4163 162.343 23.814 162.348 25.2514H162.34L162.341 27.9524C162.341 28.9023 162.433 30.0382 163.562 30.0967H163.582L163.663 30.102L163.683 30.1033L163.682 30.106C163.924 30.1525 164.108 30.3491 164.108 30.6228C164.108 30.8964 163.873 31.1661 163.582 31.1489L163.541 31.1475H160.448L160.343 31.1502C159.278 31.1502 158.403 30.276 158.403 29.1986L158.409 29.0657V25.2514C158.405 24.0544 158.403 22.8587 158.403 21.6617C158.403 20.757 158.204 20.0914 157.808 19.6596C157.41 19.2305 156.878 19.0139 156.212 19.0139C155.657 19.0139 155.09 19.1773 154.509 19.5002C153.799 19.8894 153.489 20.5869 153.477 21.1914C153.482 22.3884 153.48 23.5854 153.477 24.7825ZM129.711 10.0249C130.378 10.0249 130.937 10.2521 131.388 10.7025C131.839 11.1555 132.064 11.7149 132.064 12.3818C132.064 13.0275 131.839 13.5762 131.388 14.0279C130.937 14.4796 130.378 14.7054 129.711 14.7054C129.088 14.7054 128.54 14.4796 128.068 14.0279C127.594 13.5762 127.358 13.0275 127.358 12.3818C127.358 11.7361 127.59 11.1808 128.051 10.7198C128.514 10.2574 129.067 10.0249 129.711 10.0249ZM130.119 31.1475L130.016 31.1502C128.95 31.1502 128.075 30.276 128.075 29.1986L128.08 29.0657V20.8194C128.08 19.9505 128.202 19.0471 127.241 18.8027C127.033 18.7495 126.664 18.7216 126.486 18.6366C126.303 18.5489 126.181 18.3629 126.183 18.149C126.184 17.9444 126.317 17.7465 126.506 17.6588C126.64 17.595 126.835 17.5844 126.977 17.5645C127.637 17.4622 128.264 17.3639 128.854 17.2363C129.696 17.0543 130.586 16.9002 131.424 16.6943C131.7 16.6345 131.98 16.6624 132.009 16.9679L132.013 27.9524C132.013 28.9023 132.104 30.0382 133.235 30.0967H133.253L133.334 30.1033H133.354V30.106C133.597 30.1525 133.779 30.3504 133.779 30.6228C133.779 30.8964 133.544 31.1661 133.253 31.1502L133.212 31.1475H130.119ZM124.32 19.6968C124.325 19.7273 124.328 19.6038 124.328 19.7924C124.328 19.9811 124.26 20.3185 123.882 20.3797C123.504 20.4408 123.261 20.2149 123.173 19.9705C122.726 18.7575 121.79 17.8156 120.335 17.8156C119.82 17.8156 119.019 17.9989 118.654 18.3642C118.288 18.7296 118.105 19.16 118.105 19.6556C118.105 20.1073 118.316 20.5324 118.734 20.9297C120.119 22.2449 122.555 22.2343 124.074 23.6572C124.912 24.4317 125.332 25.4335 125.332 26.6597C125.332 28.1862 124.687 29.3925 123.398 30.2734C122.259 31.0492 120.915 31.4358 119.368 31.4358C118.487 31.4358 117.664 31.307 116.903 31.0492C116.215 30.8167 115.689 30.5391 115.324 30.2189V30.2176L115.161 29.9718V29.9691C115.068 29.6649 114.971 29.1202 114.871 28.3377C114.818 27.9165 114.777 27.5326 114.747 27.1871L114.745 26.9546C114.786 26.6597 115.044 26.4272 115.35 26.4272C115.612 26.4272 115.836 26.5906 115.926 26.8191C116.694 28.8478 117.723 30.0076 119.787 30.0807C120.388 30.1006 120.878 29.8921 121.255 29.5148C121.63 29.1388 121.819 28.6499 121.819 28.0467C121.819 27.5086 121.625 27.0251 121.239 26.5946C120.851 26.1642 120.228 25.7775 119.368 25.4335C117.412 24.6788 114.922 23.1271 114.905 20.7184C114.889 18.3669 116.742 17.1207 118.811 16.665C120.391 16.317 121.996 16.5627 123.504 17.1739L123.589 17.2111L123.751 17.3705L123.818 17.5432C123.904 17.7996 124.007 18.1743 124.123 18.6632C124.245 19.1813 124.23 19.1933 124.32 19.6968ZM107.888 26.6225L107.887 24.1727V24.1567V24.1421C107.887 23.7993 107.61 23.5217 107.267 23.5217C107.147 23.5217 107.035 23.5562 106.94 23.616L105.726 24.3042C104.577 24.9578 103.973 26.0047 103.997 27.0915C104.019 28.1676 104.871 29.0431 105.937 29.0431C106.772 29.0431 107.486 28.5157 107.764 27.7744C107.906 27.3917 107.888 27.0211 107.888 26.6225ZM111.692 20.4939V27.7079C111.692 28.3536 111.773 28.8213 111.934 29.1122C112.07 29.358 112.24 29.4988 112.446 29.536C112.779 29.5905 113.032 29.8788 113.032 30.2255C113.032 30.4846 112.89 30.7091 112.681 30.83L112.682 30.8313C112.093 31.1715 111.391 31.4292 110.66 31.4372C109.998 31.4372 109.439 31.2777 108.992 30.9788C108.485 30.6414 108.232 30.0568 107.526 30.0568C106.914 30.0568 106.5 30.5723 106.04 30.8938C105.556 31.2339 105.07 31.4372 104.294 31.4372C103.118 31.4372 102.151 31.0213 101.388 30.1936C100.631 29.3646 100.248 28.4559 100.248 27.4661C100.248 25.8519 101.076 24.7121 102.731 24.0451C103.656 23.6798 104.582 23.3091 105.503 22.9159C106.19 22.6222 106.75 22.3672 107.18 22.1493L107.184 22.1466C107.599 21.9566 107.888 21.5355 107.888 21.0492V21.0027V20.5909C107.888 19.1228 107.449 17.8793 106.174 17.8302C103.9 17.7425 103.71 19.7048 103.427 21.1662C103.321 21.7095 102.861 22.0111 102.377 22.0111C102.01 22.0111 101.624 21.8729 101.217 21.5926C100.721 21.2499 100.718 20.8818 100.718 20.4939C100.718 18.2048 103.211 16.4206 106.178 16.4604C109.581 16.5056 111.692 17.3107 111.692 20.4939ZM91.5231 31.1515L91.4183 31.1555C90.3529 31.1555 89.4785 30.28 89.4785 29.2039L89.4838 29.071V20.8234C89.4838 19.9558 89.6045 19.0511 88.6439 18.808C88.4356 18.7548 88.0681 18.7256 87.8916 18.6406C87.7085 18.5542 87.5851 18.3669 87.5864 18.153C87.5878 17.9484 87.7204 17.7505 87.9102 17.6628C88.0442 17.6003 88.2379 17.5897 88.3812 17.5684C89.0406 17.4661 89.6682 17.3692 90.2573 17.2416C91.0999 17.0596 91.9902 16.9042 92.8274 16.6996C93.1034 16.6398 93.3834 16.6677 93.4126 16.9719C93.4192 17.2908 93.4271 17.7717 93.4325 17.9856C93.4444 18.4227 93.8371 18.5502 94.1941 18.2155C94.344 18.0733 94.5828 17.8514 94.6783 17.7598C95.1334 17.3705 95.5806 17.0809 96.102 16.8138C96.4085 16.6584 96.7442 16.5641 97.1237 16.5641C97.7473 16.5641 98.2621 16.7567 98.6708 17.1446C99.0781 17.5312 99.2825 17.9949 99.2825 18.5316C99.2825 19.0484 99.1325 19.5227 98.8313 19.9532C98.5301 20.3823 98.1759 20.6733 97.7672 20.8234C97.5961 20.8885 97.4554 20.9204 97.3479 20.9204C97.1555 20.9204 96.9618 20.846 96.7681 20.6945C96.2095 20.2428 95.6721 20.017 95.156 20.017C94.7911 20.017 94.474 20.1193 94.206 20.3239C93.4802 20.8765 93.4152 21.6843 93.4152 22.5V27.9577C93.4152 28.9076 93.5081 30.0422 94.6372 30.102H94.6571L94.7367 30.1073H94.758V30.1113C94.9994 30.1578 95.1825 30.3544 95.1825 30.6281C95.1825 30.9018 94.9477 31.1701 94.6571 31.1542L94.616 31.1515H91.5231ZM61.6349 10.3199C63.3359 10.3212 64.9029 10.2933 66.1767 10.296C67.1094 10.2973 67.8843 10.4116 68.4442 10.4687L68.4588 10.4727C68.6552 10.4926 68.8091 10.6573 68.8118 10.8579L68.8131 10.8646V10.8659L69.0386 13.9774C69.0506 14.1474 69.0625 14.2962 68.9829 14.461C68.8688 14.6961 68.6273 14.8609 68.3487 14.8609C68.0886 14.8609 67.8578 14.7121 67.7384 14.4995L67.6508 14.2803C67.4 13.4898 67.1121 12.9265 66.7923 12.5983C66.32 12.1148 65.1577 11.5501 63.3107 11.5501H62.0529C61.4319 11.5501 61.0591 11.5979 60.9423 11.6949C60.8242 11.7919 60.7645 12.1227 60.7645 12.6794V17.8873C60.7645 18.1397 60.7406 18.4214 60.8136 18.6645C60.9317 19.0551 61.2475 19.3633 61.6482 19.4696C61.8605 19.5254 62.09 19.5095 62.3076 19.5095H63.1183C64.4929 19.5095 65.3248 19.3859 65.6154 19.1388C65.8476 18.9395 66.0427 18.3975 66.1992 17.5113L66.2616 17.2031C66.3518 16.9679 66.5787 16.7992 66.8414 16.7992C67.1174 16.7992 67.3496 16.9772 67.4332 17.2204L67.4318 23.4539C67.3469 23.6904 67.1161 23.8658 66.848 23.8671C66.6052 23.8658 66.3956 23.7249 66.2934 23.5243C66.2364 23.4101 66.2271 23.2825 66.2059 23.1576C66.0599 22.3074 65.8635 21.7733 65.6154 21.5594C65.3036 21.2897 64.4717 21.1555 63.1183 21.1555H62.2346C62.0104 21.1555 61.7981 21.1462 61.5792 21.2206C61.209 21.3455 60.9184 21.6484 60.8096 22.0271C60.7499 22.2356 60.7645 22.4495 60.7645 22.6648L60.7221 26.305C60.7088 27.5299 60.7712 28.3589 60.8667 28.7774C60.9622 29.1959 61.1798 29.5028 61.5274 29.6649C61.7809 29.7818 62.1033 29.8429 62.4788 29.8748C62.8543 29.9067 63.4527 29.9439 64.2674 29.9239C66.8056 29.8615 67.9506 29.2544 68.9696 26.6238C69.0811 26.3794 69.1647 25.9489 69.7233 25.937C70.0603 25.937 70.3429 26.1721 70.4159 26.4843C70.4584 26.669 70.4066 26.8537 70.3734 27.0357C70.2925 27.4768 70.1996 27.9511 70.0975 28.4572C69.8998 29.4457 69.7286 30.1737 69.5919 30.6533L69.5853 30.6639C69.5349 30.8061 69.4062 30.9111 69.2509 30.9257L69.2456 30.927C68.7467 31.0519 68.1019 31.1117 67.2859 31.1143C65.8304 31.117 63.9396 31.1808 61.8645 31.1927C59.6394 31.2047 57.5841 31.2312 56.0609 31.2087C55.2051 31.194 54.4926 31.0705 54.0361 30.9987L54.0388 30.9934L53.9141 30.9562C53.731 30.8725 53.6063 30.6905 53.6076 30.478C53.6076 30.2534 53.7509 30.0608 53.9512 29.9851C54.0773 29.9399 54.2378 29.9545 54.3705 29.9439C55.2263 29.8761 55.7942 29.6729 56.041 29.3434C56.3515 28.9262 56.508 27.8328 56.508 26.0672L56.5744 15.3896C56.585 13.6466 56.4324 12.5598 56.1551 12.1307C55.9375 11.7946 55.4492 11.59 54.6929 11.5169L54.3626 11.4797C54.1503 11.4133 53.995 11.2127 53.995 10.9762C53.995 10.7437 54.1476 10.5457 54.3559 10.478L54.4488 10.4567V10.4554C54.8256 10.3916 55.3683 10.3252 56.0383 10.3079C57.4567 10.2747 59.447 10.3186 61.6349 10.3199ZM198.127 26.8205L198.125 24.3706V24.3547V24.3401C198.125 23.9973 197.848 23.7196 197.505 23.7196L197.177 23.8126L195.963 24.5021C194.814 25.1545 194.211 26.2027 194.235 27.2894C194.257 28.3656 195.109 29.2411 196.174 29.2411C197.009 29.2411 197.724 28.7123 198.001 27.9723C198.143 27.5884 198.127 27.219 198.127 26.8205ZM201.932 20.6932V27.9059C201.932 28.5516 202.011 29.0192 202.172 29.3102C202.308 29.5559 202.479 29.6981 202.685 29.7353C203.017 29.7884 203.27 30.0767 203.27 30.4235C203.27 30.6825 203.128 30.9071 202.919 31.028L202.92 31.0293C202.331 31.3681 201.629 31.6271 200.899 31.6338C200.236 31.6338 199.677 31.4744 199.231 31.1781C198.723 30.8406 198.47 30.2548 197.764 30.2548C197.152 30.2548 196.738 30.7702 196.278 31.0931C195.794 31.4305 195.308 31.6338 194.533 31.6338C193.356 31.6338 192.389 31.2206 191.626 30.3916C190.868 29.5626 190.488 28.6539 190.488 27.6641C190.488 26.0499 191.314 24.91 192.969 24.2431C193.894 23.8777 194.82 23.5057 195.741 23.1138C196.428 22.8202 196.988 22.5638 197.419 22.3472L197.422 22.3446C197.837 22.1533 198.127 21.7348 198.127 21.2472L198.126 21.1994V20.7902C198.126 19.3208 197.687 18.0773 196.412 18.0281C194.139 17.9404 193.948 19.904 193.665 21.3641C193.559 21.9075 193.1 22.2091 192.615 22.2091C192.25 22.2091 191.861 22.0709 191.455 21.7906C190.959 21.4478 190.956 21.0798 190.956 20.6932C190.956 18.4028 193.449 16.6185 196.416 16.6584C199.821 16.7036 201.932 17.5087 201.932 20.6932ZM209.333 24.8794L209.335 30.8406V30.8526C209.335 31.0692 209.159 31.2459 208.941 31.2459H208.925H205.798H205.794C205.579 31.2459 205.401 31.0692 205.401 30.8526L205.403 30.8406L205.401 28.1344V28.0932V28.0507V25.3484H205.395V20.5311C205.395 19.8429 205.326 19.3859 205.186 19.1587C205.077 18.9807 204.862 18.8731 204.524 18.8359C204.252 18.8067 203.955 18.8518 203.698 18.7455C203.514 18.6711 203.386 18.4971 203.375 18.2885C203.366 18.0906 203.484 17.8913 203.663 17.7943L203.946 17.7279C204.731 17.6163 205.472 17.4808 206.168 17.336C206.656 17.2337 207.532 17.1473 208.73 16.8537C209.005 16.7939 209.286 16.8231 209.315 17.1274C209.354 18.1743 209.835 18.4506 211.173 17.5764C211.71 17.2323 212.218 17.0344 212.648 16.8842C213.078 16.7341 213.54 16.6584 214.034 16.6584C215.367 16.6584 216.393 17.0516 217.113 17.8355C217.832 18.6207 218.192 19.6596 218.192 20.9509C218.192 22.5133 218.198 23.9096 218.205 25.3484H218.197V28.048C218.197 28.9979 218.29 30.1339 219.419 30.1936H219.439L219.517 30.199H219.539V30.2016C219.781 30.2481 219.964 30.4447 219.964 30.7184C219.964 30.9934 219.728 31.2618 219.439 31.2459L219.398 31.2432H216.304L216.2 31.2459C215.133 31.2459 214.259 30.3703 214.259 29.2942L214.264 29.1614V25.3484C214.262 24.1501 214.259 22.9544 214.259 21.7574C214.259 20.8539 214.061 20.187 213.663 19.7566C213.267 19.3261 212.733 19.1109 212.069 19.1109C211.514 19.1109 210.946 19.2716 210.366 19.5971C209.655 19.9851 209.346 20.6826 209.333 21.2871C209.338 22.4854 209.337 23.6811 209.333 24.8794ZM221.539 14.3945C221.539 19.7978 221.542 25.4401 221.542 30.8433V30.8553C221.542 31.0718 221.716 31.2459 221.931 31.2459H221.934H225.033H225.048C225.264 31.2459 225.438 31.0705 225.438 30.8553V30.8433C225.438 29.0285 225.446 27.2084 225.455 25.3896C225.458 24.7692 226.019 24.6483 226.305 25.1199L229.725 30.0156C230.185 30.6746 230.537 31.1754 231.465 31.1967L231.568 31.194H235.273L235.315 31.1967C235.596 31.2126 235.827 30.9456 235.827 30.6746C235.827 30.4036 235.648 30.2096 235.411 30.1631V30.1604L235.392 30.1591L235.315 30.1538H235.295C234.257 30.1179 233.323 28.8279 232.402 27.7C231.988 27.1951 230.165 24.7519 229.186 23.3955C228.552 22.6369 228.812 22.2064 229.458 21.5607L231.631 19.3049C233.047 17.7279 233.919 18.2792 233.921 17.4276C233.932 17.1247 233.684 16.8444 233.197 16.8656C232.015 16.8603 230.33 16.8338 229.408 16.8749C228.684 16.8749 228.67 17.8421 229.289 17.971C230.08 18.1225 229.77 18.812 229.457 19.2052C228.517 20.4527 227.577 21.7016 226.636 22.9491C226.331 23.3676 226.056 23.4924 225.825 23.4127C225.647 23.3503 225.476 23.1962 225.468 22.7378C225.489 18.7615 225.537 14.546 225.467 10.579C225.438 10.276 225.16 10.2495 224.887 10.3079C224.058 10.5112 223.141 10.664 222.306 10.8447C221.721 10.9722 221.1 11.0679 220.447 11.1688C220.305 11.1901 220.113 11.2007 219.979 11.2618C219.792 11.3508 219.661 11.5461 219.659 11.7481C219.658 11.9606 219.779 12.1453 219.961 12.2317C220.137 12.3154 220.501 12.3446 220.708 12.3964C221.659 12.6382 221.539 13.5336 221.539 14.3945Z" fill="white"/>
<g id="g3133">
<path id="path3135" d="M18.4526 39.3364C19.2527 39.646 20.1045 39.8014 20.959 39.8027C21.8135 39.8027 22.668 39.65 23.4707 39.3404C32.7001 34.0342 40.2684 20.9599 40.7553 10.3568C40.2206 1.72121 27.2853 1.16057 20.9643 1.1991C14.7733 1.16057 1.69605 1.90987 1.17328 10.3608C1.66288 20.9599 9.22715 34.0289 18.4526 39.3364Z" fill="#FB255B"/>
<g id="g3137">
<path id="path3139" d="M21.4048 1.82779C21.1846 1.82779 20.971 1.82779 20.7613 1.82912C20.6101 1.82912 20.4535 1.82779 20.2943 1.82779C14.2121 1.82779 2.45634 2.56381 1.96674 10.1578C2.18832 14.7718 3.3692 19.7552 6.22454 24.4277C11.6473 15.8971 40.3361 10.1777 38.789 7.3426C35.7412 2.29677 26.9125 1.82779 21.4048 1.82779Z" fill="#EB7A8C"/>
<g id="g3141">
<path id="path3143" d="M20.8919 31.021L20.9383 30.9692C25.0979 26.4069 28.3434 22.8464 32.503 18.2855C33.79 16.8746 34.6564 16.1147 33.4464 14.6413L30.9254 11.5737L24.7463 9.97413H20.8919H17.0388L10.8597 11.5737C9.91235 12.7256 9.23699 13.5466 8.29096 14.6984C7.39136 15.7905 8.21931 17.0779 9.17197 18.1234L20.8468 30.9692L20.8919 31.021Z" fill="white"/>
<g id="g3145">
<path id="path3147" d="M30.7759 12.1023C29.4544 13.0256 27.8011 13.4269 26.1227 13.7816C26.9931 13.7045 27.4469 13.6647 28.3186 13.5863C28.8865 13.5358 29.3243 13.4641 29.7224 13.8679L31.645 15.8076C31.2549 15.0995 30.8648 14.3901 30.4747 13.6806C30.2319 13.2382 30.2239 13.2502 30.4428 12.7958C30.5543 12.566 30.6658 12.3335 30.7759 12.1023Z" fill="#FC255C"/>
<g id="g3149">
<path id="path3151" d="M10.5159 17.6526C11.5442 17.8811 11.7088 17.917 12.737 18.1455C13.4124 18.2943 14.4805 18.1521 14.7843 17.5317L15.8856 15.2838C15.7901 16.8183 14.9635 18.6756 16.7255 19.029L19.963 20.1609C18.5539 20.0493 17.2629 19.6707 16.6777 20.0054C15.9891 20.3974 16.4031 21.0457 16.6087 21.524L19.4946 28.2212C17.6609 24.8639 16.0608 22.2786 13.7587 20.0798C12.822 19.1871 11.7273 18.5613 10.5159 17.6526Z" fill="#FC255C"/>
<g id="g3153">
<path id="path3155" d="M11.0087 12.1023C12.1538 12.9326 13.8986 13.3644 15.6633 13.7816C14.7703 13.7032 13.8773 13.6235 12.9857 13.5438C12.4324 13.4946 12.4337 13.4946 12.041 13.8905L10.1396 15.8076C10.5563 15.0503 10.9716 14.2917 11.3895 13.5331C11.558 13.2289 11.5527 13.2409 11.4041 12.9273C11.2714 12.6523 11.1388 12.3786 11.0087 12.1023Z" fill="#FC255C"/>
<g id="g3157">
<path id="path3159" d="M20.9285 18.2768L20.8874 18.4521L20.8556 18.2768C20.6857 17.4783 20.5146 16.6785 20.3434 15.8801C20.1444 14.9421 20.2213 14.9621 19.3071 14.6844C18.5057 14.4399 17.7057 14.1968 16.9056 13.955C19.5632 14.4147 22.2209 14.4147 24.8785 13.955C21.2045 15.071 21.7326 14.5077 20.9285 18.2768Z" fill="#FC255C"/>
<g id="g3161">
<path id="path3163" d="M31.562 17.6526C30.5324 17.8811 30.3705 17.917 29.3409 18.1455C28.6655 18.2943 27.5974 18.1521 27.2936 17.5317L26.1937 15.2838C26.2879 16.8183 27.1158 18.6756 25.3538 19.029L22.1163 20.1609C23.5241 20.0493 24.8151 19.6707 25.4002 20.0054C26.0888 20.3974 25.6749 21.0457 25.4692 21.524L22.5833 28.2212C24.417 24.8639 26.0185 22.2786 28.3192 20.0798C29.256 19.1871 30.3506 18.5613 31.562 17.6526Z" fill="#FC255C"/>
</g>
</g>
</g>
</g>
</g>
</g>
</g>
</g>
</g>
</g>
</g>
</g>
</svg>
