<svg width="134" height="42" viewBox="0 0 134 42" fill="none" xmlns="http://www.w3.org/2000/svg">
<g id="Danone_dairy_logo 1" opacity="0.5" clip-path="url(#clip0_151_1433)">
<path id="path846" d="M65.491 41.9712C59.1038 41.7396 52.5423 40.1884 45.8343 37.324C43.1044 36.1583 40.2171 34.7142 37.2791 33.0452C35.3414 31.9444 30.9058 29.2407 30.6589 29.0098C30.5035 28.8646 30.4427 28.7284 30.4427 28.5257C30.4427 28.1505 30.7134 27.8825 31.0918 27.8831C31.2879 27.8834 31.3353 27.904 31.7985 28.1899C33.6574 29.3374 36.2287 30.6372 38.7341 31.6959C50.4025 36.6266 64.2263 38.358 77.4961 36.5508C86.5584 35.3166 95.2692 32.4287 102.064 28.4058C103.044 27.8254 103.135 27.7949 103.429 27.9456C103.834 28.1538 103.922 28.6635 103.606 28.9753C103.482 29.0979 103.33 29.1952 101.099 30.5743C95.1506 34.2524 90.348 36.6808 85.3475 38.5387C78.6217 41.0378 71.8816 42.2029 65.491 41.9712Z" fill="white"/>
<path id="path4280" fill-rule="evenodd" clip-rule="evenodd" d="M0 0.649142C0 0.649142 0.125772 1.04336 0.247431 2.16372C0.393277 4.95467 0.401008 7.26809 0.417866 9.84758C0.451446 11.8395 0.431802 13.7804 0.414516 15.6495C0.402858 16.9152 0.394067 17.6051 0.394067 18.7559C0.394067 22.1804 0.121324 24.5806 0.121324 24.5806C0.121324 24.5806 2.66353 25.1253 6.50073 25.1253C10.3393 25.1253 14.412 23.8025 16.7621 21.8177C19.1117 19.8331 21.2261 16.9921 21.2261 11.895C21.2261 6.79765 19.0333 3.99574 16.1355 2.16716C13.237 0.337747 8.81169 -0.0118985 5.40423 0.143484C1.99761 0.299496 0.11788 0.649142 0 0.649142ZM133.464 19.8331L128.337 18.6271C126.992 19.9494 125.539 20.6066 123.673 20.5723C119.83 20.5023 117.921 18.2518 117.211 14.5407H133.736C133.971 13.2178 134.049 11.8169 133.971 10.494C133.814 7.8219 132.988 5.36251 131.308 3.25659C129.645 1.17165 126.784 0.07824 123.247 0.104394C119.925 0.129428 117.21 1.26046 115.061 3.52918C113.041 5.66048 111.832 8.91069 111.889 13.1399C111.943 17.1577 112.972 20.1491 115.492 22.596C117.246 24.2995 119.604 25.2094 122.698 25.2028C128.592 25.0262 131.041 23.1386 133.464 19.8331ZM129.267 10.4166H117.405C117.614 7.36792 120.423 4.52847 123.399 4.54253C126.48 4.55658 129.125 6.7459 129.267 10.4166ZM77.2479 4.71748C81.1711 4.71748 84.3525 8.2463 84.3525 12.5977C84.3525 16.9491 81.1711 20.4781 77.2479 20.4781C73.3261 20.4781 70.1442 16.9491 70.1442 12.5977C70.1442 8.2463 73.3261 4.71748 77.2479 4.71748ZM77.4007 0C83.984 0 89.322 5.68327 89.322 12.5977C89.322 19.5122 83.8312 25.1194 77.2479 25.1194C70.666 25.1194 65.3274 19.5122 65.3274 12.5977C65.3274 5.68327 70.8188 0 77.4007 0ZM90.355 24.2692H95.6771V8.27581C100.547 12.5176 104.135 17.849 106.288 24.2692L110.86 24.2963V0.804526L105.764 0.804533L105.759 12.3138C104.163 9.66273 102.21 7.48234 100.289 5.60271C98.3649 3.72015 96.8023 2.12609 94.8547 0.804533H90.355L90.355 24.2692ZM43.8623 24.2692H49.0318V8.27581C53.9011 12.5176 57.4135 17.849 59.5673 24.2692H64.1883V0.804525H59.0182V12.1263C56.0144 7.82602 52.3753 3.96344 48.21 0.804525H43.8623V24.2692ZM29.0983 0.804525H34.1112C38.9788 6.15543 41.9583 13.9381 42.9622 24.2692H37.518C37.3766 22.4749 37.1559 20.8258 36.8567 19.17H26.1098C25.8114 20.8232 25.5927 22.4721 25.4561 24.2692H20.169C21.1227 13.8759 24.3176 5.83418 29.0983 0.804525ZM35.8536 14.7748C34.685 11.0663 33.2937 8.01553 31.4106 5.20174C29.5396 8.02644 28.0763 11.2109 27.0421 14.7748H35.8536ZM5.44979 4.73496C5.44979 4.73496 6.5007 4.69587 7.79363 4.69587C9.08635 4.69587 11.9099 4.92944 13.9851 6.95303C16.0605 8.9767 16.0998 11.2722 16.0998 12.8681C16.0998 14.4634 15.548 17.9264 12.1405 19.4827C8.73368 21.0397 5.41067 20.4559 5.41067 20.4559L5.44979 4.73496Z" fill="white"/>
</g>
<defs>
<clipPath id="clip0_151_1433">
<rect width="134" height="42" fill="white"/>
</clipPath>
</defs>
</svg>
