<svg width="159" height="38" viewBox="0 0 159 38" fill="none" xmlns="http://www.w3.org/2000/svg">
<g id="Layer_1" opacity="0.5" clip-path="url(#clip0_151_1436)">
<g id="Group">
<path id="Vector" d="M19.0385 14.5552C25.5776 14.5552 30.8727 19.7623 30.8727 26.1926C30.8727 32.623 25.5776 37.8301 19.0385 37.8301" stroke="white" stroke-width="0.5" stroke-miterlimit="10"/>
<path id="Vector_2" d="M19.0385 14.5355C15.0073 14.5355 11.7411 11.3236 11.7411 7.35941C11.7411 3.39521 15.0073 0.176758 19.0385 0.176758" stroke="white" stroke-width="0.5" stroke-miterlimit="10"/>
<path id="Vector_3" d="M38.4761 19.0033C38.4761 29.4044 29.9015 37.843 19.3179 37.843C8.73429 37.843 0.166304 29.4044 0.166304 19.0033C0.166304 8.6022 8.74094 0.163574 19.3245 0.163574C29.9081 0.163574 38.4828 8.59566 38.4828 19.0033H38.4761Z" stroke="white" stroke-width="0.5" stroke-miterlimit="10"/>
<path id="Vector_4" d="M19.0385 0.176758V37.8366" stroke="white" stroke-width="0.5" stroke-miterlimit="10"/>
<path id="Vector_5" d="M30.8727 26.1924H1.8493" stroke="white" stroke-width="0.5" stroke-miterlimit="10"/>
</g>
<g id="Group_2">
<path id="Vector_6" d="M65.444 10.6431V27.3568" stroke="white" stroke-width="1.6" stroke-miterlimit="10"/>
<path id="Vector_7" d="M158.468 19.003C158.468 23.6148 154.663 27.3566 149.973 27.3566C145.283 27.3566 141.478 23.6148 141.478 19.003C141.478 14.3912 145.283 10.6494 149.973 10.6494C154.663 10.6494 158.468 14.3912 158.468 19.003Z" stroke="white" stroke-width="1.6" stroke-miterlimit="10"/>
<g id="Group_3">
<path id="Vector_8" d="M91.7267 17.0015C94.627 17.0015 96.9752 19.3106 96.9752 22.1628C96.9752 25.0149 94.627 27.3241 91.7267 27.3241C88.8263 27.3241 86.4781 25.0149 86.4781 22.1628" stroke="white" stroke-width="1.6" stroke-miterlimit="10"/>
<path id="Vector_9" d="M91.7267 17.0081C90.0038 17.0081 88.6068 15.6343 88.6068 13.9401C88.6068 12.2458 90.0038 10.8721 91.7267 10.8721" stroke="white" stroke-width="1.6" stroke-miterlimit="10"/>
</g>
<g id="Group_4">
<path id="Vector_10" d="M118.242 10.6431V27.3568" stroke="white" stroke-width="1.6" stroke-miterlimit="10"/>
<path id="Vector_11" d="M123.491 10.8721H112.994" stroke="white" stroke-width="1.6" stroke-miterlimit="10" stroke-linecap="square"/>
</g>
</g>
</g>
<defs>
<clipPath id="clip0_151_1436">
<rect width="159" height="38" fill="white"/>
</clipPath>
</defs>
</svg>
