<svg width="125" height="46" viewBox="0 0 125 46" fill="none" xmlns="http://www.w3.org/2000/svg">
<g id="Royal-Canin-Logo 1" opacity="0.5">
<path id="Vector" d="M54.9327 41.0841H51.5695C51.4574 41.0841 51.4013 40.9742 51.4013 40.9193V30.9778C51.4574 30.813 51.4574 30.5933 51.4013 30.4285C51.2332 29.4948 50.3363 28.8906 49.3834 29.0005C48.4305 29.1653 47.8139 30.0441 47.926 30.9778V43.3909C47.926 43.8853 48.3184 44.3247 48.8789 44.3796H54.9327C54.9888 44.3796 55.0448 44.3796 55.1009 44.3796C55.9978 44.3247 56.6704 43.5557 56.6143 42.6769C56.6143 41.6333 55.8856 41.0291 54.9327 41.0841ZM42.7691 29.8244L33.8004 41.6882C33.5762 41.9629 33.4641 42.2924 33.4641 42.6769C33.4641 43.1712 33.6883 43.7205 34.1928 43.9951C34.9776 44.4894 35.9305 44.3247 36.491 43.6656L38.2287 41.3587H42.4327V42.6769C42.4888 43.6106 43.2735 44.3247 44.1704 44.2697C45.1233 44.2697 45.796 43.5008 45.796 42.6769V30.9229C45.796 30.4285 45.5717 29.9342 45.2354 29.6596C44.5067 29.0005 43.3856 29.0554 42.7691 29.8244ZM42.3767 38.0082H40.8072C40.7511 38.0082 40.6951 37.9533 40.6951 37.8984L42.3767 35.6464C42.3767 35.5915 42.3767 38.0082 42.3767 38.0082ZM37.8363 30.9778C37.8363 30.099 37.1076 29.385 36.2668 29.385C35.8184 29.385 35.3699 29.5497 35.0897 29.8244L31.278 33.7241C31.222 33.779 31.1659 33.779 31.1099 33.779C31.0538 33.779 30.9978 33.779 30.9978 33.7241L27.1861 29.8244C26.9058 29.5497 26.4574 29.33 26.009 29.33C25.1121 29.33 24.4395 30.0441 24.4395 30.8679C24.4395 31.2524 24.6076 31.6918 24.8318 31.9664L29.4843 37.1844L29.5404 42.6769C29.5404 43.5557 30.2691 44.2697 31.1659 44.2697C32.0628 44.2697 32.7915 43.5557 32.7915 42.6769L32.9036 37.2393L37.4439 32.0214C37.7242 31.6918 37.8363 31.3073 37.8363 30.9778ZM18.1614 29.33C13.9574 29.33 10.5381 32.6805 10.5381 36.7999C10.5381 40.9193 13.9574 44.2697 18.1614 44.2697C22.3655 44.2697 25.7847 40.8644 25.7847 36.745C25.7847 32.7354 22.3655 29.385 18.1614 29.33ZM18.1614 40.7545C15.8632 40.7545 14.0695 38.9969 14.0695 36.745C14.0695 34.493 15.8632 32.7354 18.1614 32.7354C20.4596 32.7354 22.2534 34.493 22.2534 36.745C22.2534 38.9969 20.4596 40.7545 18.1614 40.7545ZM98.5986 29.0005C97.7578 29.0554 97.0852 29.7145 97.0852 30.4835V37.459C97.0852 37.5139 97.0291 37.5688 96.9731 37.5688C96.917 37.5688 96.917 37.5688 96.917 37.5139L92.7691 30.3187C92.1525 29.2202 90.6951 28.8906 89.63 29.5497C89.0134 29.9342 88.565 30.6482 88.509 31.3623V42.7867C88.565 43.7205 89.4058 44.3796 90.2466 44.3247C91.0874 44.2697 91.7601 43.6106 91.8161 42.7867V35.8112C91.8161 35.7563 91.8722 35.7014 91.9282 35.7014C91.9843 35.7014 91.9843 35.7014 91.9843 35.7563L96.2444 43.1163C96.8049 44.1599 98.1502 44.4894 99.2152 43.9402C99.9439 43.5557 100.336 42.8417 100.336 42.1276V30.5384C100.28 29.6596 99.5516 28.9456 98.5986 29.0005ZM7.84753 38.173C9.19282 37.3491 10.0897 35.9211 10.0336 34.3832C10.0336 34.3832 10.0336 34.3832 10.0336 34.3282C10.0897 31.6369 7.84753 29.385 5.1009 29.33C3.75561 29.2202 2.35426 29.6596 1.40135 30.5933C0.336323 31.6369 0 32.9551 0 34.3832L0.224215 42.6769C0.224215 43.5557 0.952915 44.2697 1.84978 44.2697C2.74664 44.2697 3.47534 43.5557 3.47534 42.6769L3.53139 38.7223C3.53139 38.6124 3.58744 38.5575 3.69955 38.5575C3.69955 38.5575 3.7556 38.5575 3.81166 38.5575L7.79148 43.8853C8.07175 44.1599 8.40807 44.2697 8.8565 44.2697C9.75336 44.2697 10.426 43.5557 10.4821 42.7318C10.4821 42.5121 10.426 42.2924 10.3139 42.0178L7.84753 38.173ZM4.98879 35.8661C4.87668 35.8661 4.82063 35.8661 4.70852 35.8661C3.7556 35.8112 3.13901 34.9873 3.19507 34.1635C3.25112 33.2297 4.09193 32.6256 4.93273 32.6805C5.04484 32.6805 5.1009 32.6805 5.213 32.6805C6.16592 32.7354 6.78251 33.5593 6.72646 34.3832C6.6704 35.262 5.8296 36.0859 4.98879 35.8661ZM72.7578 39.2715C72.5336 39.2715 72.2533 39.3264 71.9731 39.4363L70.6278 40.3151C70.0112 40.6996 69.2264 40.9193 68.4417 40.9193C66.0874 40.8094 64.3498 38.8321 64.4619 36.6351C64.574 34.493 66.2556 32.8453 68.4417 32.7354C69.2264 32.7354 69.9551 32.9551 70.6278 33.3396L71.917 34.2184C72.1413 34.3282 72.3655 34.3832 72.7018 34.3832C73.5986 34.3832 74.3273 33.6691 74.3273 32.7903C74.3273 32.4608 74.2152 32.0214 73.935 31.7467C72.6457 30.2638 70.7399 29.385 68.6659 29.385C64.4619 29.385 61.0426 32.7354 61.0426 36.8548C61.0426 40.8094 64.1816 44.105 68.2175 44.3247C70.4036 44.3247 72.4215 43.4459 73.935 41.9079C74.1592 41.6333 74.3273 41.3038 74.2713 40.8644C74.4395 39.9856 73.6547 39.2715 72.7578 39.2715ZM103.924 28.9456C102.915 28.9456 102.186 29.7694 102.186 30.6482V42.6769C102.186 43.6655 103.027 44.3796 103.924 44.3796C104.933 44.3796 105.661 43.5557 105.661 42.6769V30.6482C105.661 29.7145 104.933 28.9456 103.924 28.9456ZM78.4193 29.7694C78.0829 29.4399 77.5785 29.2202 77.074 29.2202C76.065 29.2202 75.3363 29.6596 75.3363 30.6482V42.6769C75.3363 43.6106 76.1211 44.2697 77.0179 44.2697C77.9148 44.2697 78.6995 43.5557 78.7556 42.6769V41.3587H82.9596L84.6973 43.6656C84.9776 44.05 85.5381 44.2697 86.0426 44.2697C86.9955 44.2697 87.6682 43.5008 87.6682 42.6769C87.6682 42.3473 87.556 41.9629 87.3318 41.6882L78.4193 29.7694ZM80.4372 37.8984C80.4372 37.9533 80.3812 38.0082 80.3251 38.0082H78.7556V35.5366L80.4372 37.8435C80.4933 37.8435 80.4933 37.8435 80.4372 37.8984ZM117.657 29.0005C116.816 29.0554 116.143 29.7145 116.143 30.4835V37.459C116.143 37.5139 116.087 37.5688 116.031 37.5688C115.975 37.5688 115.975 37.5688 115.919 37.5139L111.827 30.3187C111.211 29.2202 109.753 28.8906 108.688 29.5497C108.072 29.9342 107.623 30.6482 107.567 31.3623V42.7867C107.567 43.7205 108.352 44.4345 109.249 44.4345C110.146 44.4345 110.93 43.6656 110.93 42.7867V35.8112C110.93 35.7563 110.987 35.7014 111.043 35.7014C111.099 35.7014 111.099 35.7014 111.099 35.7563L115.359 43.1163C115.919 44.1599 117.265 44.4894 118.33 43.9402C119.058 43.5557 119.451 42.8417 119.451 42.1276V30.5384C119.339 29.6596 118.554 28.9456 117.657 29.0005ZM123.711 30.3736C123.711 30.3187 123.711 30.3187 123.711 30.2638C123.711 29.8244 123.374 29.7145 122.982 29.7145H122.478C122.309 29.7145 122.253 29.8244 122.253 29.8793V31.3623C122.253 31.527 122.309 31.582 122.478 31.582C122.646 31.582 122.702 31.4721 122.702 31.3623V30.813H122.814L123.094 31.3623C123.15 31.4721 123.206 31.582 123.374 31.582C123.543 31.582 123.599 31.527 123.599 31.4172C123.599 31.3623 123.599 31.3623 123.599 31.3073L123.262 30.813C123.487 30.8679 123.711 30.5933 123.711 30.3736ZM123.038 30.4835H122.702V30.0441H123.038C123.206 30.0441 123.318 30.099 123.318 30.2638C123.318 30.4285 123.206 30.4835 123.038 30.4835ZM122.982 28.8906C121.973 28.8906 121.188 29.7145 121.188 30.6482C121.188 31.582 122.029 32.4058 122.982 32.4058C123.935 32.4058 124.776 31.582 124.776 30.6482C124.72 29.7145 123.935 28.8906 122.982 28.8906ZM122.982 31.9664C122.197 31.9664 121.637 31.4172 121.637 30.6482C121.637 29.8793 122.197 29.33 122.982 29.33C123.767 29.33 124.327 29.8793 124.327 30.6482C124.327 31.3623 123.711 31.9664 122.982 31.9664Z" fill="white"/>
<path id="Vector_2" d="M74.3834 21.3113C70.796 18.7298 65.4148 17.1919 59.8655 17.1919C54.3161 17.1919 48.8789 18.7298 45.3475 21.3113C45.0112 21.531 44.843 21.9154 44.843 22.3548C44.843 23.1238 45.4036 23.673 46.1883 23.673C46.4686 23.673 46.7489 23.5632 47.0291 23.3984C49.4395 21.6408 54.0919 19.7733 59.9776 19.7733C65.8632 19.7733 70.4596 21.6408 72.87 23.3984L72.926 23.4533C73.4865 23.8378 74.3834 23.728 74.7758 23.1238C75.1121 22.5196 75 21.6957 74.3834 21.3113ZM59.8655 20.3226C54.7085 20.3226 49.8318 21.8056 46.8049 24.2772C46.8049 24.2772 46.8049 24.2772 46.7489 24.2772C46.4126 24.6068 46.3565 25.156 46.6368 25.5405C46.8049 25.7602 47.0291 25.8701 47.3655 25.8701C47.5897 25.8701 47.7578 25.8151 47.926 25.6504C50.6166 23.4533 55.1009 22.0802 59.8094 22.0802C64.5179 22.0802 68.9462 23.3984 71.6928 25.6504C72.0852 25.9799 72.7018 25.925 72.9821 25.5405C73.3184 25.156 73.2623 24.5519 72.87 24.2772C69.843 21.8605 64.9664 20.3226 59.8655 20.3226ZM43.1614 10.8205C43.5538 9.22768 42.6009 7.63484 40.9193 7.14051C40.6951 7.08559 40.4148 7.03066 40.1345 7.03066C38.4529 7.03066 37.1076 8.34887 37.1076 9.99663C37.1076 11.6444 38.4529 12.9626 40.1345 12.9626C41.648 13.0725 42.8251 12.1387 43.1614 10.8205ZM59.8655 15.4342C61.5471 15.4342 62.8924 14.116 62.8924 12.4683C62.8924 10.8205 61.5471 9.5023 59.8655 9.5023C58.1839 9.5023 56.8386 10.8205 56.8386 12.4683C56.8386 14.116 58.1278 15.4342 59.8655 15.4342ZM59.8655 7.85454C61.5471 7.85454 62.8924 6.53633 62.8924 4.88857C62.8924 3.24081 61.5471 1.86768 59.8655 1.86768C58.1839 1.86768 56.8386 3.18588 56.8386 4.83365C56.7825 6.53633 58.1278 7.85454 59.8655 7.85454ZM50.8969 10.5459C49.2713 10.9853 48.3184 12.688 48.7668 14.2808C49.1031 15.5441 50.3363 16.4229 51.6816 16.4778H51.7377C51.9619 16.4778 52.2421 16.4229 52.5224 16.368C54.148 15.9286 55.1009 14.2808 54.7085 12.688C54.3722 11.3698 53.139 10.436 51.7377 10.436C51.4013 10.436 51.1771 10.491 50.8969 10.5459ZM47.0852 17.3017C47.4776 15.7089 46.5247 14.0062 44.843 13.6217C44.6188 13.5668 44.3386 13.5119 44.0583 13.5119C43.5538 13.5119 42.9933 13.6766 42.4888 13.8963C41.7601 14.2808 41.2556 14.9948 41.0874 15.7089C40.8632 16.5328 40.9753 17.3017 41.4238 18.0157C41.9283 18.9495 42.9372 19.4438 44.0583 19.4987C44.5628 19.4987 45.1794 19.3889 45.6278 19.1142C46.3565 18.7298 46.917 18.0707 47.0852 17.3017ZM67.2085 16.313C67.4888 16.368 67.713 16.4229 68.0493 16.4229C69.7309 16.4229 71.0762 15.0498 71.0762 13.4569C71.0762 12.0838 70.1233 10.9304 68.8341 10.6008C68.5538 10.5459 68.3296 10.491 67.9933 10.491C66.3117 10.491 64.9664 11.8641 64.9664 13.5119C64.9103 14.7751 65.8632 15.9835 67.2085 16.313ZM69.2265 9.0629C69.4507 9.11783 69.7309 9.17275 70.0673 9.17275C71.7489 9.17275 73.0942 7.79962 73.0942 6.20678C73.0942 4.83365 72.1413 3.68021 70.852 3.35066C70.5717 3.29574 70.3475 3.24081 70.0112 3.24081C68.3296 3.24081 66.9843 4.61394 66.9843 6.2617C66.9843 7.47006 67.9372 8.67842 69.2265 9.0629ZM77.1861 13.9513C76.7377 13.6766 76.1771 13.5668 75.6726 13.5668C73.991 13.5668 72.6457 14.885 72.6457 16.5328C72.6457 16.7525 72.7018 17.0271 72.7578 17.3017C72.926 18.0707 73.4865 18.7298 74.1592 19.1142C75.6166 19.993 77.5224 19.4438 78.3632 18.0157C78.7556 17.3017 78.8677 16.5328 78.6995 15.7089C78.3632 15.0498 77.8587 14.3907 77.1861 13.9513ZM82.5112 9.33753C82.343 8.56857 81.7825 7.90947 81.1099 7.52499C79.6525 6.64618 77.7466 7.19544 76.9058 8.6235C76.5135 9.33753 76.4013 10.1065 76.5695 10.9304C76.7377 11.6993 77.2982 12.3584 77.9709 12.7429C79.4283 13.6217 81.3341 13.1274 82.1749 11.6993C82.6233 10.9304 82.7354 9.99663 82.5112 9.33753ZM49.7197 9.17275C50 9.17275 50.2803 9.11783 50.5605 9.0629C52.1861 8.6235 53.139 6.92081 52.7466 5.3829C52.4103 4.06469 51.1771 3.18588 49.8318 3.18588C49.5516 3.18588 49.3274 3.24081 48.991 3.29574C47.3655 3.73514 46.4126 5.43782 46.8049 6.97573C47.1413 8.23902 48.3184 9.17275 49.7197 9.17275Z" fill="white"/>
</g>
</svg>
