<svg width="160" height="44" viewBox="0 0 160 44" fill="none" xmlns="http://www.w3.org/2000/svg">
<g id="Group 6">
<g id="brandbuilding&#226;&#128;&#168;agency">
<path d="M7.31299 5.19352C10.9254 5.19352 13.2823 7.75684 13.2823 11.2786C13.2823 14.8004 10.9254 17.386 7.31299 17.386C5.70501 17.386 4.31731 16.8288 3.4142 15.692V17.23H0.792975V0.690983H3.54636V6.77609C4.49353 5.72847 5.79312 5.19352 7.31299 5.19352ZM7.00461 15.001C9.03111 15.001 10.4849 13.5076 10.4849 11.2786C10.4849 9.04965 9.03111 7.55623 7.00461 7.55623C4.91204 7.55623 3.50231 9.09423 3.50231 11.2786C3.50231 13.463 4.91204 15.001 7.00461 15.001Z" fill="white"/>
<path d="M18.5148 5.32725V7.06586C19.3078 5.81763 20.6955 5.19352 22.6999 5.19352V7.846C22.4576 7.80142 22.2594 7.77913 22.0612 7.77913C19.9245 7.77913 18.647 9.07194 18.647 11.4569V17.23H15.8936V5.32725H18.5148Z" fill="white"/>
<path d="M34.8833 17.2077L34.8613 17.1854V17.23H32.2621V15.7812C31.5352 16.7619 30.7863 17.386 28.5616 17.386C25.4998 17.386 24.1782 16.1378 24.1782 13.998C24.1782 11.0334 27.1518 10.2756 29.0682 10.2756H32.0859V7.71226H24.5306V5.17123H34.8833V17.2077ZM29.1343 15.3576C30.3237 15.3576 31.3149 14.8004 32.0859 13.5522V12.1256H29.2664C27.8126 12.1256 26.9316 12.7275 26.8875 13.7082C26.8434 14.9341 27.5043 15.3576 29.1343 15.3576Z" fill="white"/>
<path d="M45.0251 5.19352C47.9987 5.19352 49.9371 6.95441 49.9371 10.4093V17.23H47.1837V10.766C47.1837 8.69301 46.1705 7.6231 44.3863 7.6231C42.3598 7.6231 41.1043 8.89362 41.1043 11.2118V17.23H38.3509V5.32725H40.9721V6.86525C41.8752 5.77305 43.2849 5.19352 45.0251 5.19352Z" fill="white"/>
<path d="M62.3043 0.690983H65.0577V17.23H62.4144V15.692C61.5113 16.8288 60.1236 17.386 58.5156 17.386C54.9252 17.386 52.5683 14.8004 52.5683 11.2786C52.5683 7.68997 55.0133 5.19352 58.5156 5.19352C60.0796 5.19352 61.4012 5.72847 62.3043 6.79838V0.690983ZM58.846 15.001C60.9386 15.001 62.3483 13.463 62.3483 11.2786C62.3483 9.09423 60.9386 7.55623 58.846 7.55623C56.7535 7.55623 55.3437 9.09423 55.3437 11.2786C55.3437 13.463 56.7535 15.001 58.846 15.001Z" fill="white"/>
<path d="M75.1796 5.19352C78.7921 5.19352 81.149 7.75684 81.149 11.2786C81.149 14.8004 78.7921 17.386 75.1796 17.386C73.5717 17.386 72.184 16.8288 71.2809 15.692V17.23H68.6596V0.690983H71.413V6.77609C72.3602 5.72847 73.6598 5.19352 75.1796 5.19352ZM74.8713 15.001C76.8978 15.001 78.3515 13.5076 78.3515 11.2786C78.3515 9.04965 76.8978 7.55623 74.8713 7.55623C72.7787 7.55623 71.369 9.09423 71.369 11.2786C71.369 13.463 72.7787 15.001 74.8713 15.001Z" fill="white"/>
<path d="M92.3948 5.32725H95.1482V17.23H92.527V15.7143C91.6459 16.7842 90.2582 17.386 88.7383 17.386C85.5885 17.386 83.6721 15.6028 83.6721 12.1256V5.32725H86.4255V11.7467C86.4255 13.8865 87.4167 14.9341 89.1789 14.9341C91.1393 14.9341 92.3948 13.6636 92.3948 11.3455V5.32725Z" fill="white"/>
<path d="M98.7533 17.23V5.32725H101.507V17.23H98.7533ZM98.4008 0H101.903V3.34347H98.4008V0Z" fill="white"/>
<path d="M105.12 17.23V0.690983H107.874V17.23H105.12Z" fill="white"/>
<path d="M120.254 0.690983H123.008V17.23H120.365V15.692C119.461 16.8288 118.074 17.386 116.466 17.386C112.875 17.386 110.518 14.8004 110.518 11.2786C110.518 7.68997 112.963 5.19352 116.466 5.19352C118.03 5.19352 119.351 5.72847 120.254 6.79838V0.690983ZM116.796 15.001C118.889 15.001 120.299 13.463 120.299 11.2786C120.299 9.09423 118.889 7.55623 116.796 7.55623C114.704 7.55623 113.294 9.09423 113.294 11.2786C113.294 13.463 114.704 15.001 116.796 15.001Z" fill="white"/>
<path d="M126.61 17.23V5.32725H129.363V17.23H126.61ZM126.257 0H129.76V3.34347H126.257V0Z" fill="white"/>
<path d="M139.651 5.19352C142.625 5.19352 144.563 6.95441 144.563 10.4093V17.23H141.81V10.766C141.81 8.69301 140.797 7.6231 139.012 7.6231C136.986 7.6231 135.73 8.89362 135.73 11.2118V17.23H132.977V5.32725H135.598V6.86525C136.501 5.77305 137.911 5.19352 139.651 5.19352Z" fill="white"/>
<path d="M159.838 21.7102H150.587V19.1692H157.041V15.3799C156.005 16.1824 154.684 16.6505 153.252 16.6505C149.904 16.6505 147.172 14.0871 147.172 10.922C147.172 7.75684 149.904 5.19352 153.252 5.19352C154.684 5.19352 155.873 5.32725 157.349 6.88754L157.327 5.32725H159.838V21.7102ZM153.516 14.3323C155.499 14.3323 157.129 12.8166 157.129 10.9666C157.129 9.07194 155.499 7.55623 153.516 7.55623C151.512 7.55623 149.882 9.07194 149.882 10.9666C149.882 12.8166 151.512 14.3323 153.516 14.3323Z" fill="white"/>
<path d="M10.7052 39.4975L10.6831 39.4752V39.5198H8.08394V38.0709C7.35705 39.0517 6.60813 39.6758 4.38339 39.6758C1.32163 39.6758 0 38.4276 0 36.2877C0 33.3232 2.97366 32.5653 4.89001 32.5653H7.90772V30.002H0.352433V27.461H10.7052V39.4975ZM4.95609 37.6474C6.14556 37.6474 7.13678 37.0902 7.90772 35.8419V34.4154H5.08826C3.63447 34.4154 2.75339 35.0172 2.70933 35.998C2.66528 37.2239 3.32609 37.6474 4.95609 37.6474Z" fill="white"/>
<path d="M25.9546 44H16.7032V41.459H23.1572V37.6697C22.1219 38.4721 20.8003 38.9402 19.3685 38.9402C16.0204 38.9402 13.289 36.3769 13.289 33.2118C13.289 30.0466 16.0204 27.4833 19.3685 27.4833C20.8003 27.4833 21.9897 27.617 23.4656 29.1773L23.4435 27.617H25.9546V44ZM19.6328 36.6221C21.6153 36.6221 23.2453 35.1064 23.2453 33.2563C23.2453 31.3617 21.6153 29.846 19.6328 29.846C17.6284 29.846 15.9984 31.3617 15.9984 33.2563C15.9984 35.1064 17.6284 36.6221 19.6328 36.6221Z" fill="white"/>
<path d="M40.6321 33.6353C40.6321 33.8359 40.61 34.1033 40.588 34.46H31.3587C31.6891 36.2209 33.1428 37.3131 35.1693 37.3131C36.4689 37.3131 37.5262 36.8896 38.3633 36.0203L39.8391 37.7366C38.7818 39.0071 37.1297 39.6758 35.1033 39.6758C31.1824 39.6758 28.6053 37.157 28.6053 33.5684C28.6053 30.1803 31.0062 27.4833 34.6847 27.4833C38.187 27.4833 40.6321 29.9574 40.6321 33.6353ZM34.6847 29.7123C32.9226 29.7123 31.6009 30.849 31.3366 32.6099H38.0108C37.7685 30.8936 36.4689 29.7123 34.6847 29.7123Z" fill="white"/>
<path d="M49.9511 27.4833C52.9247 27.4833 54.8631 29.2442 54.8631 32.6991V39.5198H52.1097V33.0557C52.1097 30.9828 51.0965 29.9129 49.3123 29.9129C47.2858 29.9129 46.0302 31.1834 46.0302 33.5015V39.5198H43.2769V27.617H45.8981V29.155C46.8012 28.0628 48.2109 27.4833 49.9511 27.4833Z" fill="white"/>
<path d="M63.8601 39.6758C60.1376 39.6758 57.4943 37.1348 57.4943 33.5684C57.4943 30.002 60.1376 27.4833 63.8601 27.4833C66.173 27.4833 68.0012 28.464 68.8823 30.2472L66.7677 31.4954C66.0849 30.4032 65.0496 29.846 63.8381 29.846C61.7896 29.846 60.2697 31.3171 60.2697 33.5684C60.2697 35.8197 61.7455 37.2908 63.8381 37.2908C65.0496 37.2908 66.0849 36.7335 66.7677 35.6413L68.8823 36.8896C67.9792 38.6727 66.1509 39.6758 63.8601 39.6758Z" fill="white"/>
<path d="M79.4821 27.617H82.1254L75.1208 44H72.5216L74.3719 39.6535L69.1955 27.617H72.059L75.7596 36.4215L79.4821 27.617Z" fill="white"/>
</g>
</g>
</svg>
