<svg width="699" height="596" viewBox="0 0 699 596" fill="none" xmlns="http://www.w3.org/2000/svg">
<mask id="mask0_169_87" style="mask-type:alpha" maskUnits="userSpaceOnUse" x="0" y="0" width="699" height="596">
<rect width="699" height="596" fill="white" fill-opacity="0.03"/>
<rect width="699" height="596" fill="black" fill-opacity="0.75"/>
</mask>
<g mask="url(#mask0_169_87)">
<path d="M910.706 780.637C901.376 796.796 880.466 805.457 850.26 807.037C820.093 808.616 780.878 803.115 735.294 791.204C644.138 767.385 527.683 717.981 407.553 648.623C287.423 579.266 186.41 503.116 120.204 436.081C87.097 402.56 62.7253 371.35 49.0087 344.435C35.2746 317.485 32.32 295.046 41.6495 278.887C50.9791 262.727 71.8898 254.066 102.096 252.486C132.263 250.907 171.478 256.408 217.061 268.319C308.218 292.138 424.673 341.542 544.803 410.9C664.933 480.257 765.946 556.407 832.152 623.442C865.258 656.963 889.63 688.174 903.347 715.088C917.081 742.038 920.036 764.477 910.706 780.637Z" stroke="white" stroke-width="1.5"/>
<path d="M1122.75 9.49177C1127.58 27.5151 1118.92 48.4255 1098.67 70.9018C1078.46 93.3494 1046.84 117.189 1006.19 140.999C924.886 188.614 807.605 236.026 673.618 271.928C539.63 307.829 414.357 325.41 320.141 324.824C273.028 324.531 233.726 319.695 204.995 310.363C176.227 301.018 158.271 287.24 153.441 269.217C148.612 251.193 157.274 230.283 177.515 207.807C197.73 185.359 229.349 161.52 270.004 137.71C351.304 90.0944 468.584 42.6828 602.572 6.78091C736.559 -29.121 861.833 -46.7014 956.048 -46.1154C1003.16 -45.8224 1042.46 -40.9866 1071.19 -31.654C1099.96 -22.3095 1117.92 -8.53156 1122.75 9.49177Z" stroke="white" stroke-width="1.5"/>
</g>
</svg>
