<svg width="1920" height="175" viewBox="0 0 1920 175" fill="none" xmlns="http://www.w3.org/2000/svg">
<path d="M-296.411 174.107C-305.663 174.592 -311.409 169.51 -311.919 159.779L-312.911 140.845L-306.679 140.518L-305.7 159.213C-305.356 165.78 -302.354 168.939 -296.65 168.64C-290.994 168.344 -288.339 164.888 -288.683 158.321L-289.663 139.627L-283.527 139.305L-282.535 158.239C-282.025 167.97 -287.16 173.622 -296.411 174.107Z" fill="white"/>
<path d="M-254.299 171.419L-263.742 160.907L-267.979 165.359L-267.625 172.118L-273.617 172.432L-275.481 136.865L-269.489 136.551L-268.364 158.025L-256.552 145.87L-249.361 145.493L-259.488 156.791L-247.013 171.038L-254.299 171.419Z" fill="white"/>
<path d="M-239.014 144.951L-238.818 148.69C-237.234 145.915 -234.284 144.415 -229.922 144.186L-229.623 149.89C-230.155 149.822 -230.589 149.797 -231.021 149.82C-235.67 150.063 -238.305 152.989 -238.036 158.118L-237.385 170.533L-243.377 170.847L-244.719 145.25L-239.014 144.951Z" fill="white"/>
<path d="M-202.055 168.633L-202.106 168.588L-202.101 168.684L-207.757 168.98L-207.92 165.865C-209.391 168.057 -210.951 169.484 -215.792 169.738C-222.455 170.087 -225.472 167.553 -225.713 162.952C-226.047 156.576 -219.661 154.608 -215.491 154.389L-208.924 154.045L-209.213 148.532L-225.654 149.394L-225.941 143.93L-203.412 142.749L-202.055 168.633ZM-214.774 165.31C-212.186 165.175 -210.092 163.863 -208.555 161.091L-208.716 158.023L-214.851 158.345C-218.015 158.511 -219.864 159.905 -219.85 162.02C-219.807 164.661 -218.322 165.496 -214.774 165.31Z" fill="white"/>
<path d="M-194.507 168.286L-195.848 142.689L-189.856 142.375L-188.515 167.972L-194.507 168.286ZM-197.216 131.273L-189.594 130.873L-189.217 138.064L-196.839 138.463L-197.216 131.273Z" fill="white"/>
<path d="M-167.483 140.914C-161.012 140.575 -156.595 144.141 -156.206 151.57L-155.437 166.238L-161.429 166.552L-162.158 152.651C-162.391 148.194 -164.717 146.008 -168.599 146.212C-173.009 146.443 -175.598 149.318 -175.337 154.303L-174.659 167.246L-180.651 167.56L-181.992 141.963L-176.288 141.664L-176.115 144.971C-174.272 142.52 -171.27 141.112 -167.483 140.914Z" fill="white"/>
<path d="M-124.203 151.912C-124.18 152.343 -124.198 152.921 -124.205 153.691L-144.29 154.743C-143.372 158.492 -140.086 160.675 -135.676 160.444C-132.848 160.296 -130.594 159.265 -128.871 157.3L-125.466 160.822C-127.624 163.675 -131.143 165.302 -135.553 165.533C-144.086 165.98 -149.978 160.857 -150.382 153.14C-150.764 145.854 -145.843 139.78 -137.838 139.36C-130.217 138.961 -124.617 144.003 -124.203 151.912ZM-137.587 144.154C-141.422 144.355 -144.17 146.95 -144.546 150.767L-130.022 150.006C-130.743 146.343 -133.704 143.95 -137.587 144.154Z" fill="white"/>
<path d="M-103.474 172.84L-105.825 127.973L-100.313 127.684L-97.9614 172.551L-103.474 172.84Z" fill="white"/>
<path d="M-61.7491 161.809C-71.0004 162.294 -76.7463 157.212 -77.2562 147.481L-78.2485 128.547L-72.0171 128.22L-71.0373 146.915C-70.6932 153.482 -67.6917 156.641 -61.9875 156.342C-56.3313 156.046 -53.6765 152.59 -54.0207 146.023L-55.0004 127.329L-48.8648 127.007L-47.8725 145.941C-47.3626 155.672 -52.4978 161.324 -61.7491 161.809Z" fill="white"/>
<path d="M-13.9639 158.824L-17.7263 151.235L-34.5033 152.114L-37.4038 160.052L-43.827 160.389L-30.4862 126.044L-24.3506 125.722L-7.44491 158.482L-13.9639 158.824ZM-32.6504 147.114L-20.0437 146.453L-27.1398 132.117L-32.6504 147.114Z" fill="white"/>
<path d="M2.78002 152.707L21.714 151.715L21.9878 156.94L-3.17763 158.259L-4.93612 124.705L19.5583 123.421L19.8321 128.646L1.56917 129.603L2.02638 138.327L18.2281 137.478L18.4969 142.607L2.29517 143.456L2.78002 152.707Z" fill="white"/>
<path d="M42.6693 165.181L40.318 120.314L45.8305 120.025L48.1818 164.892L42.6693 165.181Z" fill="white"/>
<path d="M93.3327 153.201L80.7569 139.777L75.7226 145.52L76.1722 154.1L69.9408 154.427L68.1823 120.873L74.4138 120.546L75.3156 137.755L90.999 119.677L97.9974 119.31L84.691 135.052L100.619 152.819L93.3327 153.201Z" fill="white"/>
<path d="M125.246 151.48L125.195 151.435L125.2 151.531L119.544 151.827L119.381 148.711C117.909 150.903 116.35 152.331 111.509 152.585C104.846 152.934 101.829 150.4 101.588 145.799C101.254 139.423 107.64 137.454 111.81 137.236L118.377 136.892L118.088 131.379L101.647 132.241L101.36 126.776L123.889 125.596L125.246 151.48ZM112.526 148.157C115.115 148.022 117.209 146.71 118.746 143.938L118.585 140.87L112.45 141.192C109.286 141.358 107.437 142.752 107.451 144.866C107.494 147.508 108.979 148.343 112.526 148.157Z" fill="white"/>
<path d="M138.055 146.05L152.532 145.292L152.783 150.085L130.685 151.243L130.487 147.456L143.64 129.704L129.882 130.425L129.631 125.631L151.058 124.508L151.256 128.295L138.055 146.05Z" fill="white"/>
<path d="M179.874 148.617L179.823 148.572L179.828 148.668L174.172 148.964L174.009 145.848C172.538 148.04 170.978 149.468 166.137 149.722C159.474 150.071 156.457 147.537 156.216 142.936C155.882 136.56 162.268 134.592 166.438 134.373L173.005 134.029L172.716 128.516L156.275 129.378L155.988 123.914L178.517 122.733L179.874 148.617ZM167.155 145.294C169.743 145.159 171.837 143.847 173.374 141.075L173.213 138.007L167.078 138.329C163.914 138.495 162.065 139.889 162.079 142.004C162.122 144.645 163.607 145.48 167.155 145.294Z" fill="white"/>
<path d="M206.74 147.257L197.297 136.745L193.06 141.197L193.414 147.956L187.422 148.27L185.558 112.703L191.55 112.389L192.676 133.863L204.488 121.708L211.678 121.331L201.551 132.629L214.026 146.876L206.74 147.257Z" fill="white"/>
<path d="M231.064 120.027C237.535 119.688 241.951 123.254 242.341 130.683L243.11 145.351L237.118 145.665L236.389 131.764C236.156 127.307 233.83 125.121 229.947 125.325C225.537 125.556 222.948 128.431 223.21 133.416L223.888 146.359L217.896 146.673L216.032 111.106L222.024 110.792L222.702 123.734C224.557 121.522 227.469 120.215 231.064 120.027Z" fill="white"/>
<path d="M258.637 144.874C254.467 145.093 250.09 144.12 247.653 142.566L249.716 137.891C252.097 139.305 255.649 140.128 258.764 139.965C262.359 139.776 264.083 138.725 263.985 136.855C263.937 135.944 263.473 135.344 262.545 135.056C261.616 134.768 260.113 134.511 258.082 134.281C255.955 134.056 254.212 133.81 252.895 133.447C250.168 132.773 247.81 130.878 247.616 127.187C247.363 122.345 251.559 118.953 258.461 118.591C261.961 118.408 265.841 119.07 268.164 120.294L266.102 124.968C263.877 123.787 261.399 123.292 258.667 123.435C255.168 123.618 253.359 124.867 253.449 126.592C253.5 127.551 254.014 128.197 255.041 128.528C256.022 128.909 257.528 129.215 259.607 129.442C261.686 129.67 263.381 129.917 264.698 130.281C267.377 130.958 269.632 132.714 269.823 136.357C270.074 141.15 265.779 144.5 258.637 144.874Z" fill="white"/>
<path d="M288.792 137.285L290.694 141.464C289.364 142.687 287.285 143.373 285.032 143.491C279.424 143.785 276.054 140.933 275.76 135.325L275.114 123.006L270.896 123.227L270.645 118.433L274.863 118.212L274.557 112.364L280.548 112.05L280.855 117.898L287.71 117.539L287.961 122.332L281.106 122.692L281.744 134.867C281.875 137.36 283.192 138.636 285.492 138.516C286.835 138.445 287.919 138.052 288.792 137.285Z" fill="white"/>
<path d="M317.263 141.417L317.213 141.372L317.218 141.467L311.562 141.764L311.399 138.648C309.927 140.84 308.368 142.268 303.526 142.521C296.864 142.871 293.847 140.337 293.606 135.735C293.272 129.36 299.657 127.391 303.828 127.173L310.395 126.829L310.106 121.316L293.664 122.178L293.378 116.713L315.907 115.533L317.263 141.417ZM304.544 138.094C307.133 137.959 309.227 136.647 310.764 133.875L310.603 130.807L304.468 131.129C301.304 131.294 299.454 132.689 299.469 134.803C299.511 137.445 300.997 138.28 304.544 138.094Z" fill="white"/>
<path d="M337.979 114.424C344.45 114.085 348.867 117.65 349.257 125.08L350.025 139.748L344.034 140.062L343.305 126.161C343.071 121.703 340.746 119.518 336.863 119.722C332.453 119.953 329.864 122.828 330.125 127.813L330.804 140.755L324.812 141.07L323.47 115.473L329.175 115.174L329.348 118.481C331.19 116.029 334.193 114.622 337.979 114.424Z" fill="white"/>
<path d="M371.936 147.925L369.585 103.058L375.097 102.769L377.449 147.636L371.936 147.925Z" fill="white"/>
<path d="M413.661 136.894C404.41 137.379 398.664 132.296 398.154 122.566L397.162 103.632L403.393 103.305L404.373 121.999C404.717 128.566 407.718 131.726 413.423 131.427C419.079 131.13 421.734 127.675 421.389 121.108L420.41 102.413L426.545 102.092L427.538 121.026C428.048 130.756 422.912 136.409 413.661 136.894Z" fill="white"/>
<path d="M455.773 134.206L446.33 123.694L442.093 128.146L442.447 134.904L436.456 135.219L434.592 99.6513L440.583 99.3373L441.709 120.812L453.521 108.657L460.711 108.28L450.584 119.578L463.059 133.824L455.773 134.206Z" fill="white"/>
<path d="M471.058 107.738L471.254 111.477C472.839 108.702 475.788 107.202 480.15 106.973L480.449 112.677C479.917 112.609 479.483 112.584 479.052 112.606C474.402 112.85 471.768 115.776 472.036 120.905L472.687 133.32L466.695 133.634L465.354 108.037L471.058 107.738Z" fill="white"/>
<path d="M508.017 131.42L507.967 131.375L507.972 131.47L502.316 131.767L502.152 128.651C500.681 130.843 499.122 132.271 494.28 132.525C487.617 132.874 484.601 130.34 484.36 125.738C484.025 119.363 490.411 117.394 494.581 117.176L501.148 116.832L500.86 111.319L484.418 112.181L484.132 106.716L506.661 105.536L508.017 131.42ZM495.298 128.097C497.886 127.962 499.981 126.65 501.518 123.878L501.357 120.81L495.221 121.132C492.058 121.297 490.208 122.692 490.223 124.806C490.265 127.448 491.751 128.283 495.298 128.097Z" fill="white"/>
<path d="M515.566 131.073L514.224 105.476L520.216 105.162L521.557 130.759L515.566 131.073ZM512.857 94.0596L520.478 93.6601L520.855 100.85L513.234 101.25L512.857 94.0596Z" fill="white"/>
<path d="M542.589 103.701C549.06 103.362 553.477 106.927 553.866 114.357L554.635 129.025L548.643 129.339L547.915 115.438C547.681 110.98 545.356 108.795 541.473 108.998C537.063 109.23 534.474 112.105 534.735 117.09L535.413 130.032L529.422 130.346L528.08 104.749L533.784 104.451L533.958 107.758C535.8 105.306 538.802 103.899 542.589 103.701Z" fill="white"/>
<path d="M585.87 114.699C585.892 115.13 585.875 115.708 585.867 116.477L565.783 117.53C566.7 121.279 569.987 123.462 574.397 123.231C577.225 123.083 579.478 122.051 581.201 120.086L584.607 123.609C582.449 126.462 578.929 128.088 574.519 128.319C565.987 128.767 560.095 123.644 559.69 115.926C559.308 108.64 564.229 102.567 572.234 102.147C579.856 101.748 585.455 106.789 585.87 114.699ZM572.486 106.94C568.651 107.141 565.903 109.737 565.526 113.554L580.05 112.793C579.329 109.129 576.368 106.737 572.486 106.94Z" fill="white"/>
<path d="M606.599 135.626L604.247 90.76L609.76 90.4711L612.111 135.338L606.599 135.626Z" fill="white"/>
<path d="M648.323 124.596C639.072 125.08 633.326 119.998 632.816 110.268L631.824 91.3336L638.055 91.007L639.035 109.701C639.379 116.268 642.381 119.428 648.085 119.129C653.741 118.832 656.396 115.377 656.052 108.81L655.072 90.1152L661.208 89.7936L662.2 108.728C662.71 118.458 657.575 124.111 648.323 124.596Z" fill="white"/>
<path d="M696.108 121.611L692.346 114.021L675.569 114.9L672.669 122.839L666.245 123.176L679.586 88.8305L685.722 88.5089L702.628 121.269L696.108 121.611ZM677.422 109.901L690.029 109.24L682.933 94.9036L677.422 109.901Z" fill="white"/>
<path d="M712.852 115.494L731.786 114.502L732.06 119.727L706.895 121.045L705.136 87.4914L729.631 86.2077L729.905 91.4326L711.642 92.3897L712.099 101.114L728.301 100.265L728.569 105.394L712.368 106.243L712.852 115.494Z" fill="white"/>
<path d="M752.742 127.967L750.39 83.101L755.903 82.8121L758.254 127.679L752.742 127.967Z" fill="white"/>
<path d="M803.405 115.987L790.829 102.563L785.795 108.307L786.245 116.887L780.013 117.213L778.255 83.6595L784.486 83.3329L785.388 100.541L801.071 82.4637L808.07 82.0969L794.763 97.8389L810.691 115.606L803.405 115.987Z" fill="white"/>
<path d="M835.318 114.267L835.268 114.222L835.273 114.317L829.616 114.614L829.453 111.498C827.982 113.69 826.423 115.118 821.581 115.371C814.918 115.721 811.902 113.187 811.66 108.585C811.326 102.21 817.712 100.241 821.882 100.023L828.449 99.6784L828.16 94.166L811.719 95.0277L811.433 89.5632L833.962 88.3825L835.318 114.267ZM822.599 110.944C825.187 110.808 827.281 109.497 828.818 106.725L828.658 103.657L822.522 103.979C819.359 104.144 817.509 105.539 817.524 107.653C817.566 110.295 819.052 111.13 822.599 110.944Z" fill="white"/>
<path d="M848.128 108.837L862.604 108.078L862.855 112.872L840.757 114.03L840.559 110.243L853.712 92.4904L839.955 93.2114L839.704 88.418L861.13 87.2951L861.329 91.0819L848.128 108.837Z" fill="white"/>
<path d="M889.946 111.404L889.896 111.359L889.901 111.454L884.245 111.751L884.081 108.635C882.61 110.827 881.051 112.255 876.209 112.508C869.546 112.858 866.53 110.324 866.289 105.722C865.954 99.3471 872.34 97.3782 876.51 97.1597L883.077 96.8155L882.788 91.3031L866.347 92.1647L866.061 86.7002L888.59 85.5195L889.946 111.404ZM877.227 108.081C879.816 107.945 881.91 106.634 883.447 103.862L883.286 100.794L877.15 101.116C873.987 101.281 872.137 102.676 872.152 104.79C872.194 107.432 873.68 108.267 877.227 108.081Z" fill="white"/>
<path d="M916.812 110.044L907.369 99.5319L903.132 103.984L903.487 110.742L897.495 111.056L895.631 75.4893L901.623 75.1753L902.748 96.6498L914.56 84.4949L921.75 84.1181L911.624 95.4156L924.098 109.662L916.812 110.044Z" fill="white"/>
<path d="M941.136 82.8138C947.607 82.4746 952.024 86.0404 952.413 93.4702L953.182 108.138L947.19 108.452L946.462 94.5511C946.228 90.0932 943.902 87.908 940.02 88.1114C935.61 88.3425 933.021 91.218 933.282 96.2031L933.96 109.145L927.969 109.459L926.105 73.8922L932.096 73.5782L932.775 86.5204C934.629 84.3083 937.541 83.0022 941.136 82.8138Z" fill="white"/>
<path d="M968.71 107.661C964.539 107.879 960.163 106.907 957.726 105.352L959.788 100.678C962.169 102.091 965.721 102.915 968.837 102.751C972.432 102.563 974.155 101.511 974.057 99.6419C974.01 98.7311 973.545 98.1306 972.617 97.8428C971.689 97.5549 970.185 97.2973 968.154 97.0673C966.028 96.8423 964.285 96.5971 962.968 96.2336C960.241 95.5594 957.882 93.6642 957.689 89.9733C957.435 85.1319 961.631 81.7396 968.534 81.3779C972.033 81.1945 975.913 81.8564 978.236 83.0804L976.174 87.7548C973.949 86.5736 971.472 86.0786 968.74 86.2218C965.24 86.4051 963.431 87.6535 963.522 89.3792C963.572 90.3379 964.086 90.9838 965.113 91.3145C966.094 91.6957 967.601 92.0013 969.679 92.2288C971.758 92.4563 973.453 92.704 974.77 93.0675C977.449 93.7442 979.704 95.5006 979.895 99.1436C980.146 103.937 975.852 107.286 968.71 107.661Z" fill="white"/>
<path d="M998.865 100.072L1000.77 104.25C999.436 105.474 997.357 106.159 995.105 106.277C989.496 106.571 986.126 103.72 985.832 98.1115L985.187 85.7924L980.969 86.0135L980.717 81.22L984.936 80.999L984.629 75.151L990.621 74.837L990.927 80.685L997.782 80.3257L998.033 85.1191L991.179 85.4784L991.817 97.6537C991.947 100.146 993.264 101.423 995.565 101.303C996.907 101.232 997.992 100.839 998.865 100.072Z" fill="white"/>
<path d="M1027.34 104.204L1027.29 104.158L1027.29 104.254L1021.63 104.551L1021.47 101.435C1020 103.627 1018.44 105.054 1013.6 105.308C1006.94 105.657 1003.92 103.124 1003.68 98.5221C1003.34 92.1468 1009.73 90.1779 1013.9 89.9594L1020.47 89.6152L1020.18 84.1028L1003.74 84.9644L1003.45 79.4999L1025.98 78.3192L1027.34 104.204ZM1014.62 100.881C1017.21 100.745 1019.3 99.4338 1020.84 96.6615L1020.68 93.5938L1014.54 93.9153C1011.38 94.0811 1009.53 95.4758 1009.54 97.5899C1009.58 100.231 1011.07 101.067 1014.62 100.881Z" fill="white"/>
<path d="M1048.05 77.2105C1054.52 76.8714 1058.94 80.4371 1059.33 87.8669L1060.1 102.535L1054.11 102.849L1053.38 88.9479C1053.14 84.49 1050.82 82.3047 1046.94 82.5082C1042.53 82.7393 1039.94 85.6148 1040.2 90.5999L1040.88 103.542L1034.88 103.856L1033.54 78.2593L1039.25 77.9604L1039.42 81.2678C1041.26 78.8161 1044.27 77.409 1048.05 77.2105Z" fill="white"/>
<path d="M1095.97 101.135C1086.72 101.62 1080.98 96.5378 1080.47 86.8072L1079.48 67.8732L1085.71 67.5466L1086.69 86.2409C1087.03 92.8079 1090.03 95.9672 1095.74 95.6682C1101.39 95.3718 1104.05 91.9161 1103.7 85.3491L1102.72 66.6548L1108.86 66.3332L1109.85 85.2672C1110.36 94.9979 1105.23 100.65 1095.97 101.135Z" fill="white"/>
<path d="M1138.09 98.4476L1128.64 87.9354L1124.41 92.3872L1124.76 99.1459L1118.77 99.46L1116.91 63.8928L1122.9 63.5788L1124.02 85.0533L1135.83 72.8984L1143.02 72.5216L1132.9 83.8191L1145.37 98.0657L1138.09 98.4476Z" fill="white"/>
<path d="M1153.37 71.9794L1153.57 75.7182C1155.15 72.9435 1158.1 71.443 1162.46 71.2144L1162.76 76.9186C1162.23 76.8504 1161.8 76.8251 1161.37 76.8477C1156.72 77.0913 1154.08 80.0172 1154.35 85.1462L1155 97.5611L1149.01 97.8752L1147.67 72.2783L1153.37 71.9794Z" fill="white"/>
<path d="M1190.33 95.6615L1190.28 95.6161L1190.29 95.7119L1184.63 96.0084L1184.47 92.8927C1182.99 95.0847 1181.44 96.5122 1176.59 96.766C1169.93 97.1151 1166.91 94.5816 1166.67 89.9799C1166.34 83.6046 1172.72 81.6357 1176.9 81.4172L1183.46 81.073L1183.17 75.5606L1166.73 76.4222L1166.45 70.9577L1188.97 69.777L1190.33 95.6615ZM1177.61 92.3386C1180.2 92.203 1182.29 90.8916 1183.83 88.1193L1183.67 85.0515L1177.54 85.3731C1174.37 85.5389 1172.52 86.9336 1172.54 89.0477C1172.58 91.6891 1174.06 92.5245 1177.61 92.3386Z" fill="white"/>
<path d="M1197.88 95.314L1196.54 69.7171L1202.53 69.4031L1203.87 95L1197.88 95.314ZM1195.17 58.301L1202.79 57.9016L1203.17 65.0917L1195.55 65.4912L1195.17 58.301Z" fill="white"/>
<path d="M1224.9 67.9422C1231.37 67.603 1235.79 71.1688 1236.18 78.5986L1236.95 93.2664L1230.96 93.5805L1230.23 79.6795C1229.99 75.2216 1227.67 73.0364 1223.79 73.2398C1219.38 73.471 1216.79 76.3464 1217.05 81.3316L1217.73 94.2738L1211.74 94.5878L1210.39 68.9909L1216.1 68.692L1216.27 71.9995C1218.11 69.5477 1221.12 68.1406 1224.9 67.9422Z" fill="white"/>
<path d="M1268.18 78.9401C1268.21 79.3715 1268.19 79.9492 1268.18 80.7187L1248.1 81.7713C1249.01 85.5204 1252.3 87.7034 1256.71 87.4722C1259.54 87.324 1261.79 86.2927 1263.52 84.3278L1266.92 87.8504C1264.76 90.7033 1261.24 92.3297 1256.83 92.5608C1248.3 93.008 1242.41 87.8853 1242 80.1679C1241.62 72.8819 1246.54 66.8081 1254.55 66.3885C1262.17 65.9891 1267.77 71.031 1268.18 78.9401ZM1254.8 71.1819C1250.96 71.3829 1248.22 73.9783 1247.84 77.7952L1262.36 77.0341C1261.64 73.3708 1258.68 70.9785 1254.8 71.1819Z" fill="white"/>
<path d="M1288.91 99.8679L1286.56 55.0015L1292.07 54.7126L1294.42 99.579L1288.91 99.8679Z" fill="white"/>
<path d="M1330.64 88.8371C1321.39 89.3219 1315.64 84.2397 1315.13 74.509L1314.14 55.575L1320.37 55.2485L1321.35 73.9428C1321.69 80.5098 1324.69 83.669 1330.4 83.3701C1336.05 83.0737 1338.71 79.618 1338.37 73.051L1337.39 54.3566L1343.52 54.0351L1344.51 72.9691C1345.02 82.6998 1339.89 88.3523 1330.64 88.8371Z" fill="white"/>
<path d="M1378.42 85.8521L1374.66 78.2626L1357.88 79.1419L1354.98 87.0806L1348.56 87.4172L1361.9 53.0719L1368.04 52.7504L1384.94 85.5105L1378.42 85.8521ZM1359.74 74.1421L1372.34 73.4814L1365.25 59.1451L1359.74 74.1421Z" fill="white"/>
<path d="M1395.17 79.7354L1414.1 78.7431L1414.37 83.968L1389.21 85.2868L1387.45 51.7329L1411.94 50.4492L1412.22 55.674L1393.96 56.6311L1394.41 65.3552L1410.61 64.5061L1410.88 69.635L1394.68 70.4841L1395.17 79.7354Z" fill="white"/>
<path d="M1435.06 92.2089L1432.7 47.3425L1438.22 47.0536L1440.57 91.92L1435.06 92.2089Z" fill="white"/>
<path d="M1485.72 80.229L1473.14 66.8047L1468.11 72.5481L1468.56 81.1283L1462.33 81.4549L1460.57 47.9009L1466.8 47.5743L1467.7 64.7827L1483.39 46.7051L1490.38 46.3384L1477.08 62.0803L1493 79.8471L1485.72 80.229Z" fill="white"/>
<path d="M1517.63 78.5084L1517.58 78.463L1517.59 78.5588L1511.93 78.8553L1511.77 75.7395C1510.3 77.9316 1508.74 79.3591 1503.89 79.6128C1497.23 79.962 1494.22 77.4284 1493.97 72.8268C1493.64 66.4515 1500.03 64.4826 1504.2 64.2641L1510.76 63.9199L1510.47 58.4075L1494.03 59.2691L1493.75 53.8046L1516.28 52.6239L1517.63 78.5084ZM1504.91 75.1855C1507.5 75.0499 1509.6 73.7385 1511.13 70.9662L1510.97 67.8984L1504.84 68.22C1501.67 68.3858 1499.82 69.7805 1499.84 71.8946C1499.88 74.536 1501.37 75.3714 1504.91 75.1855Z" fill="white"/>
<path d="M1530.44 73.0785L1544.92 72.3199L1545.17 77.1133L1523.07 78.2714L1522.87 74.4846L1536.03 56.7319L1522.27 57.4529L1522.02 52.6595L1543.44 51.5365L1543.64 55.3233L1530.44 73.0785Z" fill="white"/>
<path d="M1572.26 75.6455L1572.21 75.6L1572.21 75.6959L1566.56 75.9923L1566.4 72.8766C1564.92 75.0686 1563.36 76.4962 1558.52 76.7499C1551.86 77.0991 1548.84 74.5655 1548.6 69.9638C1548.27 63.5886 1554.65 61.6197 1558.82 61.4011L1565.39 61.057L1565.1 55.5445L1548.66 56.4062L1548.37 50.9417L1570.9 49.761L1572.26 75.6455ZM1559.54 72.3226C1562.13 72.1869 1564.22 70.8755 1565.76 68.1033L1565.6 65.0355L1559.46 65.357C1556.3 65.5228 1554.45 66.9176 1554.47 69.0317C1554.51 71.6731 1555.99 72.5085 1559.54 72.3226Z" fill="white"/>
<path d="M1599.13 74.2855L1589.68 63.7733L1585.45 68.2252L1585.8 74.9839L1579.81 75.2979L1577.94 39.7307L1583.94 39.4167L1585.06 60.8912L1596.87 48.7364L1604.06 48.3596L1593.94 59.657L1606.41 73.9037L1599.13 74.2855Z" fill="white"/>
<path d="M1623.45 47.0552C1629.92 46.7161 1634.34 50.2818 1634.73 57.7116L1635.5 72.3795L1629.5 72.6935L1628.78 58.7926C1628.54 54.3347 1626.22 52.1494 1622.33 52.3529C1617.92 52.584 1615.33 55.4594 1615.6 60.4446L1616.27 73.3868L1610.28 73.7009L1608.42 38.1337L1614.41 37.8196L1615.09 50.7619C1616.94 48.5498 1619.85 47.2436 1623.45 47.0552Z" fill="white"/>
<path d="M1651.02 71.9022C1646.85 72.1207 1642.48 71.1485 1640.04 69.5939L1642.1 64.9195C1644.48 66.3328 1648.03 67.1561 1651.15 66.9928C1654.75 66.8044 1656.47 65.7527 1656.37 63.8833C1656.32 62.9726 1655.86 62.372 1654.93 62.0842C1654 61.7964 1652.5 61.5387 1650.47 61.3087C1648.34 61.0837 1646.6 60.8386 1645.28 60.475C1642.55 59.8008 1640.2 57.9056 1640 54.2147C1639.75 49.3734 1643.95 45.9811 1650.85 45.6193C1654.35 45.436 1658.23 46.0978 1660.55 47.3219L1658.49 51.9962C1656.26 50.8151 1653.79 50.32 1651.05 50.4632C1647.55 50.6466 1645.74 51.895 1645.84 53.6206C1645.89 54.5793 1646.4 55.2253 1647.43 55.556C1648.41 55.9372 1649.91 56.2428 1651.99 56.4703C1654.07 56.6978 1655.77 56.9454 1657.08 57.309C1659.76 57.9857 1662.02 59.7421 1662.21 63.3851C1662.46 68.1785 1658.17 71.5279 1651.02 71.9022Z" fill="white"/>
<path d="M1681.18 64.3136L1683.08 68.4918C1681.75 69.7151 1679.67 70.4008 1677.42 70.5189C1671.81 70.8128 1668.44 67.9613 1668.15 62.3529L1667.5 50.0339L1663.28 50.2549L1663.03 45.4615L1667.25 45.2404L1666.94 39.3925L1672.93 39.0784L1673.24 44.9264L1680.1 44.5672L1680.35 49.3606L1673.49 49.7198L1674.13 61.8951C1674.26 64.3877 1675.58 65.6645 1677.88 65.544C1679.22 65.4736 1680.31 65.0803 1681.18 64.3136Z" fill="white"/>
<path d="M1709.65 68.4452L1709.6 68.3997L1709.6 68.4956L1703.95 68.792L1703.78 65.6763C1702.31 67.8683 1700.75 69.2959 1695.91 69.5496C1689.25 69.8988 1686.23 67.3652 1685.99 62.7635C1685.66 56.3883 1692.04 54.4194 1696.21 54.2008L1702.78 53.8567L1702.49 48.3442L1686.05 49.2059L1685.76 43.7414L1708.29 42.5607L1709.65 68.4452ZM1696.93 65.1223C1699.52 64.9866 1701.61 63.6752 1703.15 60.903L1702.99 57.8352L1696.85 58.1568C1693.69 58.3226 1691.84 59.7173 1691.85 61.8314C1691.9 64.4728 1693.38 65.3082 1696.93 65.1223Z" fill="white"/>
<path d="M1730.37 41.452C1736.84 41.1128 1741.25 44.6786 1741.64 52.1084L1742.41 66.7763L1736.42 67.0903L1735.69 53.1894C1735.46 48.7315 1733.13 46.5462 1729.25 46.7497C1724.84 46.9808 1722.25 49.8562 1722.51 54.8414L1723.19 67.7836L1717.2 68.0976L1715.86 42.5008L1721.56 42.2018L1721.73 45.5093C1723.58 43.0575 1726.58 41.6504 1730.37 41.452Z" fill="white"/>
<path d="M1764.32 74.9527L1761.97 30.0863L1767.48 29.7974L1769.83 74.6638L1764.32 74.9527Z" fill="white"/>
<path d="M1806.05 63.9219C1796.8 64.4067 1791.05 59.3245 1790.54 49.5939L1789.55 30.6598L1795.78 30.3333L1796.76 49.0276C1797.1 55.5946 1800.1 58.7538 1805.81 58.4549C1811.46 58.1585 1814.12 54.7028 1813.78 48.1358L1812.8 29.4415L1818.93 29.1199L1819.92 48.0539C1820.43 57.7846 1815.3 63.4371 1806.05 63.9219Z" fill="white"/>
<path d="M1848.16 61.2343L1838.72 50.7221L1834.48 55.1739L1834.83 61.9326L1828.84 62.2466L1826.98 26.6795L1832.97 26.3654L1834.09 47.84L1845.91 35.6851L1853.1 35.3083L1842.97 46.6058L1855.45 60.8524L1848.16 61.2343Z" fill="white"/>
<path d="M1863.44 34.766L1863.64 38.5049C1865.23 35.7301 1868.17 34.2297 1872.54 34.0011L1872.84 39.7053C1872.3 39.6371 1871.87 39.6117 1871.44 39.6343C1866.79 39.878 1864.15 42.8039 1864.42 47.9329L1865.07 60.3478L1859.08 60.6619L1857.74 35.065L1863.44 34.766Z" fill="white"/>
<path d="M1900.4 58.4482L1900.35 58.4028L1900.36 58.4986L1894.7 58.7951L1894.54 55.6793C1893.07 57.8713 1891.51 59.2989 1886.67 59.5526C1880 59.9018 1876.99 57.3682 1876.75 52.7666C1876.41 46.3913 1882.8 44.4224 1886.97 44.2038L1893.53 43.8597L1893.25 38.3472L1876.8 39.2089L1876.52 33.7444L1899.05 32.5637L1900.4 58.4482ZM1887.68 55.1253C1890.27 54.9897 1892.37 53.6782 1893.9 50.906L1893.74 47.8382L1887.61 48.1598C1884.44 48.3256 1882.59 49.7203 1882.61 51.8344C1882.65 54.4758 1884.14 55.3112 1887.68 55.1253Z" fill="white"/>
<path d="M1907.95 58.1007L1906.61 32.5038L1912.6 32.1898L1913.94 57.7866L1907.95 58.1007ZM1905.24 21.0877L1912.86 20.6883L1913.24 27.8784L1905.62 28.2778L1905.24 21.0877Z" fill="white"/>
<path d="M1934.98 30.7288C1941.45 30.3897 1945.86 33.9554 1946.25 41.3852L1947.02 56.0531L1941.03 56.3671L1940.3 42.4662C1940.07 38.0083 1937.74 35.823 1933.86 36.0265C1929.45 36.2576 1926.86 39.1331 1927.12 44.1182L1927.8 57.0605L1921.81 57.3745L1920.47 31.7776L1926.17 31.4787L1926.34 34.7861C1928.19 32.3344 1931.19 30.9273 1934.98 30.7288Z" fill="white"/>
<path d="M1978.26 41.7268C1978.28 42.1582 1978.26 42.7359 1978.25 43.5054L1958.17 44.5579C1959.09 48.3071 1962.37 50.49 1966.78 50.2589C1969.61 50.1107 1971.86 49.0794 1973.59 47.1145L1976.99 50.6371C1974.84 53.4899 1971.32 55.1164 1966.91 55.3475C1958.37 55.7947 1952.48 50.672 1952.08 42.9546C1951.69 35.6686 1956.62 29.5947 1964.62 29.1752C1972.24 28.7758 1977.84 33.8176 1978.26 41.7268ZM1964.87 33.9686C1961.04 34.1696 1958.29 36.765 1957.91 40.5819L1972.44 39.8208C1971.72 36.1575 1968.75 33.7652 1964.87 33.9686Z" fill="white"/>
<path d="M1998.98 62.6546L1996.63 17.7882L2002.15 17.4993L2004.5 62.3657L1998.98 62.6546Z" fill="white"/>
<path d="M2040.71 51.6238C2031.46 52.1086 2025.71 47.0264 2025.2 37.2957L2024.21 18.3617L2030.44 18.0351L2031.42 36.7295C2031.77 43.2965 2034.77 46.4557 2040.47 46.1568C2046.13 45.8603 2048.78 42.4047 2048.44 35.8377L2047.46 17.1433L2053.59 16.8218L2054.59 35.7558C2055.1 45.4864 2049.96 51.1389 2040.71 51.6238Z" fill="white"/>
<path d="M2088.49 48.6388L2084.73 41.0493L2067.96 41.9286L2065.05 49.8672L2058.63 50.2039L2071.97 15.8586L2078.11 15.537L2095.01 48.2972L2088.49 48.6388ZM2069.81 36.9287L2082.41 36.268L2075.32 21.9318L2069.81 36.9287Z" fill="white"/>
<path d="M2105.24 42.5221L2124.17 41.5298L2124.45 46.7547L2099.28 48.0735L2097.52 14.5196L2122.02 13.2359L2122.29 18.4607L2104.03 19.4178L2104.48 28.1418L2120.69 27.2928L2120.96 32.4217L2104.75 33.2708L2105.24 42.5221Z" fill="white"/>
<path d="M2145.13 54.9956L2142.78 10.1291L2148.29 9.84023L2150.64 54.7067L2145.13 54.9956Z" fill="white"/>
<path d="M2195.79 43.0156L2183.22 29.5914L2178.18 35.3347L2178.63 43.915L2172.4 44.2415L2170.64 10.6876L2176.87 10.361L2177.77 27.5694L2193.46 9.49182L2200.46 9.12505L2187.15 24.867L2203.08 42.6338L2195.79 43.0156Z" fill="white"/>
<path d="M2227.7 41.2951L2227.65 41.2497L2227.66 41.3455L2222 41.6419L2221.84 38.5262C2220.37 40.7182 2218.81 42.1458 2213.97 42.3995C2207.3 42.7487 2204.29 40.2151 2204.05 35.6134C2203.71 29.2382 2210.1 27.2693 2214.27 27.0507L2220.84 26.7066L2220.55 21.1941L2204.1 22.0558L2203.82 16.5913L2226.35 15.4106L2227.7 41.2951ZM2214.98 37.9722C2217.57 37.8365 2219.67 36.5251 2221.2 33.7529L2221.04 30.6851L2214.91 31.0067C2211.74 31.1725 2209.89 32.5672 2209.91 34.6813C2209.95 37.3227 2211.44 38.1581 2214.98 37.9722Z" fill="white"/>
<path d="M2240.51 35.8652L2254.99 35.1066L2255.24 39.9L2233.14 41.0581L2232.95 37.2713L2246.1 19.5186L2232.34 20.2396L2232.09 15.4461L2253.52 14.3232L2253.71 18.11L2240.51 35.8652Z" fill="white"/>
<path d="M2282.33 38.4321L2282.28 38.3867L2282.29 38.4826L2276.63 38.779L2276.47 35.6633C2275 37.8553 2273.44 39.2829 2268.6 39.5366C2261.93 39.8858 2258.92 37.3522 2258.67 32.7505C2258.34 26.3753 2264.73 24.4064 2268.9 24.1878L2275.46 23.8436L2275.17 18.3312L2258.73 19.1929L2258.45 13.7284L2280.98 12.5477L2282.33 38.4321ZM2269.61 35.1093C2272.2 34.9736 2274.3 33.6622 2275.83 30.89L2275.67 27.8222L2269.54 28.1437C2266.37 28.3095 2264.52 29.7042 2264.54 31.8184C2264.58 34.4598 2266.07 35.2952 2269.61 35.1093Z" fill="white"/>
<path d="M2309.2 37.0722L2299.76 26.56L2295.52 31.0119L2295.87 37.7706L2289.88 38.0846L2288.02 2.51742L2294.01 2.2034L2295.13 23.6779L2306.95 11.5231L2314.14 11.1463L2304.01 22.4437L2316.48 36.6904L2309.2 37.0722Z" fill="white"/>
<path d="M2333.52 9.84188C2339.99 9.50274 2344.41 13.0685 2344.8 20.4983L2345.57 35.1662L2339.58 35.4802L2338.85 21.5793C2338.61 17.1214 2336.29 14.9361 2332.41 15.1396C2328 15.3707 2325.41 18.2461 2325.67 23.2313L2326.35 36.1735L2320.35 36.4875L2318.49 0.920351L2324.48 0.606335L2325.16 13.5486C2327.02 11.3365 2329.93 10.0303 2333.52 9.84188Z" fill="white"/>
<path d="M2361.1 34.6888C2356.93 34.9074 2352.55 33.9351 2350.11 32.3805L2352.17 27.7062C2354.56 29.1195 2358.11 29.9428 2361.22 29.7795C2364.82 29.591 2366.54 28.5394 2366.44 26.67C2366.4 25.7592 2365.93 25.1587 2365 24.8709C2364.07 24.5831 2362.57 24.3254 2360.54 24.0954C2358.41 23.8704 2356.67 23.6253 2355.35 23.2617C2352.63 22.5875 2350.27 20.6923 2350.07 17.0014C2349.82 12.16 2354.02 8.76778 2360.92 8.40603C2364.42 8.22265 2368.3 8.8845 2370.62 10.1086L2368.56 14.7829C2366.34 13.6017 2363.86 13.1067 2361.13 13.2499C2357.63 13.4333 2355.82 14.6817 2355.91 16.4073C2355.96 17.366 2356.47 18.012 2357.5 18.3427C2358.48 18.7238 2359.99 19.0294 2362.07 19.257C2364.14 19.4845 2365.84 19.7321 2367.16 20.0957C2369.84 20.7724 2372.09 22.5288 2372.28 26.1718C2372.53 30.9652 2368.24 34.3145 2361.1 34.6888Z" fill="white"/>
<path d="M2391.25 27.1002L2393.15 31.2785C2391.82 32.5017 2389.74 33.1875 2387.49 33.3055C2381.88 33.5995 2378.51 30.7479 2378.22 25.1396L2377.57 12.8205L2373.35 13.0416L2373.1 8.24818L2377.32 8.0271L2377.02 2.17913L2383.01 1.86511L2383.31 7.71309L2390.17 7.35385L2390.42 12.1473L2383.56 12.5065L2384.2 24.6818C2384.33 27.1744 2385.65 28.4512 2387.95 28.3306C2389.29 28.2603 2390.38 27.867 2391.25 27.1002Z" fill="white"/>
<path d="M2419.72 31.2318L2419.67 31.1864L2419.68 31.2823L2414.02 31.5787L2413.86 28.463C2412.39 30.655 2410.83 32.0826 2405.98 32.3363C2399.32 32.6855 2396.31 30.1519 2396.06 25.5502C2395.73 19.175 2402.12 17.2061 2406.29 16.9875L2412.85 16.6433L2412.56 11.1309L2396.12 11.9926L2395.84 6.52807L2418.37 5.34737L2419.72 31.2318ZM2407 27.909C2409.59 27.7733 2411.69 26.4619 2413.22 23.6897L2413.06 20.6219L2406.93 20.9434C2403.76 21.1092 2401.91 22.504 2401.93 24.6181C2401.97 27.2595 2403.46 28.0949 2407 27.909Z" fill="white"/>
<path d="M2440.44 4.23866C2446.91 3.89953 2451.33 7.46527 2451.72 14.8951L2452.48 29.5629L2446.49 29.877L2445.76 15.976C2445.53 11.5182 2443.2 9.33287 2439.32 9.53635C2434.91 9.76746 2432.32 12.6429 2432.58 17.6281L2433.26 30.5703L2427.27 30.8843L2425.93 5.28745L2431.63 4.9885L2431.81 8.29596C2433.65 5.84419 2436.65 4.43712 2440.44 4.23866Z" fill="white"/>
</svg>
